solid OpenSCAD_Model
  facet normal 0.866025 0.5 0
    outer loop
      vertex 2.28386 1.01684 1.5
      vertex 2.02254 1.46946 0
      vertex 2.02254 1.46946 1.5
    endloop
  endfacet
  facet normal 0.866025 0.5 0
    outer loop
      vertex 2.02254 1.46946 0
      vertex 2.28386 1.01684 1.5
      vertex 2.28386 1.01684 0
    endloop
  endfacet
  facet normal 0 1 -0
    outer loop
      vertex 0.261321 2.4863 0
      vertex -0.261321 2.4863 1.5
      vertex 0.261321 2.4863 1.5
    endloop
  endfacet
  facet normal 0 1 0
    outer loop
      vertex -0.261321 2.4863 1.5
      vertex 0.261321 2.4863 0
      vertex -0.261321 2.4863 0
    endloop
  endfacet
  facet normal 0.743145 0.669131 0
    outer loop
      vertex 2.02254 1.46946 1.5
      vertex 1.67283 1.85786 0
      vertex 1.67283 1.85786 1.5
    endloop
  endfacet
  facet normal 0.743145 0.669131 0
    outer loop
      vertex 1.67283 1.85786 0
      vertex 2.02254 1.46946 1.5
      vertex 2.02254 1.46946 0
    endloop
  endfacet
  facet normal 0.207912 0.978148 -0
    outer loop
      vertex 0.772542 2.37764 0
      vertex 0.261321 2.4863 1.5
      vertex 0.772542 2.37764 1.5
    endloop
  endfacet
  facet normal 0.207912 0.978148 0
    outer loop
      vertex 0.261321 2.4863 1.5
      vertex 0.772542 2.37764 0
      vertex 0.261321 2.4863 0
    endloop
  endfacet
  facet normal -0.207912 0.978148 0
    outer loop
      vertex -0.261321 2.4863 0
      vertex -0.772542 2.37764 1.5
      vertex -0.261321 2.4863 1.5
    endloop
  endfacet
  facet normal -0.207912 0.978148 0
    outer loop
      vertex -0.772542 2.37764 1.5
      vertex -0.261321 2.4863 0
      vertex -0.772542 2.37764 0
    endloop
  endfacet
  facet normal -0.866025 0.5 0
    outer loop
      vertex -2.28386 1.01684 0
      vertex -2.02254 1.46946 1.5
      vertex -2.02254 1.46946 0
    endloop
  endfacet
  facet normal -0.866025 0.5 0
    outer loop
      vertex -2.02254 1.46946 1.5
      vertex -2.28386 1.01684 0
      vertex -2.28386 1.01684 1.5
    endloop
  endfacet
  facet normal 0.207912 -0.978148 0
    outer loop
      vertex 0.261321 -2.4863 0
      vertex 0.772542 -2.37764 1.5
      vertex 0.261321 -2.4863 1.5
    endloop
  endfacet
  facet normal 0.207912 -0.978148 0
    outer loop
      vertex 0.772542 -2.37764 1.5
      vertex 0.261321 -2.4863 0
      vertex 0.772542 -2.37764 0
    endloop
  endfacet
  facet normal 0.587786 0.809017 -0
    outer loop
      vertex 1.67283 1.85786 0
      vertex 1.25 2.16506 1.5
      vertex 1.67283 1.85786 1.5
    endloop
  endfacet
  facet normal 0.587786 0.809017 0
    outer loop
      vertex 1.25 2.16506 1.5
      vertex 1.67283 1.85786 0
      vertex 1.25 2.16506 0
    endloop
  endfacet
  facet normal 0.406736 0.913546 -0
    outer loop
      vertex 1.25 2.16506 0
      vertex 0.772542 2.37764 1.5
      vertex 1.25 2.16506 1.5
    endloop
  endfacet
  facet normal 0.406736 0.913546 0
    outer loop
      vertex 0.772542 2.37764 1.5
      vertex 1.25 2.16506 0
      vertex 0.772542 2.37764 0
    endloop
  endfacet
  facet normal -0.743145 0.669131 0
    outer loop
      vertex -2.02254 1.46946 0
      vertex -1.67283 1.85786 1.5
      vertex -1.67283 1.85786 0
    endloop
  endfacet
  facet normal -0.743145 0.669131 0
    outer loop
      vertex -1.67283 1.85786 1.5
      vertex -2.02254 1.46946 0
      vertex -2.02254 1.46946 1.5
    endloop
  endfacet
  facet normal -0.406737 0.913545 0
    outer loop
      vertex -0.772542 2.37764 0
      vertex -1.25 2.16506 1.5
      vertex -0.772542 2.37764 1.5
    endloop
  endfacet
  facet normal -0.406737 0.913545 0
    outer loop
      vertex -1.25 2.16506 1.5
      vertex -0.772542 2.37764 0
      vertex -1.25 2.16506 0
    endloop
  endfacet
  facet normal -0.587785 0.809017 0
    outer loop
      vertex -1.25 2.16506 0
      vertex -1.67283 1.85786 1.5
      vertex -1.25 2.16506 1.5
    endloop
  endfacet
  facet normal -0.587785 0.809017 0
    outer loop
      vertex -1.67283 1.85786 1.5
      vertex -1.25 2.16506 0
      vertex -1.67283 1.85786 0
    endloop
  endfacet
  facet normal -0.207912 -0.978148 0
    outer loop
      vertex -0.772542 -2.37764 0
      vertex -0.261321 -2.4863 1.5
      vertex -0.772542 -2.37764 1.5
    endloop
  endfacet
  facet normal -0.207912 -0.978148 -0
    outer loop
      vertex -0.261321 -2.4863 1.5
      vertex -0.772542 -2.37764 0
      vertex -0.261321 -2.4863 0
    endloop
  endfacet
  facet normal 0.587786 -0.809017 0
    outer loop
      vertex 1.25 -2.16506 0
      vertex 1.67283 -1.85786 1.5
      vertex 1.25 -2.16506 1.5
    endloop
  endfacet
  facet normal 0.587786 -0.809017 0
    outer loop
      vertex 1.67283 -1.85786 1.5
      vertex 1.25 -2.16506 0
      vertex 1.67283 -1.85786 0
    endloop
  endfacet
  facet normal 0.951057 0.309017 0
    outer loop
      vertex 2.28934 1 1.5
      vertex 2.28386 1.01684 0
      vertex 2.28386 1.01684 1.5
    endloop
  endfacet
  facet normal 0.951057 0.309017 0
    outer loop
      vertex 2.28386 1.01684 0
      vertex 2.28934 1 1.5
      vertex 2.28934 1 0
    endloop
  endfacet
  facet normal -0.951057 0.309017 0
    outer loop
      vertex -2.28934 1 0
      vertex -2.28386 1.01684 1.5
      vertex -2.28386 1.01684 0
    endloop
  endfacet
  facet normal -0.951057 0.309017 0
    outer loop
      vertex -2.28386 1.01684 1.5
      vertex -2.28934 1 0
      vertex -2.28934 1 1.5
    endloop
  endfacet
  facet normal 0.951057 -0.309017 0
    outer loop
      vertex 2.28386 -1.01684 1.5
      vertex 2.28934 -1 0
      vertex 2.28934 -1 1.5
    endloop
  endfacet
  facet normal 0.951057 -0.309017 0
    outer loop
      vertex 2.28934 -1 0
      vertex 2.28386 -1.01684 1.5
      vertex 2.28386 -1.01684 0
    endloop
  endfacet
  facet normal 0.866025 -0.5 0
    outer loop
      vertex 2.02254 -1.46946 1.5
      vertex 2.28386 -1.01684 0
      vertex 2.28386 -1.01684 1.5
    endloop
  endfacet
  facet normal 0.866025 -0.5 0
    outer loop
      vertex 2.28386 -1.01684 0
      vertex 2.02254 -1.46946 1.5
      vertex 2.02254 -1.46946 0
    endloop
  endfacet
  facet normal 0.743145 -0.669131 0
    outer loop
      vertex 1.67283 -1.85786 1.5
      vertex 2.02254 -1.46946 0
      vertex 2.02254 -1.46946 1.5
    endloop
  endfacet
  facet normal 0.743145 -0.669131 0
    outer loop
      vertex 2.02254 -1.46946 0
      vertex 1.67283 -1.85786 1.5
      vertex 1.67283 -1.85786 0
    endloop
  endfacet
  facet normal -0.587786 -0.809017 0
    outer loop
      vertex -1.67283 -1.85786 0
      vertex -1.25 -2.16506 1.5
      vertex -1.67283 -1.85786 1.5
    endloop
  endfacet
  facet normal -0.587786 -0.809017 -0
    outer loop
      vertex -1.25 -2.16506 1.5
      vertex -1.67283 -1.85786 0
      vertex -1.25 -2.16506 0
    endloop
  endfacet
  facet normal 0 -1 0
    outer loop
      vertex -0.261321 -2.4863 0
      vertex 0.261321 -2.4863 1.5
      vertex -0.261321 -2.4863 1.5
    endloop
  endfacet
  facet normal 0 -1 -0
    outer loop
      vertex 0.261321 -2.4863 1.5
      vertex -0.261321 -2.4863 0
      vertex 0.261321 -2.4863 0
    endloop
  endfacet
  facet normal -0 0 1
    outer loop
      vertex -2.28934 1 0
      vertex 2.28934 -1 0
      vertex 2.28934 1 0
    endloop
  endfacet
  facet normal 0 0 1
    outer loop
      vertex 2.28934 -1 0
      vertex -2.28934 1 0
      vertex -2.28934 -1 0
    endloop
  endfacet
  facet normal -0 0 1
    outer loop
      vertex 2.28934 1 0
      vertex 8.12061 0 0
      vertex 7.94316 1.68837 0
    endloop
  endfacet
  facet normal 0 0 1
    outer loop
      vertex 2.28934 1 0
      vertex 7.94316 1.68837 0
      vertex 7.41855 3.30295 0
    endloop
  endfacet
  facet normal 0 0 1
    outer loop
      vertex 2.28934 -1 0
      vertex 8.12061 0 0
      vertex 2.28934 1 0
    endloop
  endfacet
  facet normal 0 0 1
    outer loop
      vertex 2.28386 1.01684 0
      vertex 7.41855 3.30295 0
      vertex 6.56971 4.77318 0
    endloop
  endfacet
  facet normal 0 0 1
    outer loop
      vertex 8.12061 0 0
      vertex 2.28934 -1 0
      vertex 7.94316 -1.68837 0
    endloop
  endfacet
  facet normal 0 0 1
    outer loop
      vertex 2.02254 1.46946 0
      vertex 6.56971 4.77318 0
      vertex 5.43375 6.03479 0
    endloop
  endfacet
  facet normal 0 0 1
    outer loop
      vertex 7.94316 -1.68837 0
      vertex 2.28934 -1 0
      vertex 7.41855 -3.30295 0
    endloop
  endfacet
  facet normal 0 0 1
    outer loop
      vertex 1.67283 1.85786 0
      vertex 5.43375 6.03479 0
      vertex 4.06031 7.03266 0
    endloop
  endfacet
  facet normal -0 0 1
    outer loop
      vertex 2.28386 -1.01684 0
      vertex 7.41855 -3.30295 0
      vertex 2.28934 -1 0
    endloop
  endfacet
  facet normal 0 0 1
    outer loop
      vertex 1.25 2.16506 0
      vertex 4.06031 7.03266 0
      vertex 2.50941 7.72316 0
    endloop
  endfacet
  facet normal 0 0 1
    outer loop
      vertex 7.41855 -3.30295 0
      vertex 2.28386 -1.01684 0
      vertex 6.56971 -4.77318 0
    endloop
  endfacet
  facet normal -0 0 1
    outer loop
      vertex 2.02254 -1.46946 0
      vertex 6.56971 -4.77318 0
      vertex 2.28386 -1.01684 0
    endloop
  endfacet
  facet normal 0 0 1
    outer loop
      vertex 7.41855 3.30295 0
      vertex 2.28386 1.01684 0
      vertex 2.28934 1 0
    endloop
  endfacet
  facet normal 0 0 1
    outer loop
      vertex 6.56971 4.77318 0
      vertex 2.02254 1.46946 0
      vertex 2.28386 1.01684 0
    endloop
  endfacet
  facet normal 0 0 1
    outer loop
      vertex 5.43375 6.03479 0
      vertex 1.67283 1.85786 0
      vertex 2.02254 1.46946 0
    endloop
  endfacet
  facet normal 0 0 1
    outer loop
      vertex 4.06031 7.03266 0
      vertex 1.25 2.16506 0
      vertex 1.67283 1.85786 0
    endloop
  endfacet
  facet normal 0 0 1
    outer loop
      vertex 0.772542 2.37764 0
      vertex 2.50941 7.72316 0
      vertex 0.848835 8.07613 0
    endloop
  endfacet
  facet normal 0 0 1
    outer loop
      vertex 2.50941 7.72316 0
      vertex 0.772542 2.37764 0
      vertex 1.25 2.16506 0
    endloop
  endfacet
  facet normal 0 0 1
    outer loop
      vertex 0.848835 8.07613 0
      vertex 0.261321 2.4863 0
      vertex 0.772542 2.37764 0
    endloop
  endfacet
  facet normal 0 0 1
    outer loop
      vertex 0.848835 8.07613 0
      vertex -0.261321 2.4863 0
      vertex 0.261321 2.4863 0
    endloop
  endfacet
  facet normal -0 0 1
    outer loop
      vertex -0.848835 8.07613 0
      vertex -0.261321 2.4863 0
      vertex 0.848835 8.07613 0
    endloop
  endfacet
  facet normal 0 0 1
    outer loop
      vertex -0.261321 2.4863 0
      vertex -0.848835 8.07613 0
      vertex -0.772542 2.37764 0
    endloop
  endfacet
  facet normal -0 0 1
    outer loop
      vertex -2.50941 7.72316 0
      vertex -0.772542 2.37764 0
      vertex -0.848835 8.07613 0
    endloop
  endfacet
  facet normal 0 0 1
    outer loop
      vertex -0.772542 2.37764 0
      vertex -2.50941 7.72316 0
      vertex -1.25 2.16506 0
    endloop
  endfacet
  facet normal -0 0 1
    outer loop
      vertex -4.06031 7.03266 0
      vertex -1.25 2.16506 0
      vertex -2.50941 7.72316 0
    endloop
  endfacet
  facet normal 0 0 1
    outer loop
      vertex -1.25 2.16506 0
      vertex -4.06031 7.03266 0
      vertex -1.67283 1.85786 0
    endloop
  endfacet
  facet normal -0 0 1
    outer loop
      vertex -5.43375 6.03479 0
      vertex -1.67283 1.85786 0
      vertex -4.06031 7.03266 0
    endloop
  endfacet
  facet normal -0 0 1
    outer loop
      vertex -6.56971 4.77318 0
      vertex -2.02254 1.46946 0
      vertex -5.43375 6.03479 0
    endloop
  endfacet
  facet normal 0 0 1
    outer loop
      vertex -1.67283 1.85786 0
      vertex -5.43375 6.03479 0
      vertex -2.02254 1.46946 0
    endloop
  endfacet
  facet normal 0 0 1
    outer loop
      vertex 6.56971 -4.77318 0
      vertex 2.02254 -1.46946 0
      vertex 5.43375 -6.03479 0
    endloop
  endfacet
  facet normal -0 0 1
    outer loop
      vertex 1.67283 -1.85786 0
      vertex 5.43375 -6.03479 0
      vertex 2.02254 -1.46946 0
    endloop
  endfacet
  facet normal 0 0 1
    outer loop
      vertex 5.43375 -6.03479 0
      vertex 1.67283 -1.85786 0
      vertex 4.06031 -7.03266 0
    endloop
  endfacet
  facet normal -0 0 1
    outer loop
      vertex 1.25 -2.16506 0
      vertex 4.06031 -7.03266 0
      vertex 1.67283 -1.85786 0
    endloop
  endfacet
  facet normal 0 0 1
    outer loop
      vertex 4.06031 -7.03266 0
      vertex 1.25 -2.16506 0
      vertex 2.50941 -7.72316 0
    endloop
  endfacet
  facet normal -0 0 1
    outer loop
      vertex 0.772542 -2.37764 0
      vertex 2.50941 -7.72316 0
      vertex 1.25 -2.16506 0
    endloop
  endfacet
  facet normal 0 0 1
    outer loop
      vertex 2.50941 -7.72316 0
      vertex 0.772542 -2.37764 0
      vertex 0.848835 -8.07613 0
    endloop
  endfacet
  facet normal -0 0 1
    outer loop
      vertex 0.261321 -2.4863 0
      vertex 0.848835 -8.07613 0
      vertex 0.772542 -2.37764 0
    endloop
  endfacet
  facet normal -0 0 1
    outer loop
      vertex -0.261321 -2.4863 0
      vertex 0.848835 -8.07613 0
      vertex 0.261321 -2.4863 0
    endloop
  endfacet
  facet normal 0 0 1
    outer loop
      vertex -0.848835 -8.07613 0
      vertex -0.261321 -2.4863 0
      vertex -0.772542 -2.37764 0
    endloop
  endfacet
  facet normal 0 0 1
    outer loop
      vertex -0.261321 -2.4863 0
      vertex -0.848835 -8.07613 0
      vertex 0.848835 -8.07613 0
    endloop
  endfacet
  facet normal 0 0 1
    outer loop
      vertex -2.50941 -7.72316 0
      vertex -0.772542 -2.37764 0
      vertex -1.25 -2.16506 0
    endloop
  endfacet
  facet normal 0 0 1
    outer loop
      vertex -4.06031 -7.03266 0
      vertex -1.25 -2.16506 0
      vertex -1.67283 -1.85786 0
    endloop
  endfacet
  facet normal 0 0 1
    outer loop
      vertex -5.43375 -6.03479 0
      vertex -1.67283 -1.85786 0
      vertex -2.02254 -1.46946 0
    endloop
  endfacet
  facet normal 0 0 1
    outer loop
      vertex -6.56971 -4.77318 0
      vertex -2.02254 -1.46946 0
      vertex -2.28386 -1.01684 0
    endloop
  endfacet
  facet normal 0 0 1
    outer loop
      vertex -7.41855 -3.30295 0
      vertex -2.28386 -1.01684 0
      vertex -2.28934 -1 0
    endloop
  endfacet
  facet normal 0 0 1
    outer loop
      vertex -0.772542 -2.37764 0
      vertex -2.50941 -7.72316 0
      vertex -0.848835 -8.07613 0
    endloop
  endfacet
  facet normal 0 0 1
    outer loop
      vertex -2.02254 1.46946 0
      vertex -6.56971 4.77318 0
      vertex -2.28386 1.01684 0
    endloop
  endfacet
  facet normal -0 0 1
    outer loop
      vertex -7.41855 3.30295 0
      vertex -2.28386 1.01684 0
      vertex -6.56971 4.77318 0
    endloop
  endfacet
  facet normal 0 0 1
    outer loop
      vertex -1.25 -2.16506 0
      vertex -4.06031 -7.03266 0
      vertex -2.50941 -7.72316 0
    endloop
  endfacet
  facet normal 0 0 1
    outer loop
      vertex -2.28386 1.01684 0
      vertex -7.41855 3.30295 0
      vertex -2.28934 1 0
    endloop
  endfacet
  facet normal 0 0 1
    outer loop
      vertex -1.67283 -1.85786 0
      vertex -5.43375 -6.03479 0
      vertex -4.06031 -7.03266 0
    endloop
  endfacet
  facet normal -0 0 1
    outer loop
      vertex -7.94316 1.68837 0
      vertex -2.28934 1 0
      vertex -7.41855 3.30295 0
    endloop
  endfacet
  facet normal 0 0 1
    outer loop
      vertex -2.02254 -1.46946 0
      vertex -6.56971 -4.77318 0
      vertex -5.43375 -6.03479 0
    endloop
  endfacet
  facet normal 0 0 1
    outer loop
      vertex -8.12061 0 0
      vertex -2.28934 1 0
      vertex -7.94316 1.68837 0
    endloop
  endfacet
  facet normal 0 0 1
    outer loop
      vertex -2.28386 -1.01684 0
      vertex -7.41855 -3.30295 0
      vertex -6.56971 -4.77318 0
    endloop
  endfacet
  facet normal 0 0 1
    outer loop
      vertex -2.28934 1 0
      vertex -8.12061 0 0
      vertex -2.28934 -1 0
    endloop
  endfacet
  facet normal 0 0 1
    outer loop
      vertex -2.28934 -1 0
      vertex -7.94316 -1.68837 0
      vertex -7.41855 -3.30295 0
    endloop
  endfacet
  facet normal 0 0 1
    outer loop
      vertex -2.28934 -1 0
      vertex -8.12061 0 0
      vertex -7.94316 -1.68837 0
    endloop
  endfacet
  facet normal -0.951057 -0.309017 0
    outer loop
      vertex -2.28386 -1.01684 0
      vertex -2.28934 -1 1.5
      vertex -2.28934 -1 0
    endloop
  endfacet
  facet normal -0.951057 -0.309017 0
    outer loop
      vertex -2.28934 -1 1.5
      vertex -2.28386 -1.01684 0
      vertex -2.28386 -1.01684 1.5
    endloop
  endfacet
  facet normal -0.743145 -0.669131 0
    outer loop
      vertex -1.67283 -1.85786 0
      vertex -2.02254 -1.46946 1.5
      vertex -2.02254 -1.46946 0
    endloop
  endfacet
  facet normal -0.743145 -0.669131 0
    outer loop
      vertex -2.02254 -1.46946 1.5
      vertex -1.67283 -1.85786 0
      vertex -1.67283 -1.85786 1.5
    endloop
  endfacet
  facet normal -0.866025 -0.5 0
    outer loop
      vertex -2.02254 -1.46946 0
      vertex -2.28386 -1.01684 1.5
      vertex -2.28386 -1.01684 0
    endloop
  endfacet
  facet normal -0.866025 -0.5 0
    outer loop
      vertex -2.28386 -1.01684 1.5
      vertex -2.02254 -1.46946 0
      vertex -2.02254 -1.46946 1.5
    endloop
  endfacet
  facet normal 0.406736 -0.913546 0
    outer loop
      vertex 0.772542 -2.37764 0
      vertex 1.25 -2.16506 1.5
      vertex 0.772542 -2.37764 1.5
    endloop
  endfacet
  facet normal 0.406736 -0.913546 0
    outer loop
      vertex 1.25 -2.16506 1.5
      vertex 0.772542 -2.37764 0
      vertex 1.25 -2.16506 0
    endloop
  endfacet
  facet normal -0.406736 -0.913546 0
    outer loop
      vertex -1.25 -2.16506 0
      vertex -0.772542 -2.37764 1.5
      vertex -1.25 -2.16506 1.5
    endloop
  endfacet
  facet normal -0.406736 -0.913546 -0
    outer loop
      vertex -0.772542 -2.37764 1.5
      vertex -1.25 -2.16506 0
      vertex -0.772542 -2.37764 0
    endloop
  endfacet
  facet normal 0.303635 -0.417917 0.856243
    outer loop
      vertex 1.67283 -1.85786 2.3
      vertex 1.5 -2.59808 2
      vertex 2.00739 -2.22943 2
    endloop
  endfacet
  facet normal 0.21011 0.471914 0.856243
    outer loop
      vertex 1.5 2.59808 2
      vertex 0.927051 2.85317 2
      vertex 1.25 2.16506 2.3
    endloop
  endfacet
  facet normal 0 0 1
    outer loop
      vertex 2.28934 -1 2.3
      vertex 2.02254 -1.46946 2.3
      vertex 2.28386 -1.01684 2.3
    endloop
  endfacet
  facet normal 0 0 1
    outer loop
      vertex 2.28934 -1 2.3
      vertex 1.67283 -1.85786 2.3
      vertex 2.02254 -1.46946 2.3
    endloop
  endfacet
  facet normal 0 0 1
    outer loop
      vertex 2.28934 -1 2.3
      vertex 1.25 -2.16506 2.3
      vertex 1.67283 -1.85786 2.3
    endloop
  endfacet
  facet normal 0 0 1
    outer loop
      vertex 2.28934 -1 2.3
      vertex 0.772542 -2.37764 2.3
      vertex 1.25 -2.16506 2.3
    endloop
  endfacet
  facet normal 0 0 1
    outer loop
      vertex 2.28934 -1 2.3
      vertex 0.261321 -2.4863 2.3
      vertex 0.772542 -2.37764 2.3
    endloop
  endfacet
  facet normal 0 0 1
    outer loop
      vertex 2.28934 -1 2.3
      vertex -0.261321 -2.4863 2.3
      vertex 0.261321 -2.4863 2.3
    endloop
  endfacet
  facet normal 0 0 1
    outer loop
      vertex 2.28934 -1 2.3
      vertex -0.772542 -2.37764 2.3
      vertex -0.261321 -2.4863 2.3
    endloop
  endfacet
  facet normal 0 0 1
    outer loop
      vertex 2.28934 -1 2.3
      vertex -1.25 -2.16506 2.3
      vertex -0.772542 -2.37764 2.3
    endloop
  endfacet
  facet normal 0 0 1
    outer loop
      vertex 2.28934 -1 2.3
      vertex -1.67283 -1.85786 2.3
      vertex -1.25 -2.16506 2.3
    endloop
  endfacet
  facet normal 0 0 1
    outer loop
      vertex 2.28934 -1 2.3
      vertex -2.02254 -1.46946 2.3
      vertex -1.67283 -1.85786 2.3
    endloop
  endfacet
  facet normal -0 0 1
    outer loop
      vertex -2.28934 -1 2.3
      vertex -2.02254 -1.46946 2.3
      vertex 2.28934 -1 2.3
    endloop
  endfacet
  facet normal 0 0 1
    outer loop
      vertex -2.02254 -1.46946 2.3
      vertex -2.28934 -1 2.3
      vertex -2.28386 -1.01684 2.3
    endloop
  endfacet
  facet normal 0 0 1
    outer loop
      vertex 2.02254 1.46946 2.3
      vertex 2.28934 1 2.3
      vertex 2.28386 1.01684 2.3
    endloop
  endfacet
  facet normal 0 0 1
    outer loop
      vertex 1.67283 1.85786 2.3
      vertex 2.28934 1 2.3
      vertex 2.02254 1.46946 2.3
    endloop
  endfacet
  facet normal 0 0 1
    outer loop
      vertex 1.25 2.16506 2.3
      vertex 2.28934 1 2.3
      vertex 1.67283 1.85786 2.3
    endloop
  endfacet
  facet normal 0 0 1
    outer loop
      vertex 0.772542 2.37764 2.3
      vertex 2.28934 1 2.3
      vertex 1.25 2.16506 2.3
    endloop
  endfacet
  facet normal 0 0 1
    outer loop
      vertex 0.261321 2.4863 2.3
      vertex 2.28934 1 2.3
      vertex 0.772542 2.37764 2.3
    endloop
  endfacet
  facet normal -0 0 1
    outer loop
      vertex -0.261321 2.4863 2.3
      vertex 2.28934 1 2.3
      vertex 0.261321 2.4863 2.3
    endloop
  endfacet
  facet normal -0 0 1
    outer loop
      vertex -0.772542 2.37764 2.3
      vertex 2.28934 1 2.3
      vertex -0.261321 2.4863 2.3
    endloop
  endfacet
  facet normal -0 0 1
    outer loop
      vertex -1.25 2.16506 2.3
      vertex 2.28934 1 2.3
      vertex -0.772542 2.37764 2.3
    endloop
  endfacet
  facet normal -0 0 1
    outer loop
      vertex -1.67283 1.85786 2.3
      vertex 2.28934 1 2.3
      vertex -1.25 2.16506 2.3
    endloop
  endfacet
  facet normal -0 0 1
    outer loop
      vertex -2.02254 1.46946 2.3
      vertex 2.28934 1 2.3
      vertex -1.67283 1.85786 2.3
    endloop
  endfacet
  facet normal 0 0 1
    outer loop
      vertex -2.28934 1 2.3
      vertex -2.02254 1.46946 2.3
      vertex -2.28386 1.01684 2.3
    endloop
  endfacet
  facet normal 0 0 1
    outer loop
      vertex -2.02254 1.46946 2.3
      vertex -2.28934 1 2.3
      vertex 2.28934 1 2.3
    endloop
  endfacet
  facet normal -0.383889 -0.345656 0.856243
    outer loop
      vertex -1.67283 -1.85786 2.3
      vertex -2.42705 -1.76336 2
      vertex -2.00739 -2.22943 2
    endloop
  endfacet
  facet normal 0.491291 -0.15963 0.856242
    outer loop
      vertex 2.81219 -1 2
      vertex 2.64781 -1 2.09432
      vertex 2.74064 -1.22021 2
    endloop
  endfacet
  facet normal 0.303635 0.417917 0.856243
    outer loop
      vertex 1.5 2.59808 2
      vertex 1.25 2.16506 2.3
      vertex 1.67283 1.85786 2.3
    endloop
  endfacet
  facet normal 0.210109 0.471914 0.856243
    outer loop
      vertex 0.927051 2.85317 2
      vertex 0.772542 2.37764 2.3
      vertex 1.25 2.16506 2.3
    endloop
  endfacet
  facet normal -0.107402 0.505285 0.856243
    outer loop
      vertex -0.261321 2.4863 2.3
      vertex -0.927051 2.85317 2
      vertex -0.772542 2.37764 2.3
    endloop
  endfacet
  facet normal 0.447366 -0.258287 0.856243
    outer loop
      vertex 2.74064 -1.22021 2
      vertex 2.28386 -1.01684 2.3
      vertex 2.42705 -1.76336 2
    endloop
  endfacet
  facet normal 0.491291 0.15963 0.856242
    outer loop
      vertex 2.74064 1.22021 2
      vertex 2.64781 1 2.09432
      vertex 2.81219 1 2
    endloop
  endfacet
  facet normal 0.383889 0.345656 0.856243
    outer loop
      vertex 2.00739 2.22943 2
      vertex 1.67283 1.85786 2.3
      vertex 2.42705 1.76336 2
    endloop
  endfacet
  facet normal 0.303635 0.417917 0.856243
    outer loop
      vertex 2.00739 2.22943 2
      vertex 1.5 2.59808 2
      vertex 1.67283 1.85786 2.3
    endloop
  endfacet
  facet normal 0.447366 0.258287 0.856243
    outer loop
      vertex 2.42705 1.76336 2
      vertex 2.02254 1.46946 2.3
      vertex 2.28386 1.01684 2.3
    endloop
  endfacet
  facet normal 0 0.516574 0.856243
    outer loop
      vertex 0.313585 2.98357 2
      vertex -0.261321 2.4863 2.3
      vertex 0.261321 2.4863 2.3
    endloop
  endfacet
  facet normal 0 0.516574 0.856243
    outer loop
      vertex -0.261321 2.4863 2.3
      vertex 0.313585 2.98357 2
      vertex -0.313585 2.98357 2
    endloop
  endfacet
  facet normal 0.107402 0.505286 0.856243
    outer loop
      vertex 0.313585 2.98357 2
      vertex 0.261321 2.4863 2.3
      vertex 0.927051 2.85317 2
    endloop
  endfacet
  facet normal -0.383889 0.345655 0.856243
    outer loop
      vertex -1.67283 1.85786 2.3
      vertex -2.42705 1.76336 2
      vertex -2.02254 1.46946 2.3
    endloop
  endfacet
  facet normal -0.491291 0.15963 0.856242
    outer loop
      vertex -2.74064 1.22021 2
      vertex -2.81219 1 2
      vertex -2.64781 1 2.09432
    endloop
  endfacet
  facet normal -0.303635 0.417917 0.856243
    outer loop
      vertex -1.5 2.59808 2
      vertex -2.00739 2.22943 2
      vertex -1.67283 1.85786 2.3
    endloop
  endfacet
  facet normal -0.447366 -0.258287 0.856243
    outer loop
      vertex -2.28386 -1.01684 2.3
      vertex -2.74064 -1.22021 2
      vertex -2.42705 -1.76336 2
    endloop
  endfacet
  facet normal -0.447366 -0.258287 0.856243
    outer loop
      vertex -2.28386 -1.01684 2.3
      vertex -2.42705 -1.76336 2
      vertex -2.02254 -1.46946 2.3
    endloop
  endfacet
  facet normal -0.107402 -0.505285 0.856243
    outer loop
      vertex -0.772542 -2.37764 2.3
      vertex -0.927051 -2.85317 2
      vertex -0.261321 -2.4863 2.3
    endloop
  endfacet
  facet normal 0 -0.516574 0.856243
    outer loop
      vertex -0.261321 -2.4863 2.3
      vertex 0.313585 -2.98357 2
      vertex 0.261321 -2.4863 2.3
    endloop
  endfacet
  facet normal 0 -0.516574 0.856243
    outer loop
      vertex 0.313585 -2.98357 2
      vertex -0.261321 -2.4863 2.3
      vertex -0.313585 -2.98357 2
    endloop
  endfacet
  facet normal 0.383889 -0.345655 0.856243
    outer loop
      vertex 2.02254 -1.46946 2.3
      vertex 1.67283 -1.85786 2.3
      vertex 2.42705 -1.76336 2
    endloop
  endfacet
  facet normal 0.107402 -0.505285 0.856243
    outer loop
      vertex 0.772542 -2.37764 2.3
      vertex 0.261321 -2.4863 2.3
      vertex 0.927051 -2.85317 2
    endloop
  endfacet
  facet normal 0.21011 -0.471914 0.856243
    outer loop
      vertex 1.25 -2.16506 2.3
      vertex 0.927051 -2.85317 2
      vertex 1.5 -2.59808 2
    endloop
  endfacet
  facet normal 0.303635 -0.417917 0.856243
    outer loop
      vertex 1.67283 -1.85786 2.3
      vertex 1.25 -2.16506 2.3
      vertex 1.5 -2.59808 2
    endloop
  endfacet
  facet normal 0.383889 -0.345656 0.856243
    outer loop
      vertex 2.42705 -1.76336 2
      vertex 1.67283 -1.85786 2.3
      vertex 2.00739 -2.22943 2
    endloop
  endfacet
  facet normal 0.383889 0.345655 0.856243
    outer loop
      vertex 2.42705 1.76336 2
      vertex 1.67283 1.85786 2.3
      vertex 2.02254 1.46946 2.3
    endloop
  endfacet
  facet normal 0.491291 0.159631 0.856243
    outer loop
      vertex 2.28386 1.01684 2.3
      vertex 2.64781 1 2.09432
      vertex 2.74064 1.22021 2
    endloop
  endfacet
  facet normal 0.491291 0.15963 0.856243
    outer loop
      vertex 2.64781 1 2.09432
      vertex 2.28386 1.01684 2.3
      vertex 2.28934 1 2.3
    endloop
  endfacet
  facet normal 0.447366 0.258287 0.856243
    outer loop
      vertex 2.42705 1.76336 2
      vertex 2.28386 1.01684 2.3
      vertex 2.74064 1.22021 2
    endloop
  endfacet
  facet normal 0.107402 0.505285 0.856243
    outer loop
      vertex 0.927051 2.85317 2
      vertex 0.261321 2.4863 2.3
      vertex 0.772542 2.37764 2.3
    endloop
  endfacet
  facet normal -0.447366 0.258287 0.856243
    outer loop
      vertex -2.02254 1.46946 2.3
      vertex -2.42705 1.76336 2
      vertex -2.28386 1.01684 2.3
    endloop
  endfacet
  facet normal -0.107402 0.505286 0.856243
    outer loop
      vertex -0.313585 2.98357 2
      vertex -0.927051 2.85317 2
      vertex -0.261321 2.4863 2.3
    endloop
  endfacet
  facet normal -0.21011 0.471913 0.856243
    outer loop
      vertex -0.927051 2.85317 2
      vertex -1.25 2.16506 2.3
      vertex -0.772542 2.37764 2.3
    endloop
  endfacet
  facet normal -0.383889 0.345656 0.856243
    outer loop
      vertex -2.00739 2.22943 2
      vertex -2.42705 1.76336 2
      vertex -1.67283 1.85786 2.3
    endloop
  endfacet
  facet normal -0.303635 -0.417917 0.856243
    outer loop
      vertex -1.67283 -1.85786 2.3
      vertex -2.00739 -2.22943 2
      vertex -1.5 -2.59808 2
    endloop
  endfacet
  facet normal -0.107402 -0.505286 0.856243
    outer loop
      vertex -0.261321 -2.4863 2.3
      vertex -0.927051 -2.85317 2
      vertex -0.313585 -2.98357 2
    endloop
  endfacet
  facet normal -0.303635 -0.417917 0.856243
    outer loop
      vertex -1.25 -2.16506 2.3
      vertex -1.67283 -1.85786 2.3
      vertex -1.5 -2.59808 2
    endloop
  endfacet
  facet normal -0.21011 -0.471914 0.856243
    outer loop
      vertex -1.25 -2.16506 2.3
      vertex -1.5 -2.59808 2
      vertex -0.927051 -2.85317 2
    endloop
  endfacet
  facet normal 0.491291 -0.15963 0.856243
    outer loop
      vertex 2.28386 -1.01684 2.3
      vertex 2.64781 -1 2.09432
      vertex 2.28934 -1 2.3
    endloop
  endfacet
  facet normal 0.491291 -0.159631 0.856243
    outer loop
      vertex 2.64781 -1 2.09432
      vertex 2.28386 -1.01684 2.3
      vertex 2.74064 -1.22021 2
    endloop
  endfacet
  facet normal 0.107402 -0.505286 0.856243
    outer loop
      vertex 0.927051 -2.85317 2
      vertex 0.261321 -2.4863 2.3
      vertex 0.313585 -2.98357 2
    endloop
  endfacet
  facet normal 0.210109 -0.471914 0.856243
    outer loop
      vertex 1.25 -2.16506 2.3
      vertex 0.772542 -2.37764 2.3
      vertex 0.927051 -2.85317 2
    endloop
  endfacet
  facet normal 0.447366 -0.258287 0.856243
    outer loop
      vertex 2.28386 -1.01684 2.3
      vertex 2.02254 -1.46946 2.3
      vertex 2.42705 -1.76336 2
    endloop
  endfacet
  facet normal -0.447366 0.258287 0.856243
    outer loop
      vertex -2.42705 1.76336 2
      vertex -2.74064 1.22021 2
      vertex -2.28386 1.01684 2.3
    endloop
  endfacet
  facet normal -0.491291 0.15963 0.856243
    outer loop
      vertex -2.28386 1.01684 2.3
      vertex -2.64781 1 2.09432
      vertex -2.28934 1 2.3
    endloop
  endfacet
  facet normal -0.491291 0.159631 0.856243
    outer loop
      vertex -2.64781 1 2.09432
      vertex -2.28386 1.01684 2.3
      vertex -2.74064 1.22021 2
    endloop
  endfacet
  facet normal -0.21011 0.471914 0.856243
    outer loop
      vertex -0.927051 2.85317 2
      vertex -1.5 2.59808 2
      vertex -1.25 2.16506 2.3
    endloop
  endfacet
  facet normal -0.303634 0.417917 0.856243
    outer loop
      vertex -1.5 2.59808 2
      vertex -1.67283 1.85786 2.3
      vertex -1.25 2.16506 2.3
    endloop
  endfacet
  facet normal -0.491291 -0.15963 0.856242
    outer loop
      vertex -2.64781 -1 2.09432
      vertex -2.81219 -1 2
      vertex -2.74064 -1.22021 2
    endloop
  endfacet
  facet normal -0.491291 -0.15963 0.856243
    outer loop
      vertex -2.64781 -1 2.09432
      vertex -2.28386 -1.01684 2.3
      vertex -2.28934 -1 2.3
    endloop
  endfacet
  facet normal -0.491291 -0.159631 0.856243
    outer loop
      vertex -2.28386 -1.01684 2.3
      vertex -2.64781 -1 2.09432
      vertex -2.74064 -1.22021 2
    endloop
  endfacet
  facet normal -0.383889 -0.345655 0.856243
    outer loop
      vertex -2.02254 -1.46946 2.3
      vertex -2.42705 -1.76336 2
      vertex -1.67283 -1.85786 2.3
    endloop
  endfacet
  facet normal -0.210109 -0.471914 0.856243
    outer loop
      vertex -0.772542 -2.37764 2.3
      vertex -1.25 -2.16506 2.3
      vertex -0.927051 -2.85317 2
    endloop
  endfacet
  facet normal 0.416767 -0.57363 -0.705162
    outer loop
      vertex 2.00739 -2.22943 2
      vertex 1.5 -2.59808 2
      vertex 1.67283 -1.85786 1.5
    endloop
  endfacet
  facet normal 0.614052 0.354523 -0.705162
    outer loop
      vertex 2.74064 1.22021 2
      vertex 2.28386 1.01684 1.5
      vertex 2.42705 1.76336 2
    endloop
  endfacet
  facet normal -0.288395 0.647746 -0.705162
    outer loop
      vertex -1.25 2.16506 1.5
      vertex -1.5 2.59808 2
      vertex -0.927051 2.85317 2
    endloop
  endfacet
  facet normal 0.614052 -0.354523 -0.705162
    outer loop
      vertex 2.42705 -1.76336 2
      vertex 2.28386 -1.01684 1.5
      vertex 2.74064 -1.22021 2
    endloop
  endfacet
  facet normal 0.416767 -0.57363 -0.705162
    outer loop
      vertex 1.5 -2.59808 2
      vertex 1.25 -2.16506 1.5
      vertex 1.67283 -1.85786 1.5
    endloop
  endfacet
  facet normal 0.288395 0.647746 -0.705162
    outer loop
      vertex 1.25 2.16506 1.5
      vertex 0.772542 2.37764 1.5
      vertex 0.927051 2.85317 2
    endloop
  endfacet
  facet normal 0.288395 0.647746 -0.705162
    outer loop
      vertex 1.25 2.16506 1.5
      vertex 0.927051 2.85317 2
      vertex 1.5 2.59808 2
    endloop
  endfacet
  facet normal 0.526924 0.474444 -0.705162
    outer loop
      vertex 2.02254 1.46946 1.5
      vertex 1.67283 1.85786 1.5
      vertex 2.42705 1.76336 2
    endloop
  endfacet
  facet normal -0.416767 0.57363 -0.705162
    outer loop
      vertex -1.25 2.16506 1.5
      vertex -1.67283 1.85786 1.5
      vertex -1.5 2.59808 2
    endloop
  endfacet
  facet normal 0.526924 -0.474445 -0.705162
    outer loop
      vertex 2.00739 -2.22943 2
      vertex 1.67283 -1.85786 1.5
      vertex 2.42705 -1.76336 2
    endloop
  endfacet
  facet normal 0.674343 -0.219108 -0.705162
    outer loop
      vertex 2.28386 -1.01684 1.5
      vertex 2.64781 -1 1.8428
      vertex 2.74064 -1.22021 2
    endloop
  endfacet
  facet normal 0.674343 -0.219107 -0.705162
    outer loop
      vertex 2.64781 -1 1.8428
      vertex 2.28386 -1.01684 1.5
      vertex 2.28934 -1 1.5
    endloop
  endfacet
  facet normal 0.288395 -0.647746 -0.705162
    outer loop
      vertex 1.5 -2.59808 2
      vertex 0.927051 -2.85317 2
      vertex 1.25 -2.16506 1.5
    endloop
  endfacet
  facet normal 0 -0.709046 -0.705162
    outer loop
      vertex -0.261321 -2.4863 1.5
      vertex 0.313585 -2.98357 2
      vertex -0.313585 -2.98357 2
    endloop
  endfacet
  facet normal 0 -0.709046 -0.705162
    outer loop
      vertex 0.313585 -2.98357 2
      vertex -0.261321 -2.4863 1.5
      vertex 0.261321 -2.4863 1.5
    endloop
  endfacet
  facet normal 0.147419 -0.693552 -0.705162
    outer loop
      vertex 0.313585 -2.98357 2
      vertex 0.261321 -2.4863 1.5
      vertex 0.927051 -2.85317 2
    endloop
  endfacet
  facet normal -0.526924 -0.474444 -0.705162
    outer loop
      vertex -1.67283 -1.85786 1.5
      vertex -2.42705 -1.76336 2
      vertex -2.02254 -1.46946 1.5
    endloop
  endfacet
  facet normal -0.614052 -0.354523 -0.705162
    outer loop
      vertex -2.02254 -1.46946 1.5
      vertex -2.42705 -1.76336 2
      vertex -2.28386 -1.01684 1.5
    endloop
  endfacet
  facet normal -0.416767 -0.57363 -0.705162
    outer loop
      vertex -1.5 -2.59808 2
      vertex -2.00739 -2.22943 2
      vertex -1.67283 -1.85786 1.5
    endloop
  endfacet
  facet normal 0.674343 0.219108 -0.705162
    outer loop
      vertex 2.81219 1 2
      vertex 2.64781 1 1.8428
      vertex 2.74064 1.22021 2
    endloop
  endfacet
  facet normal 0.674343 0.219107 -0.705162
    outer loop
      vertex 2.28386 1.01684 1.5
      vertex 2.64781 1 1.8428
      vertex 2.28934 1 1.5
    endloop
  endfacet
  facet normal 0.674343 0.219108 -0.705162
    outer loop
      vertex 2.64781 1 1.8428
      vertex 2.28386 1.01684 1.5
      vertex 2.74064 1.22021 2
    endloop
  endfacet
  facet normal 0 0.709046 -0.705162
    outer loop
      vertex 0.261321 2.4863 1.5
      vertex -0.313585 2.98357 2
      vertex 0.313585 2.98357 2
    endloop
  endfacet
  facet normal 0 0.709046 -0.705162
    outer loop
      vertex -0.313585 2.98357 2
      vertex 0.261321 2.4863 1.5
      vertex -0.261321 2.4863 1.5
    endloop
  endfacet
  facet normal 0.147419 0.693552 -0.705162
    outer loop
      vertex 0.927051 2.85317 2
      vertex 0.261321 2.4863 1.5
      vertex 0.313585 2.98357 2
    endloop
  endfacet
  facet normal 0.416767 0.57363 -0.705162
    outer loop
      vertex 1.67283 1.85786 1.5
      vertex 1.25 2.16506 1.5
      vertex 1.5 2.59808 2
    endloop
  endfacet
  facet normal -0.147419 0.693552 -0.705162
    outer loop
      vertex -0.261321 2.4863 1.5
      vertex -0.927051 2.85317 2
      vertex -0.313585 2.98357 2
    endloop
  endfacet
  facet normal -0.147419 0.693551 -0.705162
    outer loop
      vertex -0.772542 2.37764 1.5
      vertex -0.927051 2.85317 2
      vertex -0.261321 2.4863 1.5
    endloop
  endfacet
  facet normal -0.526924 0.474444 -0.705162
    outer loop
      vertex -2.02254 1.46946 1.5
      vertex -2.42705 1.76336 2
      vertex -1.67283 1.85786 1.5
    endloop
  endfacet
  facet normal -0.614052 0.354523 -0.705162
    outer loop
      vertex -2.28386 1.01684 1.5
      vertex -2.74064 1.22021 2
      vertex -2.42705 1.76336 2
    endloop
  endfacet
  facet normal -0.674343 0.219108 -0.705162
    outer loop
      vertex -2.64781 1 1.8428
      vertex -2.81219 1 2
      vertex -2.74064 1.22021 2
    endloop
  endfacet
  facet normal 0.614052 -0.354523 -0.705162
    outer loop
      vertex 2.42705 -1.76336 2
      vertex 2.02254 -1.46946 1.5
      vertex 2.28386 -1.01684 1.5
    endloop
  endfacet
  facet normal 0.526924 -0.474444 -0.705162
    outer loop
      vertex 2.42705 -1.76336 2
      vertex 1.67283 -1.85786 1.5
      vertex 2.02254 -1.46946 1.5
    endloop
  endfacet
  facet normal 0.674343 -0.219108 -0.705162
    outer loop
      vertex 2.74064 -1.22021 2
      vertex 2.64781 -1 1.8428
      vertex 2.81219 -1 2
    endloop
  endfacet
  facet normal 0.288395 -0.647746 -0.705162
    outer loop
      vertex 0.927051 -2.85317 2
      vertex 0.772542 -2.37764 1.5
      vertex 1.25 -2.16506 1.5
    endloop
  endfacet
  facet normal 0.147419 -0.693551 -0.705162
    outer loop
      vertex 0.927051 -2.85317 2
      vertex 0.261321 -2.4863 1.5
      vertex 0.772542 -2.37764 1.5
    endloop
  endfacet
  facet normal -0.674343 -0.219108 -0.705162
    outer loop
      vertex -2.74064 -1.22021 2
      vertex -2.81219 -1 2
      vertex -2.64781 -1 1.8428
    endloop
  endfacet
  facet normal -0.614052 -0.354523 -0.705162
    outer loop
      vertex -2.42705 -1.76336 2
      vertex -2.74064 -1.22021 2
      vertex -2.28386 -1.01684 1.5
    endloop
  endfacet
  facet normal -0.147419 -0.693552 -0.705162
    outer loop
      vertex -0.313585 -2.98357 2
      vertex -0.927051 -2.85317 2
      vertex -0.261321 -2.4863 1.5
    endloop
  endfacet
  facet normal -0.416767 -0.57363 -0.705162
    outer loop
      vertex -1.5 -2.59808 2
      vertex -1.67283 -1.85786 1.5
      vertex -1.25 -2.16506 1.5
    endloop
  endfacet
  facet normal -0.288395 -0.647746 -0.705162
    outer loop
      vertex -0.927051 -2.85317 2
      vertex -1.5 -2.59808 2
      vertex -1.25 -2.16506 1.5
    endloop
  endfacet
  facet normal -0.526924 -0.474445 -0.705162
    outer loop
      vertex -2.00739 -2.22943 2
      vertex -2.42705 -1.76336 2
      vertex -1.67283 -1.85786 1.5
    endloop
  endfacet
  facet normal 0.614052 0.354523 -0.705162
    outer loop
      vertex 2.28386 1.01684 1.5
      vertex 2.02254 1.46946 1.5
      vertex 2.42705 1.76336 2
    endloop
  endfacet
  facet normal 0.147419 0.693551 -0.705162
    outer loop
      vertex 0.772542 2.37764 1.5
      vertex 0.261321 2.4863 1.5
      vertex 0.927051 2.85317 2
    endloop
  endfacet
  facet normal 0.416767 0.57363 -0.705162
    outer loop
      vertex 1.67283 1.85786 1.5
      vertex 1.5 2.59808 2
      vertex 2.00739 2.22943 2
    endloop
  endfacet
  facet normal 0.526924 0.474445 -0.705162
    outer loop
      vertex 2.42705 1.76336 2
      vertex 1.67283 1.85786 1.5
      vertex 2.00739 2.22943 2
    endloop
  endfacet
  facet normal -0.288395 0.647746 -0.705162
    outer loop
      vertex -0.772542 2.37764 1.5
      vertex -1.25 2.16506 1.5
      vertex -0.927051 2.85317 2
    endloop
  endfacet
  facet normal -0.526924 0.474445 -0.705162
    outer loop
      vertex -1.67283 1.85786 1.5
      vertex -2.42705 1.76336 2
      vertex -2.00739 2.22943 2
    endloop
  endfacet
  facet normal -0.416767 0.57363 -0.705162
    outer loop
      vertex -1.67283 1.85786 1.5
      vertex -2.00739 2.22943 2
      vertex -1.5 2.59808 2
    endloop
  endfacet
  facet normal -0.614052 0.354523 -0.705162
    outer loop
      vertex -2.28386 1.01684 1.5
      vertex -2.42705 1.76336 2
      vertex -2.02254 1.46946 1.5
    endloop
  endfacet
  facet normal -0.674343 -0.219107 -0.705162
    outer loop
      vertex -2.28386 -1.01684 1.5
      vertex -2.64781 -1 1.8428
      vertex -2.28934 -1 1.5
    endloop
  endfacet
  facet normal -0.674343 -0.219108 -0.705162
    outer loop
      vertex -2.64781 -1 1.8428
      vertex -2.28386 -1.01684 1.5
      vertex -2.74064 -1.22021 2
    endloop
  endfacet
  facet normal -0.147419 -0.693551 -0.705162
    outer loop
      vertex -0.261321 -2.4863 1.5
      vertex -0.927051 -2.85317 2
      vertex -0.772542 -2.37764 1.5
    endloop
  endfacet
  facet normal -0.288395 -0.647746 -0.705162
    outer loop
      vertex -0.927051 -2.85317 2
      vertex -1.25 -2.16506 1.5
      vertex -0.772542 -2.37764 1.5
    endloop
  endfacet
  facet normal -0.674343 0.219107 -0.705162
    outer loop
      vertex -2.64781 1 1.8428
      vertex -2.28386 1.01684 1.5
      vertex -2.28934 1 1.5
    endloop
  endfacet
  facet normal -0.674343 0.219108 -0.705162
    outer loop
      vertex -2.28386 1.01684 1.5
      vertex -2.64781 1 1.8428
      vertex -2.74064 1.22021 2
    endloop
  endfacet
  facet normal 0 -1 0
    outer loop
      vertex -2.64781 1 1.8428
      vertex -2.28934 1 2.3
      vertex -2.64781 1 2.09432
    endloop
  endfacet
  facet normal 0 -1 0
    outer loop
      vertex -2.28934 1 2.3
      vertex -2.28934 1 1.5
      vertex 2.28934 1 2.3
    endloop
  endfacet
  facet normal 0 -1 0
    outer loop
      vertex -2.64781 1 1.8428
      vertex -2.64781 1 2.09432
      vertex -2.81219 1 2
    endloop
  endfacet
  facet normal 0 -1 -0
    outer loop
      vertex -2.28934 1 2.3
      vertex -2.64781 1 1.8428
      vertex -2.28934 1 1.5
    endloop
  endfacet
  facet normal 0 -1 0
    outer loop
      vertex 2.28934 1 1.5
      vertex 2.28934 1 2.3
      vertex -2.28934 1 1.5
    endloop
  endfacet
  facet normal 0 -1 0
    outer loop
      vertex 2.64781 1 2.09432
      vertex 2.64781 1 1.8428
      vertex 2.81219 1 2
    endloop
  endfacet
  facet normal -0 -1 0
    outer loop
      vertex 2.64781 1 1.8428
      vertex 2.28934 1 2.3
      vertex 2.28934 1 1.5
    endloop
  endfacet
  facet normal 0 -1 0
    outer loop
      vertex 2.28934 1 2.3
      vertex 2.64781 1 1.8428
      vertex 2.64781 1 2.09432
    endloop
  endfacet
  facet normal 0 -1 0
    outer loop
      vertex -2.28934 1 0
      vertex 2.28934 1 1.5
      vertex -2.28934 1 1.5
    endloop
  endfacet
  facet normal 0 -1 -0
    outer loop
      vertex 2.28934 1 1.5
      vertex -2.28934 1 0
      vertex 2.28934 1 0
    endloop
  endfacet
  facet normal 0 1 -0
    outer loop
      vertex 2.64781 -1 1.8428
      vertex 2.28934 -1 2.3
      vertex 2.64781 -1 2.09432
    endloop
  endfacet
  facet normal 0 1 0
    outer loop
      vertex 2.28934 -1 2.3
      vertex 2.28934 -1 1.5
      vertex -2.28934 -1 2.3
    endloop
  endfacet
  facet normal 0 1 0
    outer loop
      vertex 2.64781 -1 1.8428
      vertex 2.64781 -1 2.09432
      vertex 2.81219 -1 2
    endloop
  endfacet
  facet normal 0 1 0
    outer loop
      vertex 2.28934 -1 2.3
      vertex 2.64781 -1 1.8428
      vertex 2.28934 -1 1.5
    endloop
  endfacet
  facet normal 0 1 0
    outer loop
      vertex -2.28934 -1 1.5
      vertex -2.28934 -1 2.3
      vertex 2.28934 -1 1.5
    endloop
  endfacet
  facet normal 0 1 0
    outer loop
      vertex -2.64781 -1 2.09432
      vertex -2.64781 -1 1.8428
      vertex -2.81219 -1 2
    endloop
  endfacet
  facet normal -0 1 0
    outer loop
      vertex -2.64781 -1 1.8428
      vertex -2.28934 -1 2.3
      vertex -2.28934 -1 1.5
    endloop
  endfacet
  facet normal 0 1 0
    outer loop
      vertex -2.28934 -1 2.3
      vertex -2.64781 -1 1.8428
      vertex -2.64781 -1 2.09432
    endloop
  endfacet
  facet normal 0 1 -0
    outer loop
      vertex 2.28934 -1 0
      vertex -2.28934 -1 1.5
      vertex 2.28934 -1 1.5
    endloop
  endfacet
  facet normal 0 1 0
    outer loop
      vertex -2.28934 -1 1.5
      vertex 2.28934 -1 0
      vertex -2.28934 -1 0
    endloop
  endfacet
  facet normal 0.726611 0.0763699 0.682791
    outer loop
      vertex 10 0 -2
      vertex 7.94316 1.68837 0
      vertex 8.12061 0 0
    endloop
  endfacet
  facet normal 0.726611 0.0763702 0.682791
    outer loop
      vertex 9.78148 2.07912 -2
      vertex 7.94316 1.68837 0
      vertex 10 0 -2
    endloop
  endfacet
  facet normal -0.726611 0.0763699 0.682791
    outer loop
      vertex -7.94316 1.68837 0
      vertex -10 0 -2
      vertex -8.12061 0 0
    endloop
  endfacet
  facet normal 0.694855 0.225772 0.682791
    outer loop
      vertex 9.13545 4.06737 -2
      vertex 7.41855 3.30295 0
      vertex 9.78148 2.07912 -2
    endloop
  endfacet
  facet normal 0 0.730614 0.682791
    outer loop
      vertex 1.04528 9.94522 -2
      vertex -0.848835 8.07613 0
      vertex 0.848835 8.07613 0
    endloop
  endfacet
  facet normal 0 0.730614 0.682791
    outer loop
      vertex -0.848835 8.07613 0
      vertex 1.04528 9.94522 -2
      vertex -1.04528 9.94522 -2
    endloop
  endfacet
  facet normal 0 -0.730614 0.682791
    outer loop
      vertex -1.04528 -9.94522 -2
      vertex 0.848835 -8.07613 0
      vertex -0.848835 -8.07613 0
    endloop
  endfacet
  facet normal 0 -0.730614 0.682791
    outer loop
      vertex 0.848835 -8.07613 0
      vertex -1.04528 -9.94522 -2
      vertex 1.04528 -9.94522 -2
    endloop
  endfacet
  facet normal 0.63273 -0.365307 0.682791
    outer loop
      vertex 9.13545 -4.06737 -2
      vertex 7.41855 -3.30295 0
      vertex 8.09017 -5.87785 -2
    endloop
  endfacet
  facet normal 0.429444 0.591079 0.682791
    outer loop
      vertex 5 8.66025 -2
      vertex 4.06031 7.03266 0
      vertex 6.69131 7.43145 -2
    endloop
  endfacet
  facet normal 0.297167 0.667449 0.682791
    outer loop
      vertex 5 8.66025 -2
      vertex 3.09017 9.51056 -2
      vertex 4.06031 7.03266 0
    endloop
  endfacet
  facet normal -0.726611 -0.0763702 0.682791
    outer loop
      vertex -7.94316 -1.68837 0
      vertex -10 0 -2
      vertex -9.78148 -2.07912 -2
    endloop
  endfacet
  facet normal 0 0 -1
    outer loop
      vertex 9.78148 -2.07912 -2
      vertex 9.78148 2.07912 -2
      vertex 10 0 -2
    endloop
  endfacet
  facet normal 0 0 -1
    outer loop
      vertex 9.13545 -4.06737 -2
      vertex 9.78148 2.07912 -2
      vertex 9.78148 -2.07912 -2
    endloop
  endfacet
  facet normal 0 0 -1
    outer loop
      vertex 9.13545 -4.06737 -2
      vertex 9.13545 4.06737 -2
      vertex 9.78148 2.07912 -2
    endloop
  endfacet
  facet normal 0 0 -1
    outer loop
      vertex 8.09017 -5.87785 -2
      vertex 9.13545 4.06737 -2
      vertex 9.13545 -4.06737 -2
    endloop
  endfacet
  facet normal 0 0 -1
    outer loop
      vertex 8.09017 -5.87785 -2
      vertex 8.09017 5.87785 -2
      vertex 9.13545 4.06737 -2
    endloop
  endfacet
  facet normal 0 0 -1
    outer loop
      vertex 6.69131 -7.43145 -2
      vertex 8.09017 5.87785 -2
      vertex 8.09017 -5.87785 -2
    endloop
  endfacet
  facet normal 0 0 -1
    outer loop
      vertex 6.69131 -7.43145 -2
      vertex 6.69131 7.43145 -2
      vertex 8.09017 5.87785 -2
    endloop
  endfacet
  facet normal 0 0 -1
    outer loop
      vertex 5 -8.66025 -2
      vertex 6.69131 7.43145 -2
      vertex 6.69131 -7.43145 -2
    endloop
  endfacet
  facet normal 0 0 -1
    outer loop
      vertex 5 -8.66025 -2
      vertex 5 8.66025 -2
      vertex 6.69131 7.43145 -2
    endloop
  endfacet
  facet normal 0 0 -1
    outer loop
      vertex 3.09017 -9.51056 -2
      vertex 5 8.66025 -2
      vertex 5 -8.66025 -2
    endloop
  endfacet
  facet normal 0 0 -1
    outer loop
      vertex 3.09017 -9.51056 -2
      vertex 3.09017 9.51056 -2
      vertex 5 8.66025 -2
    endloop
  endfacet
  facet normal 0 0 -1
    outer loop
      vertex 1.04528 -9.94522 -2
      vertex 3.09017 9.51056 -2
      vertex 3.09017 -9.51056 -2
    endloop
  endfacet
  facet normal 0 0 -1
    outer loop
      vertex 1.04528 -9.94522 -2
      vertex 1.04528 9.94522 -2
      vertex 3.09017 9.51056 -2
    endloop
  endfacet
  facet normal 0 0 -1
    outer loop
      vertex -1.04528 -9.94522 -2
      vertex 1.04528 9.94522 -2
      vertex 1.04528 -9.94522 -2
    endloop
  endfacet
  facet normal 0 0 -1
    outer loop
      vertex -1.04528 -9.94522 -2
      vertex -1.04528 9.94522 -2
      vertex 1.04528 9.94522 -2
    endloop
  endfacet
  facet normal 0 0 -1
    outer loop
      vertex -3.09017 -9.51056 -2
      vertex -1.04528 9.94522 -2
      vertex -1.04528 -9.94522 -2
    endloop
  endfacet
  facet normal 0 0 -1
    outer loop
      vertex -3.09017 -9.51056 -2
      vertex -3.09017 9.51056 -2
      vertex -1.04528 9.94522 -2
    endloop
  endfacet
  facet normal 0 0 -1
    outer loop
      vertex -3.09017 -9.51056 -2
      vertex -5 8.66025 -2
      vertex -3.09017 9.51056 -2
    endloop
  endfacet
  facet normal 0 0 -1
    outer loop
      vertex -5 -8.66025 -2
      vertex -5 8.66025 -2
      vertex -3.09017 -9.51056 -2
    endloop
  endfacet
  facet normal 0 0 -1
    outer loop
      vertex -6.69131 -7.43145 -2
      vertex -5 8.66025 -2
      vertex -5 -8.66025 -2
    endloop
  endfacet
  facet normal 0 0 -1
    outer loop
      vertex -6.69131 -7.43145 -2
      vertex -6.69131 7.43145 -2
      vertex -5 8.66025 -2
    endloop
  endfacet
  facet normal 0 0 -1
    outer loop
      vertex -8.09017 -5.87785 -2
      vertex -6.69131 7.43145 -2
      vertex -6.69131 -7.43145 -2
    endloop
  endfacet
  facet normal 0 0 -1
    outer loop
      vertex -8.09017 -5.87785 -2
      vertex -8.09017 5.87785 -2
      vertex -6.69131 7.43145 -2
    endloop
  endfacet
  facet normal 0 0 -1
    outer loop
      vertex -9.13545 -4.06737 -2
      vertex -8.09017 5.87785 -2
      vertex -8.09017 -5.87785 -2
    endloop
  endfacet
  facet normal 0 0 -1
    outer loop
      vertex -9.13545 -4.06737 -2
      vertex -9.13545 4.06737 -2
      vertex -8.09017 5.87785 -2
    endloop
  endfacet
  facet normal 0 0 -1
    outer loop
      vertex -9.78148 -2.07912 -2
      vertex -9.13545 4.06737 -2
      vertex -9.13545 -4.06737 -2
    endloop
  endfacet
  facet normal 0 0 -1
    outer loop
      vertex -9.78148 -2.07912 -2
      vertex -9.78148 2.07912 -2
      vertex -9.13545 4.06737 -2
    endloop
  endfacet
  facet normal 0 -0 -1
    outer loop
      vertex -9.78148 2.07912 -2
      vertex -9.78148 -2.07912 -2
      vertex -10 0 -2
    endloop
  endfacet
  facet normal -0.694855 -0.225772 0.682791
    outer loop
      vertex -7.41855 -3.30295 0
      vertex -9.78148 -2.07912 -2
      vertex -9.13545 -4.06737 -2
    endloop
  endfacet
  facet normal 0.542951 -0.488876 0.682791
    outer loop
      vertex 8.09017 -5.87785 -2
      vertex 5.43375 -6.03479 0
      vertex 6.69131 -7.43145 -2
    endloop
  endfacet
  facet normal 0.694855 -0.225772 0.682791
    outer loop
      vertex 7.94316 -1.68837 0
      vertex 7.41855 -3.30295 0
      vertex 9.78148 -2.07912 -2
    endloop
  endfacet
  facet normal 0.63273 0.365307 0.682791
    outer loop
      vertex 8.09017 5.87785 -2
      vertex 7.41855 3.30295 0
      vertex 9.13545 4.06737 -2
    endloop
  endfacet
  facet normal 0.63273 0.365307 0.682791
    outer loop
      vertex 8.09017 5.87785 -2
      vertex 6.56971 4.77318 0
      vertex 7.41855 3.30295 0
    endloop
  endfacet
  facet normal -0.542952 0.488876 0.682791
    outer loop
      vertex -5.43375 6.03479 0
      vertex -8.09017 5.87785 -2
      vertex -6.56971 4.77318 0
    endloop
  endfacet
  facet normal -0.63273 0.365307 0.682791
    outer loop
      vertex -8.09017 5.87785 -2
      vertex -9.13545 4.06737 -2
      vertex -7.41855 3.30295 0
    endloop
  endfacet
  facet normal 0.542951 0.488876 0.682791
    outer loop
      vertex 6.69131 7.43145 -2
      vertex 5.43375 6.03479 0
      vertex 8.09017 5.87785 -2
    endloop
  endfacet
  facet normal 0.429444 0.591079 0.682791
    outer loop
      vertex 6.69131 7.43145 -2
      vertex 4.06031 7.03266 0
      vertex 5.43375 6.03479 0
    endloop
  endfacet
  facet normal 0.297167 0.667449 0.682791
    outer loop
      vertex 3.09017 9.51056 -2
      vertex 2.50941 7.72316 0
      vertex 4.06031 7.03266 0
    endloop
  endfacet
  facet normal 0.151903 0.714648 0.682791
    outer loop
      vertex 3.09017 9.51056 -2
      vertex 0.848835 8.07613 0
      vertex 2.50941 7.72316 0
    endloop
  endfacet
  facet normal -0.63273 -0.365307 0.682791
    outer loop
      vertex -7.41855 -3.30295 0
      vertex -9.13545 -4.06737 -2
      vertex -8.09017 -5.87785 -2
    endloop
  endfacet
  facet normal -0.694855 -0.225772 0.682791
    outer loop
      vertex -7.94316 -1.68837 0
      vertex -9.78148 -2.07912 -2
      vertex -7.41855 -3.30295 0
    endloop
  endfacet
  facet normal -0.151903 -0.714648 0.682791
    outer loop
      vertex -0.848835 -8.07613 0
      vertex -3.09017 -9.51056 -2
      vertex -1.04528 -9.94522 -2
    endloop
  endfacet
  facet normal -0.297167 -0.667449 0.682791
    outer loop
      vertex -4.06031 -7.03266 0
      vertex -5 -8.66025 -2
      vertex -3.09017 -9.51056 -2
    endloop
  endfacet
  facet normal -0.542952 -0.488876 0.682791
    outer loop
      vertex -6.56971 -4.77318 0
      vertex -8.09017 -5.87785 -2
      vertex -5.43375 -6.03479 0
    endloop
  endfacet
  facet normal 0.151903 -0.714648 0.682791
    outer loop
      vertex 3.09017 -9.51056 -2
      vertex 0.848835 -8.07613 0
      vertex 1.04528 -9.94522 -2
    endloop
  endfacet
  facet normal 0.151903 -0.714648 0.682791
    outer loop
      vertex 2.50941 -7.72316 0
      vertex 0.848835 -8.07613 0
      vertex 3.09017 -9.51056 -2
    endloop
  endfacet
  facet normal 0.429444 -0.591079 0.682791
    outer loop
      vertex 6.69131 -7.43145 -2
      vertex 4.06031 -7.03266 0
      vertex 5 -8.66025 -2
    endloop
  endfacet
  facet normal 0.63273 -0.365307 0.682791
    outer loop
      vertex 7.41855 -3.30295 0
      vertex 6.56971 -4.77318 0
      vertex 8.09017 -5.87785 -2
    endloop
  endfacet
  facet normal 0.542952 -0.488876 0.682791
    outer loop
      vertex 6.56971 -4.77318 0
      vertex 5.43375 -6.03479 0
      vertex 8.09017 -5.87785 -2
    endloop
  endfacet
  facet normal 0.694855 -0.225772 0.682791
    outer loop
      vertex 9.78148 -2.07912 -2
      vertex 7.41855 -3.30295 0
      vertex 9.13545 -4.06737 -2
    endloop
  endfacet
  facet normal -0.297168 0.667449 0.682791
    outer loop
      vertex -3.09017 9.51056 -2
      vertex -5 8.66025 -2
      vertex -4.06031 7.03266 0
    endloop
  endfacet
  facet normal 0.694855 0.225772 0.682791
    outer loop
      vertex 9.78148 2.07912 -2
      vertex 7.41855 3.30295 0
      vertex 7.94316 1.68837 0
    endloop
  endfacet
  facet normal 0.542952 0.488876 0.682791
    outer loop
      vertex 8.09017 5.87785 -2
      vertex 5.43375 6.03479 0
      vertex 6.56971 4.77318 0
    endloop
  endfacet
  facet normal 0.151903 0.714648 0.682791
    outer loop
      vertex 1.04528 9.94522 -2
      vertex 0.848835 8.07613 0
      vertex 3.09017 9.51056 -2
    endloop
  endfacet
  facet normal -0.151903 -0.714648 0.682791
    outer loop
      vertex -2.50941 -7.72316 0
      vertex -3.09017 -9.51056 -2
      vertex -0.848835 -8.07613 0
    endloop
  endfacet
  facet normal -0.726611 -0.0763699 0.682791
    outer loop
      vertex -8.12061 0 0
      vertex -10 0 -2
      vertex -7.94316 -1.68837 0
    endloop
  endfacet
  facet normal -0.63273 -0.365307 0.682791
    outer loop
      vertex -7.41855 -3.30295 0
      vertex -8.09017 -5.87785 -2
      vertex -6.56971 -4.77318 0
    endloop
  endfacet
  facet normal 0.429444 -0.591079 0.682791
    outer loop
      vertex 5.43375 -6.03479 0
      vertex 4.06031 -7.03266 0
      vertex 6.69131 -7.43145 -2
    endloop
  endfacet
  facet normal 0.297167 -0.667449 0.682791
    outer loop
      vertex 4.06031 -7.03266 0
      vertex 2.50941 -7.72316 0
      vertex 3.09017 -9.51056 -2
    endloop
  endfacet
  facet normal 0.297167 -0.667449 0.682791
    outer loop
      vertex 4.06031 -7.03266 0
      vertex 3.09017 -9.51056 -2
      vertex 5 -8.66025 -2
    endloop
  endfacet
  facet normal 0.726611 -0.0763702 0.682791
    outer loop
      vertex 10 0 -2
      vertex 7.94316 -1.68837 0
      vertex 9.78148 -2.07912 -2
    endloop
  endfacet
  facet normal 0.726611 -0.0763699 0.682791
    outer loop
      vertex 8.12061 0 0
      vertex 7.94316 -1.68837 0
      vertex 10 0 -2
    endloop
  endfacet
  facet normal -0.63273 0.365307 0.682791
    outer loop
      vertex -6.56971 4.77318 0
      vertex -8.09017 5.87785 -2
      vertex -7.41855 3.30295 0
    endloop
  endfacet
  facet normal -0.726611 0.0763702 0.682791
    outer loop
      vertex -9.78148 2.07912 -2
      vertex -10 0 -2
      vertex -7.94316 1.68837 0
    endloop
  endfacet
  facet normal -0.297167 0.667449 0.682791
    outer loop
      vertex -3.09017 9.51056 -2
      vertex -4.06031 7.03266 0
      vertex -2.50941 7.72316 0
    endloop
  endfacet
  facet normal -0.542951 0.488876 0.682791
    outer loop
      vertex -6.69131 7.43145 -2
      vertex -8.09017 5.87785 -2
      vertex -5.43375 6.03479 0
    endloop
  endfacet
  facet normal -0.151903 0.714648 0.682791
    outer loop
      vertex -0.848835 8.07613 0
      vertex -3.09017 9.51056 -2
      vertex -2.50941 7.72316 0
    endloop
  endfacet
  facet normal -0.151903 0.714648 0.682791
    outer loop
      vertex -1.04528 9.94522 -2
      vertex -3.09017 9.51056 -2
      vertex -0.848835 8.07613 0
    endloop
  endfacet
  facet normal -0.297167 -0.667449 0.682791
    outer loop
      vertex -2.50941 -7.72316 0
      vertex -4.06031 -7.03266 0
      vertex -3.09017 -9.51056 -2
    endloop
  endfacet
  facet normal -0.429444 -0.591079 0.682791
    outer loop
      vertex -4.06031 -7.03266 0
      vertex -6.69131 -7.43145 -2
      vertex -5 -8.66025 -2
    endloop
  endfacet
  facet normal -0.429444 -0.591079 0.682791
    outer loop
      vertex -5.43375 -6.03479 0
      vertex -6.69131 -7.43145 -2
      vertex -4.06031 -7.03266 0
    endloop
  endfacet
  facet normal -0.542951 -0.488876 0.682791
    outer loop
      vertex -5.43375 -6.03479 0
      vertex -8.09017 -5.87785 -2
      vertex -6.69131 -7.43145 -2
    endloop
  endfacet
  facet normal -0.694855 0.225772 0.682791
    outer loop
      vertex -9.13545 4.06737 -2
      vertex -9.78148 2.07912 -2
      vertex -7.41855 3.30295 0
    endloop
  endfacet
  facet normal -0.694855 0.225772 0.682791
    outer loop
      vertex -7.41855 3.30295 0
      vertex -9.78148 2.07912 -2
      vertex -7.94316 1.68837 0
    endloop
  endfacet
  facet normal -0.429444 0.591079 0.682791
    outer loop
      vertex -5 8.66025 -2
      vertex -6.69131 7.43145 -2
      vertex -4.06031 7.03266 0
    endloop
  endfacet
  facet normal -0.429444 0.591079 0.682791
    outer loop
      vertex -4.06031 7.03266 0
      vertex -6.69131 7.43145 -2
      vertex -5.43375 6.03479 0
    endloop
  endfacet
endsolid OpenSCAD_Model
