solid OpenSCAD_Model
  facet normal -0.866025 0.5 0
    outer loop
      vertex 1.45623 -1.05801 -0.109999
      vertex 1.64438 -0.732125 -5.72205e-07
      vertex 1.64438 -0.732125 -0.109999
    endloop
  endfacet
  facet normal -0.866025 0.5 0
    outer loop
      vertex 1.64438 -0.732125 -5.72205e-07
      vertex 1.45623 -1.05801 -0.109999
      vertex 1.45623 -1.05801 -5.72205e-07
    endloop
  endfacet
  facet normal 0.951057 0.309016 0
    outer loop
      vertex -1.64438 -0.732125 -5.72205e-07
      vertex -1.76066 -0.374241 -0.109999
      vertex -1.76066 -0.374241 -5.72205e-07
    endloop
  endfacet
  facet normal 0.951057 0.309016 0
    outer loop
      vertex -1.76066 -0.374241 -0.109999
      vertex -1.64438 -0.732125 -5.72205e-07
      vertex -1.64438 -0.732125 -0.109999
    endloop
  endfacet
  facet normal -0.743144 0.669131 0
    outer loop
      vertex 1.20443 -1.33766 -0.109999
      vertex 1.45623 -1.05801 -5.72205e-07
      vertex 1.45623 -1.05801 -0.109999
    endloop
  endfacet
  facet normal -0.743144 0.669131 0
    outer loop
      vertex 1.45623 -1.05801 -5.72205e-07
      vertex 1.20443 -1.33766 -0.109999
      vertex 1.20443 -1.33766 -5.72205e-07
    endloop
  endfacet
  facet normal -0.207911 0.978148 0
    outer loop
      vertex 0.556231 -1.7119 -0.109999
      vertex 0.18815 -1.79014 -5.72205e-07
      vertex 0.556231 -1.7119 -5.72205e-07
    endloop
  endfacet
  facet normal -0.207911 0.978148 0
    outer loop
      vertex 0.18815 -1.79014 -5.72205e-07
      vertex 0.556231 -1.7119 -0.109999
      vertex 0.18815 -1.79014 -0.109999
    endloop
  endfacet
  facet normal -0.406737 0.913545 0
    outer loop
      vertex 0.9 -1.55885 -0.109999
      vertex 0.556231 -1.7119 -5.72205e-07
      vertex 0.9 -1.55885 -5.72205e-07
    endloop
  endfacet
  facet normal -0.406737 0.913545 0
    outer loop
      vertex 0.556231 -1.7119 -5.72205e-07
      vertex 0.9 -1.55885 -0.109999
      vertex 0.556231 -1.7119 -0.109999
    endloop
  endfacet
  facet normal 0.406737 0.913545 -0
    outer loop
      vertex -0.556231 -1.7119 -0.109999
      vertex -0.9 -1.55885 -5.72205e-07
      vertex -0.556231 -1.7119 -5.72205e-07
    endloop
  endfacet
  facet normal 0.406737 0.913545 0
    outer loop
      vertex -0.9 -1.55885 -5.72205e-07
      vertex -0.556231 -1.7119 -0.109999
      vertex -0.9 -1.55885 -0.109999
    endloop
  endfacet
  facet normal 0.866025 0.5 0
    outer loop
      vertex -1.45623 -1.05801 -5.72205e-07
      vertex -1.64438 -0.732125 -0.109999
      vertex -1.64438 -0.732125 -5.72205e-07
    endloop
  endfacet
  facet normal 0.866025 0.5 0
    outer loop
      vertex -1.64438 -0.732125 -0.109999
      vertex -1.45623 -1.05801 -5.72205e-07
      vertex -1.45623 -1.05801 -0.109999
    endloop
  endfacet
  facet normal -0.994522 -0.104528 0
    outer loop
      vertex 1.76066 0.374241 -0.109999
      vertex 1.8 1.22464e-17 -5.72205e-07
      vertex 1.76066 0.374241 -5.72205e-07
    endloop
  endfacet
  facet normal -0.994522 -0.104528 1.2801e-17
    outer loop
      vertex 1.8 1.22464e-17 -5.72205e-07
      vertex 1.76066 0.374241 -0.109999
      vertex 1.8 -1.22456e-18 -0.109999
    endloop
  endfacet
  facet normal -0.951057 0.309016 0
    outer loop
      vertex 1.64438 -0.732125 -0.109999
      vertex 1.76066 -0.374241 -5.72205e-07
      vertex 1.76066 -0.374241 -0.109999
    endloop
  endfacet
  facet normal -0.951057 0.309016 0
    outer loop
      vertex 1.76066 -0.374241 -5.72205e-07
      vertex 1.64438 -0.732125 -0.109999
      vertex 1.64438 -0.732125 -5.72205e-07
    endloop
  endfacet
  facet normal -0.587787 0.809016 0
    outer loop
      vertex 1.20443 -1.33766 -0.109999
      vertex 0.9 -1.55885 -5.72205e-07
      vertex 1.20443 -1.33766 -5.72205e-07
    endloop
  endfacet
  facet normal -0.587787 0.809016 0
    outer loop
      vertex 0.9 -1.55885 -5.72205e-07
      vertex 1.20443 -1.33766 -0.109999
      vertex 0.9 -1.55885 -0.109999
    endloop
  endfacet
  facet normal 0 1 -0
    outer loop
      vertex 0.18815 -1.79014 -0.109999
      vertex -0.18815 -1.79014 -5.72205e-07
      vertex 0.18815 -1.79014 -5.72205e-07
    endloop
  endfacet
  facet normal 0 1 0
    outer loop
      vertex -0.18815 -1.79014 -5.72205e-07
      vertex 0.18815 -1.79014 -0.109999
      vertex -0.18815 -1.79014 -0.109999
    endloop
  endfacet
  facet normal 0.994522 0.104528 -1.281e-17
    outer loop
      vertex -1.76066 -0.374241 -5.72205e-07
      vertex -1.8 -1.22456e-18 -0.109999
      vertex -1.8 1.22464e-17 -5.72205e-07
    endloop
  endfacet
  facet normal 0.994522 0.104528 0
    outer loop
      vertex -1.8 -1.22456e-18 -0.109999
      vertex -1.76066 -0.374241 -5.72205e-07
      vertex -1.76066 -0.374241 -0.109999
    endloop
  endfacet
  facet normal 0.587787 0.809016 -0
    outer loop
      vertex -0.9 -1.55885 -0.109999
      vertex -1.20443 -1.33766 -5.72205e-07
      vertex -0.9 -1.55885 -5.72205e-07
    endloop
  endfacet
  facet normal 0.587787 0.809016 0
    outer loop
      vertex -1.20443 -1.33766 -5.72205e-07
      vertex -0.9 -1.55885 -0.109999
      vertex -1.20443 -1.33766 -0.109999
    endloop
  endfacet
  facet normal 0.207911 0.978148 -0
    outer loop
      vertex -0.18815 -1.79014 -0.109999
      vertex -0.556231 -1.7119 -5.72205e-07
      vertex -0.18815 -1.79014 -5.72205e-07
    endloop
  endfacet
  facet normal 0.207911 0.978148 0
    outer loop
      vertex -0.556231 -1.7119 -5.72205e-07
      vertex -0.18815 -1.79014 -0.109999
      vertex -0.556231 -1.7119 -0.109999
    endloop
  endfacet
  facet normal 0.743144 0.669131 0
    outer loop
      vertex -1.20443 -1.33766 -5.72205e-07
      vertex -1.45623 -1.05801 -0.109999
      vertex -1.45623 -1.05801 -5.72205e-07
    endloop
  endfacet
  facet normal 0.743144 0.669131 0
    outer loop
      vertex -1.45623 -1.05801 -0.109999
      vertex -1.20443 -1.33766 -5.72205e-07
      vertex -1.20443 -1.33766 -0.109999
    endloop
  endfacet
  facet normal -0.994522 0.104528 -1.281e-17
    outer loop
      vertex 1.76066 -0.374241 -0.109999
      vertex 1.8 1.22464e-17 -5.72205e-07
      vertex 1.8 -1.22456e-18 -0.109999
    endloop
  endfacet
  facet normal -0.994522 0.104528 0
    outer loop
      vertex 1.8 1.22464e-17 -5.72205e-07
      vertex 1.76066 -0.374241 -0.109999
      vertex 1.76066 -0.374241 -5.72205e-07
    endloop
  endfacet
  facet normal -0.587787 -0.809016 0
    outer loop
      vertex 0.9 1.55885 -0.109999
      vertex 1.20443 1.33766 -5.72205e-07
      vertex 0.9 1.55885 -5.72205e-07
    endloop
  endfacet
  facet normal -0.587787 -0.809016 -0
    outer loop
      vertex 1.20443 1.33766 -5.72205e-07
      vertex 0.9 1.55885 -0.109999
      vertex 1.20443 1.33766 -0.109999
    endloop
  endfacet
  facet normal -0.951057 -0.309016 0
    outer loop
      vertex 1.76066 0.374241 -0.109999
      vertex 1.64438 0.732125 -5.72205e-07
      vertex 1.64438 0.732125 -0.109999
    endloop
  endfacet
  facet normal -0.951057 -0.309016 0
    outer loop
      vertex 1.64438 0.732125 -5.72205e-07
      vertex 1.76066 0.374241 -0.109999
      vertex 1.76066 0.374241 -5.72205e-07
    endloop
  endfacet
  facet normal 0.207911 -0.978148 0
    outer loop
      vertex -0.556231 1.7119 -0.109999
      vertex -0.18815 1.79014 -5.72205e-07
      vertex -0.556231 1.7119 -5.72205e-07
    endloop
  endfacet
  facet normal 0.207911 -0.978148 0
    outer loop
      vertex -0.18815 1.79014 -5.72205e-07
      vertex -0.556231 1.7119 -0.109999
      vertex -0.18815 1.79014 -0.109999
    endloop
  endfacet
  facet normal -0 0 1
    outer loop
      vertex 0.0999994 0 -0.109999
      vertex 1.8 -1.22456e-18 -0.109999
      vertex 1.76066 0.374241 -0.109999
    endloop
  endfacet
  facet normal 0 0 1
    outer loop
      vertex 0.0999994 0 -0.109999
      vertex 1.76066 0.374241 -0.109999
      vertex 1.64438 0.732125 -0.109999
    endloop
  endfacet
  facet normal 0 0 1
    outer loop
      vertex 1.8 -1.22456e-18 -0.109999
      vertex 0.0999994 0 -0.109999
      vertex 1.76066 -0.374241 -0.109999
    endloop
  endfacet
  facet normal 0 0 1
    outer loop
      vertex 0.0623484 0.0781822 -0.109999
      vertex 1.64438 0.732125 -0.109999
      vertex 1.45623 1.05801 -0.109999
    endloop
  endfacet
  facet normal 0 0 1
    outer loop
      vertex 1.76066 -0.374241 -0.109999
      vertex 0.0999994 0 -0.109999
      vertex 1.64438 -0.732125 -0.109999
    endloop
  endfacet
  facet normal 0 0 1
    outer loop
      vertex 0.0623484 0.0781822 -0.109999
      vertex 1.45623 1.05801 -0.109999
      vertex 1.20443 1.33766 -0.109999
    endloop
  endfacet
  facet normal -0 0 1
    outer loop
      vertex 0.0623484 -0.0781822 -0.109999
      vertex 1.64438 -0.732125 -0.109999
      vertex 0.0999994 0 -0.109999
    endloop
  endfacet
  facet normal 0 0 1
    outer loop
      vertex 0.0623484 0.0781822 -0.109999
      vertex 1.20443 1.33766 -0.109999
      vertex 0.9 1.55885 -0.109999
    endloop
  endfacet
  facet normal 0 0 1
    outer loop
      vertex 1.64438 -0.732125 -0.109999
      vertex 0.0623484 -0.0781822 -0.109999
      vertex 1.45623 -1.05801 -0.109999
    endloop
  endfacet
  facet normal 0 0 1
    outer loop
      vertex 0.0623484 0.0781822 -0.109999
      vertex 0.9 1.55885 -0.109999
      vertex 0.556231 1.7119 -0.109999
    endloop
  endfacet
  facet normal 0 0 1
    outer loop
      vertex 1.45623 -1.05801 -0.109999
      vertex 0.0623484 -0.0781822 -0.109999
      vertex 1.20443 -1.33766 -0.109999
    endloop
  endfacet
  facet normal 0 0 1
    outer loop
      vertex -0.0222521 0.0974922 -0.109999
      vertex 0.556231 1.7119 -0.109999
      vertex 0.18815 1.79014 -0.109999
    endloop
  endfacet
  facet normal 0 0 1
    outer loop
      vertex 1.20443 -1.33766 -0.109999
      vertex 0.0623484 -0.0781822 -0.109999
      vertex 0.9 -1.55885 -0.109999
    endloop
  endfacet
  facet normal 0 0 1
    outer loop
      vertex 0.9 -1.55885 -0.109999
      vertex 0.0623484 -0.0781822 -0.109999
      vertex 0.556231 -1.7119 -0.109999
    endloop
  endfacet
  facet normal 0 0 1
    outer loop
      vertex 1.64438 0.732125 -0.109999
      vertex 0.0623484 0.0781822 -0.109999
      vertex 0.0999994 0 -0.109999
    endloop
  endfacet
  facet normal 0 0 1
    outer loop
      vertex 0.556231 1.7119 -0.109999
      vertex -0.0222521 0.0974922 -0.109999
      vertex 0.0623484 0.0781822 -0.109999
    endloop
  endfacet
  facet normal -0 0 1
    outer loop
      vertex -0.18815 1.79014 -0.109999
      vertex -0.0222521 0.0974922 -0.109999
      vertex 0.18815 1.79014 -0.109999
    endloop
  endfacet
  facet normal -0 0 1
    outer loop
      vertex -0.9 1.55885 -0.109999
      vertex -0.0222521 0.0974922 -0.109999
      vertex -0.556231 1.7119 -0.109999
    endloop
  endfacet
  facet normal -0 0 1
    outer loop
      vertex -0.556231 1.7119 -0.109999
      vertex -0.0222521 0.0974922 -0.109999
      vertex -0.18815 1.79014 -0.109999
    endloop
  endfacet
  facet normal -0 0 1
    outer loop
      vertex -0.0222521 -0.0974922 -0.109999
      vertex 0.556231 -1.7119 -0.109999
      vertex 0.0623484 -0.0781822 -0.109999
    endloop
  endfacet
  facet normal 0 0 1
    outer loop
      vertex 0.556231 -1.7119 -0.109999
      vertex -0.0222521 -0.0974922 -0.109999
      vertex 0.18815 -1.79014 -0.109999
    endloop
  endfacet
  facet normal 0 0 1
    outer loop
      vertex -1.20443 -1.33766 -0.109999
      vertex -0.0222521 -0.0974922 -0.109999
      vertex -0.0900965 -0.0433884 -0.109999
    endloop
  endfacet
  facet normal 0 0 1
    outer loop
      vertex -0.0222521 -0.0974922 -0.109999
      vertex -0.18815 -1.79014 -0.109999
      vertex 0.18815 -1.79014 -0.109999
    endloop
  endfacet
  facet normal -0 0 1
    outer loop
      vertex -1.20443 1.33766 -0.109999
      vertex -0.0222521 0.0974922 -0.109999
      vertex -0.9 1.55885 -0.109999
    endloop
  endfacet
  facet normal 0 0 1
    outer loop
      vertex -0.0222521 0.0974922 -0.109999
      vertex -1.20443 1.33766 -0.109999
      vertex -0.0900965 0.0433884 -0.109999
    endloop
  endfacet
  facet normal 0 0 1
    outer loop
      vertex -0.0222521 -0.0974922 -0.109999
      vertex -0.556231 -1.7119 -0.109999
      vertex -0.18815 -1.79014 -0.109999
    endloop
  endfacet
  facet normal -0 0 1
    outer loop
      vertex -1.45623 1.05801 -0.109999
      vertex -0.0900965 0.0433884 -0.109999
      vertex -1.20443 1.33766 -0.109999
    endloop
  endfacet
  facet normal 0 0 1
    outer loop
      vertex -0.0222521 -0.0974922 -0.109999
      vertex -0.9 -1.55885 -0.109999
      vertex -0.556231 -1.7119 -0.109999
    endloop
  endfacet
  facet normal -0 0 1
    outer loop
      vertex -1.64438 0.732125 -0.109999
      vertex -0.0900965 0.0433884 -0.109999
      vertex -1.45623 1.05801 -0.109999
    endloop
  endfacet
  facet normal 0 0 1
    outer loop
      vertex -0.0222521 -0.0974922 -0.109999
      vertex -1.20443 -1.33766 -0.109999
      vertex -0.9 -1.55885 -0.109999
    endloop
  endfacet
  facet normal -0 0 1
    outer loop
      vertex -1.76066 0.374241 -0.109999
      vertex -0.0900965 0.0433884 -0.109999
      vertex -1.64438 0.732125 -0.109999
    endloop
  endfacet
  facet normal 0 0 1
    outer loop
      vertex -0.0900965 -0.0433884 -0.109999
      vertex -1.45623 -1.05801 -0.109999
      vertex -1.20443 -1.33766 -0.109999
    endloop
  endfacet
  facet normal 0 0 1
    outer loop
      vertex -1.8 -1.22456e-18 -0.109999
      vertex -0.0900965 0.0433884 -0.109999
      vertex -1.76066 0.374241 -0.109999
    endloop
  endfacet
  facet normal 0 0 1
    outer loop
      vertex -0.0900965 -0.0433884 -0.109999
      vertex -1.64438 -0.732125 -0.109999
      vertex -1.45623 -1.05801 -0.109999
    endloop
  endfacet
  facet normal 0 0 1
    outer loop
      vertex -0.0900965 0.0433884 -0.109999
      vertex -1.8 -1.22456e-18 -0.109999
      vertex -0.0900965 -0.0433884 -0.109999
    endloop
  endfacet
  facet normal 0 0 1
    outer loop
      vertex -0.0900965 -0.0433884 -0.109999
      vertex -1.76066 -0.374241 -0.109999
      vertex -1.64438 -0.732125 -0.109999
    endloop
  endfacet
  facet normal 0 0 1
    outer loop
      vertex -0.0900965 -0.0433884 -0.109999
      vertex -1.8 -1.22456e-18 -0.109999
      vertex -1.76066 -0.374241 -0.109999
    endloop
  endfacet
  facet normal -0.866025 -0.5 0
    outer loop
      vertex 1.64438 0.732125 -0.109999
      vertex 1.45623 1.05801 -5.72205e-07
      vertex 1.45623 1.05801 -0.109999
    endloop
  endfacet
  facet normal -0.866025 -0.5 0
    outer loop
      vertex 1.45623 1.05801 -5.72205e-07
      vertex 1.64438 0.732125 -0.109999
      vertex 1.64438 0.732125 -5.72205e-07
    endloop
  endfacet
  facet normal 0.994522 -0.104528 0
    outer loop
      vertex -1.8 1.22464e-17 -5.72205e-07
      vertex -1.76066 0.374241 -0.109999
      vertex -1.76066 0.374241 -5.72205e-07
    endloop
  endfacet
  facet normal 0.994522 -0.104528 1.281e-17
    outer loop
      vertex -1.76066 0.374241 -0.109999
      vertex -1.8 1.22464e-17 -5.72205e-07
      vertex -1.8 -1.22456e-18 -0.109999
    endloop
  endfacet
  facet normal 0.866025 -0.5 0
    outer loop
      vertex -1.64438 0.732125 -5.72205e-07
      vertex -1.45623 1.05801 -0.109999
      vertex -1.45623 1.05801 -5.72205e-07
    endloop
  endfacet
  facet normal 0.866025 -0.5 0
    outer loop
      vertex -1.45623 1.05801 -0.109999
      vertex -1.64438 0.732125 -5.72205e-07
      vertex -1.64438 0.732125 -0.109999
    endloop
  endfacet
  facet normal -0.207911 -0.978148 0
    outer loop
      vertex 0.18815 1.79014 -0.109999
      vertex 0.556231 1.7119 -5.72205e-07
      vertex 0.18815 1.79014 -5.72205e-07
    endloop
  endfacet
  facet normal -0.207911 -0.978148 -0
    outer loop
      vertex 0.556231 1.7119 -5.72205e-07
      vertex 0.18815 1.79014 -0.109999
      vertex 0.556231 1.7119 -0.109999
    endloop
  endfacet
  facet normal -0.406737 -0.913545 0
    outer loop
      vertex 0.556231 1.7119 -0.109999
      vertex 0.9 1.55885 -5.72205e-07
      vertex 0.556231 1.7119 -5.72205e-07
    endloop
  endfacet
  facet normal -0.406737 -0.913545 -0
    outer loop
      vertex 0.9 1.55885 -5.72205e-07
      vertex 0.556231 1.7119 -0.109999
      vertex 0.9 1.55885 -0.109999
    endloop
  endfacet
  facet normal 0.406737 -0.913545 0
    outer loop
      vertex -0.9 1.55885 -0.109999
      vertex -0.556231 1.7119 -5.72205e-07
      vertex -0.9 1.55885 -5.72205e-07
    endloop
  endfacet
  facet normal 0.406737 -0.913545 0
    outer loop
      vertex -0.556231 1.7119 -5.72205e-07
      vertex -0.9 1.55885 -0.109999
      vertex -0.556231 1.7119 -0.109999
    endloop
  endfacet
  facet normal 0 -1 0
    outer loop
      vertex -0.18815 1.79014 -0.109999
      vertex 0.18815 1.79014 -5.72205e-07
      vertex -0.18815 1.79014 -5.72205e-07
    endloop
  endfacet
  facet normal 0 -1 -0
    outer loop
      vertex 0.18815 1.79014 -5.72205e-07
      vertex -0.18815 1.79014 -0.109999
      vertex 0.18815 1.79014 -0.109999
    endloop
  endfacet
  facet normal 0.951057 -0.309016 0
    outer loop
      vertex -1.76066 0.374241 -5.72205e-07
      vertex -1.64438 0.732125 -0.109999
      vertex -1.64438 0.732125 -5.72205e-07
    endloop
  endfacet
  facet normal 0.951057 -0.309016 0
    outer loop
      vertex -1.64438 0.732125 -0.109999
      vertex -1.76066 0.374241 -5.72205e-07
      vertex -1.76066 0.374241 -0.109999
    endloop
  endfacet
  facet normal 0.743144 -0.669131 0
    outer loop
      vertex -1.45623 1.05801 -5.72205e-07
      vertex -1.20443 1.33766 -0.109999
      vertex -1.20443 1.33766 -5.72205e-07
    endloop
  endfacet
  facet normal 0.743144 -0.669131 0
    outer loop
      vertex -1.20443 1.33766 -0.109999
      vertex -1.45623 1.05801 -5.72205e-07
      vertex -1.45623 1.05801 -0.109999
    endloop
  endfacet
  facet normal -0.743144 -0.669131 0
    outer loop
      vertex 1.45623 1.05801 -0.109999
      vertex 1.20443 1.33766 -5.72205e-07
      vertex 1.20443 1.33766 -0.109999
    endloop
  endfacet
  facet normal -0.743144 -0.669131 0
    outer loop
      vertex 1.20443 1.33766 -5.72205e-07
      vertex 1.45623 1.05801 -0.109999
      vertex 1.45623 1.05801 -5.72205e-07
    endloop
  endfacet
  facet normal 0.587787 -0.809016 0
    outer loop
      vertex -1.20443 1.33766 -0.109999
      vertex -0.9 1.55885 -5.72205e-07
      vertex -1.20443 1.33766 -5.72205e-07
    endloop
  endfacet
  facet normal 0.587787 -0.809016 0
    outer loop
      vertex -0.9 1.55885 -5.72205e-07
      vertex -1.20443 1.33766 -0.109999
      vertex -0.9 1.55885 -0.109999
    endloop
  endfacet
  facet normal -0.726611 0.0763695 0.682792
    outer loop
      vertex -3.3611 0.714422 -5.72205e-07
      vertex -4 0 -0.6
      vertex -3.43618 0 -5.72205e-07
    endloop
  endfacet
  facet normal 0.726611 0.0763695 0.682792
    outer loop
      vertex 4 0 -0.6
      vertex 3.3611 0.714422 -5.72205e-07
      vertex 3.43618 0 -5.72205e-07
    endloop
  endfacet
  facet normal 0.726611 0.0763703 0.682791
    outer loop
      vertex 3.91259 0.831646 -0.6
      vertex 3.3611 0.714422 -5.72205e-07
      vertex 4 0 -0.6
    endloop
  endfacet
  facet normal -0.151903 -0.714647 0.682792
    outer loop
      vertex -0.359179 -3.41736 -5.72205e-07
      vertex -1.06184 -3.26801 -5.72205e-07
      vertex -0.418114 -3.97809 -0.6
    endloop
  endfacet
  facet normal 0.694855 0.225772 0.682791
    outer loop
      vertex 3.65418 1.62695 -0.6
      vertex 3.13911 1.39762 -5.72205e-07
      vertex 3.91259 0.831646 -0.6
    endloop
  endfacet
  facet normal 0.63273 0.365307 0.682791
    outer loop
      vertex 3.23607 2.35114 -0.6
      vertex 3.13911 1.39762 -5.72205e-07
      vertex 3.65418 1.62695 -0.6
    endloop
  endfacet
  facet normal -0.726611 -0.0763703 0.682791
    outer loop
      vertex -3.3611 -0.714422 -5.72205e-07
      vertex -4 0 -0.6
      vertex -3.91259 -0.831646 -0.6
    endloop
  endfacet
  facet normal 0.694855 -0.225772 0.682791
    outer loop
      vertex 3.3611 -0.714422 -5.72205e-07
      vertex 3.13911 -1.39762 -5.72205e-07
      vertex 3.91259 -0.831646 -0.6
    endloop
  endfacet
  facet normal 0 0.730613 0.682792
    outer loop
      vertex 0.418114 3.97809 -0.6
      vertex -0.359179 3.41736 -5.72205e-07
      vertex 0.359179 3.41736 -5.72205e-07
    endloop
  endfacet
  facet normal 0 0.730613 0.682792
    outer loop
      vertex -0.359179 3.41736 -5.72205e-07
      vertex 0.418114 3.97809 -0.6
      vertex -0.418114 3.97809 -0.6
    endloop
  endfacet
  facet normal 0.297167 0.667448 0.682792
    outer loop
      vertex 1.23607 3.80423 -0.6
      vertex 1.06184 3.26801 -5.72205e-07
      vertex 1.71809 2.97582 -5.72205e-07
    endloop
  endfacet
  facet normal -0.542951 0.488876 0.682792
    outer loop
      vertex -2.67652 2.97258 -0.6
      vertex -2.77993 2.01974 -5.72205e-07
      vertex -2.29926 2.55358 -5.72205e-07
    endloop
  endfacet
  facet normal -0.542951 0.488876 0.682792
    outer loop
      vertex -2.67652 2.97258 -0.6
      vertex -3.23607 2.35114 -0.6
      vertex -2.77993 2.01974 -5.72205e-07
    endloop
  endfacet
  facet normal -0.694855 -0.225772 0.682791
    outer loop
      vertex -3.13911 -1.39762 -5.72205e-07
      vertex -3.91259 -0.831646 -0.6
      vertex -3.65418 -1.62695 -0.6
    endloop
  endfacet
  facet normal 0 0 -1
    outer loop
      vertex 3.91259 -0.831646 -0.6
      vertex 3.91259 0.831646 -0.6
      vertex 4 0 -0.6
    endloop
  endfacet
  facet normal 0 0 -1
    outer loop
      vertex 3.65418 -1.62695 -0.6
      vertex 3.91259 0.831646 -0.6
      vertex 3.91259 -0.831646 -0.6
    endloop
  endfacet
  facet normal 0 0 -1
    outer loop
      vertex 3.65418 -1.62695 -0.6
      vertex 3.65418 1.62695 -0.6
      vertex 3.91259 0.831646 -0.6
    endloop
  endfacet
  facet normal 0 0 -1
    outer loop
      vertex 3.23607 -2.35114 -0.6
      vertex 3.65418 1.62695 -0.6
      vertex 3.65418 -1.62695 -0.6
    endloop
  endfacet
  facet normal 0 0 -1
    outer loop
      vertex 3.23607 -2.35114 -0.6
      vertex 3.23607 2.35114 -0.6
      vertex 3.65418 1.62695 -0.6
    endloop
  endfacet
  facet normal 0 0 -1
    outer loop
      vertex 2.67652 -2.97258 -0.6
      vertex 3.23607 2.35114 -0.6
      vertex 3.23607 -2.35114 -0.6
    endloop
  endfacet
  facet normal 0 0 -1
    outer loop
      vertex 2.67652 -2.97258 -0.6
      vertex 2.67652 2.97258 -0.6
      vertex 3.23607 2.35114 -0.6
    endloop
  endfacet
  facet normal 0 0 -1
    outer loop
      vertex 2 -3.4641 -0.6
      vertex 2.67652 2.97258 -0.6
      vertex 2.67652 -2.97258 -0.6
    endloop
  endfacet
  facet normal 0 0 -1
    outer loop
      vertex 2 -3.4641 -0.6
      vertex 2 3.4641 -0.6
      vertex 2.67652 2.97258 -0.6
    endloop
  endfacet
  facet normal 0 0 -1
    outer loop
      vertex 1.23607 -3.80423 -0.6
      vertex 2 3.4641 -0.6
      vertex 2 -3.4641 -0.6
    endloop
  endfacet
  facet normal 0 0 -1
    outer loop
      vertex 1.23607 -3.80423 -0.6
      vertex 1.23607 3.80423 -0.6
      vertex 2 3.4641 -0.6
    endloop
  endfacet
  facet normal 0 0 -1
    outer loop
      vertex 0.418114 -3.97809 -0.6
      vertex 1.23607 3.80423 -0.6
      vertex 1.23607 -3.80423 -0.6
    endloop
  endfacet
  facet normal 0 0 -1
    outer loop
      vertex 0.418114 -3.97809 -0.6
      vertex 0.418114 3.97809 -0.6
      vertex 1.23607 3.80423 -0.6
    endloop
  endfacet
  facet normal 0 0 -1
    outer loop
      vertex -0.418114 -3.97809 -0.6
      vertex 0.418114 3.97809 -0.6
      vertex 0.418114 -3.97809 -0.6
    endloop
  endfacet
  facet normal 0 0 -1
    outer loop
      vertex -0.418114 -3.97809 -0.6
      vertex -0.418114 3.97809 -0.6
      vertex 0.418114 3.97809 -0.6
    endloop
  endfacet
  facet normal 0 0 -1
    outer loop
      vertex -1.23607 -3.80423 -0.6
      vertex -0.418114 3.97809 -0.6
      vertex -0.418114 -3.97809 -0.6
    endloop
  endfacet
  facet normal 0 0 -1
    outer loop
      vertex -1.23607 -3.80423 -0.6
      vertex -1.23607 3.80423 -0.6
      vertex -0.418114 3.97809 -0.6
    endloop
  endfacet
  facet normal 0 0 -1
    outer loop
      vertex -1.23607 -3.80423 -0.6
      vertex -2 3.4641 -0.6
      vertex -1.23607 3.80423 -0.6
    endloop
  endfacet
  facet normal 0 0 -1
    outer loop
      vertex -2 -3.4641 -0.6
      vertex -2 3.4641 -0.6
      vertex -1.23607 -3.80423 -0.6
    endloop
  endfacet
  facet normal 0 0 -1
    outer loop
      vertex -2.67652 -2.97258 -0.6
      vertex -2 3.4641 -0.6
      vertex -2 -3.4641 -0.6
    endloop
  endfacet
  facet normal 0 0 -1
    outer loop
      vertex -2.67652 -2.97258 -0.6
      vertex -2.67652 2.97258 -0.6
      vertex -2 3.4641 -0.6
    endloop
  endfacet
  facet normal 0 0 -1
    outer loop
      vertex -3.23607 -2.35114 -0.6
      vertex -2.67652 2.97258 -0.6
      vertex -2.67652 -2.97258 -0.6
    endloop
  endfacet
  facet normal 0 0 -1
    outer loop
      vertex -3.23607 -2.35114 -0.6
      vertex -3.23607 2.35114 -0.6
      vertex -2.67652 2.97258 -0.6
    endloop
  endfacet
  facet normal 0 0 -1
    outer loop
      vertex -3.65418 -1.62695 -0.6
      vertex -3.23607 2.35114 -0.6
      vertex -3.23607 -2.35114 -0.6
    endloop
  endfacet
  facet normal 0 0 -1
    outer loop
      vertex -3.65418 -1.62695 -0.6
      vertex -3.65418 1.62695 -0.6
      vertex -3.23607 2.35114 -0.6
    endloop
  endfacet
  facet normal 0 0 -1
    outer loop
      vertex -3.91259 -0.831646 -0.6
      vertex -3.65418 1.62695 -0.6
      vertex -3.65418 -1.62695 -0.6
    endloop
  endfacet
  facet normal 0 0 -1
    outer loop
      vertex -3.91259 -0.831646 -0.6
      vertex -3.91259 0.831646 -0.6
      vertex -3.65418 1.62695 -0.6
    endloop
  endfacet
  facet normal 0 -0 -1
    outer loop
      vertex -3.91259 0.831646 -0.6
      vertex -3.91259 -0.831646 -0.6
      vertex -4 0 -0.6
    endloop
  endfacet
  facet normal -0.297168 -0.667448 0.682791
    outer loop
      vertex -1.71809 -2.97582 -5.72205e-07
      vertex -2 -3.4641 -0.6
      vertex -1.23607 -3.80423 -0.6
    endloop
  endfacet
  facet normal 0.429444 -0.591078 0.682792
    outer loop
      vertex 2.29926 -2.55358 -5.72205e-07
      vertex 1.71809 -2.97582 -5.72205e-07
      vertex 2.67652 -2.97258 -0.6
    endloop
  endfacet
  facet normal 0.542951 0.488876 0.682792
    outer loop
      vertex 3.23607 2.35114 -0.6
      vertex 2.67652 2.97258 -0.6
      vertex 2.77993 2.01974 -5.72205e-07
    endloop
  endfacet
  facet normal 0.632729 0.365307 0.682792
    outer loop
      vertex 3.23607 2.35114 -0.6
      vertex 2.77993 2.01974 -5.72205e-07
      vertex 3.13911 1.39762 -5.72205e-07
    endloop
  endfacet
  facet normal 0.429444 0.591078 0.682792
    outer loop
      vertex 2.67652 2.97258 -0.6
      vertex 1.71809 2.97582 -5.72205e-07
      vertex 2.29926 2.55358 -5.72205e-07
    endloop
  endfacet
  facet normal -0 0 1
    outer loop
      vertex 1.8 1.22464e-17 -5.72205e-07
      vertex 3.43618 0 -5.72205e-07
      vertex 3.3611 0.714422 -5.72205e-07
    endloop
  endfacet
  facet normal 0 0 1
    outer loop
      vertex 1.76066 0.374241 -5.72205e-07
      vertex 3.3611 0.714422 -5.72205e-07
      vertex 3.13911 1.39762 -5.72205e-07
    endloop
  endfacet
  facet normal 0 0 1
    outer loop
      vertex 3.43618 0 -5.72205e-07
      vertex 1.8 1.22464e-17 -5.72205e-07
      vertex 3.3611 -0.714422 -5.72205e-07
    endloop
  endfacet
  facet normal 0 0 1
    outer loop
      vertex 1.64438 0.732125 -5.72205e-07
      vertex 3.13911 1.39762 -5.72205e-07
      vertex 2.77993 2.01974 -5.72205e-07
    endloop
  endfacet
  facet normal -0 0 1
    outer loop
      vertex 1.76066 -0.374241 -5.72205e-07
      vertex 3.3611 -0.714422 -5.72205e-07
      vertex 1.8 1.22464e-17 -5.72205e-07
    endloop
  endfacet
  facet normal 0 0 1
    outer loop
      vertex 1.45623 1.05801 -5.72205e-07
      vertex 2.77993 2.01974 -5.72205e-07
      vertex 2.29926 2.55358 -5.72205e-07
    endloop
  endfacet
  facet normal 0 0 1
    outer loop
      vertex 3.3611 -0.714422 -5.72205e-07
      vertex 1.76066 -0.374241 -5.72205e-07
      vertex 3.13911 -1.39762 -5.72205e-07
    endloop
  endfacet
  facet normal -0 0 1
    outer loop
      vertex 1.64438 -0.732125 -5.72205e-07
      vertex 3.13911 -1.39762 -5.72205e-07
      vertex 1.76066 -0.374241 -5.72205e-07
    endloop
  endfacet
  facet normal 0 0 1
    outer loop
      vertex 3.3611 0.714422 -5.72205e-07
      vertex 1.76066 0.374241 -5.72205e-07
      vertex 1.8 1.22464e-17 -5.72205e-07
    endloop
  endfacet
  facet normal 0 0 1
    outer loop
      vertex 1.20443 1.33766 -5.72205e-07
      vertex 2.29926 2.55358 -5.72205e-07
      vertex 1.71809 2.97582 -5.72205e-07
    endloop
  endfacet
  facet normal 0 0 1
    outer loop
      vertex 3.13911 1.39762 -5.72205e-07
      vertex 1.64438 0.732125 -5.72205e-07
      vertex 1.76066 0.374241 -5.72205e-07
    endloop
  endfacet
  facet normal 0 0 1
    outer loop
      vertex 2.77993 2.01974 -5.72205e-07
      vertex 1.45623 1.05801 -5.72205e-07
      vertex 1.64438 0.732125 -5.72205e-07
    endloop
  endfacet
  facet normal 0 0 1
    outer loop
      vertex 2.29926 2.55358 -5.72205e-07
      vertex 1.20443 1.33766 -5.72205e-07
      vertex 1.45623 1.05801 -5.72205e-07
    endloop
  endfacet
  facet normal 0 0 1
    outer loop
      vertex 0.9 1.55885 -5.72205e-07
      vertex 1.71809 2.97582 -5.72205e-07
      vertex 1.06184 3.26801 -5.72205e-07
    endloop
  endfacet
  facet normal 0 0 1
    outer loop
      vertex 1.71809 2.97582 -5.72205e-07
      vertex 0.9 1.55885 -5.72205e-07
      vertex 1.20443 1.33766 -5.72205e-07
    endloop
  endfacet
  facet normal 0 0 1
    outer loop
      vertex 1.06184 3.26801 -5.72205e-07
      vertex 0.556231 1.7119 -5.72205e-07
      vertex 0.9 1.55885 -5.72205e-07
    endloop
  endfacet
  facet normal 0 0 1
    outer loop
      vertex 0.359179 3.41736 -5.72205e-07
      vertex 0.556231 1.7119 -5.72205e-07
      vertex 1.06184 3.26801 -5.72205e-07
    endloop
  endfacet
  facet normal 0 0 1
    outer loop
      vertex 0.359179 3.41736 -5.72205e-07
      vertex 0.18815 1.79014 -5.72205e-07
      vertex 0.556231 1.7119 -5.72205e-07
    endloop
  endfacet
  facet normal 0 0 1
    outer loop
      vertex 0.359179 3.41736 -5.72205e-07
      vertex -0.18815 1.79014 -5.72205e-07
      vertex 0.18815 1.79014 -5.72205e-07
    endloop
  endfacet
  facet normal -0 0 1
    outer loop
      vertex -0.359179 3.41736 -5.72205e-07
      vertex -0.18815 1.79014 -5.72205e-07
      vertex 0.359179 3.41736 -5.72205e-07
    endloop
  endfacet
  facet normal 0 0 1
    outer loop
      vertex -0.359179 3.41736 -5.72205e-07
      vertex -0.556231 1.7119 -5.72205e-07
      vertex -0.18815 1.79014 -5.72205e-07
    endloop
  endfacet
  facet normal -0 0 1
    outer loop
      vertex -1.06184 3.26801 -5.72205e-07
      vertex -0.556231 1.7119 -5.72205e-07
      vertex -0.359179 3.41736 -5.72205e-07
    endloop
  endfacet
  facet normal 0 0 1
    outer loop
      vertex -0.556231 1.7119 -5.72205e-07
      vertex -1.06184 3.26801 -5.72205e-07
      vertex -0.9 1.55885 -5.72205e-07
    endloop
  endfacet
  facet normal -0 0 1
    outer loop
      vertex -1.71809 2.97582 -5.72205e-07
      vertex -0.9 1.55885 -5.72205e-07
      vertex -1.06184 3.26801 -5.72205e-07
    endloop
  endfacet
  facet normal 0 0 1
    outer loop
      vertex -0.9 1.55885 -5.72205e-07
      vertex -1.71809 2.97582 -5.72205e-07
      vertex -1.20443 1.33766 -5.72205e-07
    endloop
  endfacet
  facet normal -0 0 1
    outer loop
      vertex -2.29926 2.55358 -5.72205e-07
      vertex -1.20443 1.33766 -5.72205e-07
      vertex -1.71809 2.97582 -5.72205e-07
    endloop
  endfacet
  facet normal 0 0 1
    outer loop
      vertex -1.20443 1.33766 -5.72205e-07
      vertex -2.29926 2.55358 -5.72205e-07
      vertex -1.45623 1.05801 -5.72205e-07
    endloop
  endfacet
  facet normal -0 0 1
    outer loop
      vertex -2.77993 2.01974 -5.72205e-07
      vertex -1.45623 1.05801 -5.72205e-07
      vertex -2.29926 2.55358 -5.72205e-07
    endloop
  endfacet
  facet normal 0 0 1
    outer loop
      vertex -1.45623 1.05801 -5.72205e-07
      vertex -2.77993 2.01974 -5.72205e-07
      vertex -1.64438 0.732125 -5.72205e-07
    endloop
  endfacet
  facet normal -0 0 1
    outer loop
      vertex -3.13911 1.39762 -5.72205e-07
      vertex -1.64438 0.732125 -5.72205e-07
      vertex -2.77993 2.01974 -5.72205e-07
    endloop
  endfacet
  facet normal 0 0 1
    outer loop
      vertex 3.13911 -1.39762 -5.72205e-07
      vertex 1.64438 -0.732125 -5.72205e-07
      vertex 2.77993 -2.01974 -5.72205e-07
    endloop
  endfacet
  facet normal -0 0 1
    outer loop
      vertex 1.45623 -1.05801 -5.72205e-07
      vertex 2.77993 -2.01974 -5.72205e-07
      vertex 1.64438 -0.732125 -5.72205e-07
    endloop
  endfacet
  facet normal 0 0 1
    outer loop
      vertex 2.77993 -2.01974 -5.72205e-07
      vertex 1.45623 -1.05801 -5.72205e-07
      vertex 2.29926 -2.55358 -5.72205e-07
    endloop
  endfacet
  facet normal -0 0 1
    outer loop
      vertex 1.20443 -1.33766 -5.72205e-07
      vertex 2.29926 -2.55358 -5.72205e-07
      vertex 1.45623 -1.05801 -5.72205e-07
    endloop
  endfacet
  facet normal 0 0 1
    outer loop
      vertex 2.29926 -2.55358 -5.72205e-07
      vertex 1.20443 -1.33766 -5.72205e-07
      vertex 1.71809 -2.97582 -5.72205e-07
    endloop
  endfacet
  facet normal -0 0 1
    outer loop
      vertex 0.9 -1.55885 -5.72205e-07
      vertex 1.71809 -2.97582 -5.72205e-07
      vertex 1.20443 -1.33766 -5.72205e-07
    endloop
  endfacet
  facet normal 0 0 1
    outer loop
      vertex 1.71809 -2.97582 -5.72205e-07
      vertex 0.9 -1.55885 -5.72205e-07
      vertex 1.06184 -3.26801 -5.72205e-07
    endloop
  endfacet
  facet normal -0 0 1
    outer loop
      vertex 0.556231 -1.7119 -5.72205e-07
      vertex 1.06184 -3.26801 -5.72205e-07
      vertex 0.9 -1.55885 -5.72205e-07
    endloop
  endfacet
  facet normal 0 0 1
    outer loop
      vertex 0.556231 -1.7119 -5.72205e-07
      vertex 0.359179 -3.41736 -5.72205e-07
      vertex 1.06184 -3.26801 -5.72205e-07
    endloop
  endfacet
  facet normal -0 0 1
    outer loop
      vertex 0.18815 -1.79014 -5.72205e-07
      vertex 0.359179 -3.41736 -5.72205e-07
      vertex 0.556231 -1.7119 -5.72205e-07
    endloop
  endfacet
  facet normal -0 0 1
    outer loop
      vertex -0.18815 -1.79014 -5.72205e-07
      vertex 0.359179 -3.41736 -5.72205e-07
      vertex 0.18815 -1.79014 -5.72205e-07
    endloop
  endfacet
  facet normal 0 0 1
    outer loop
      vertex -0.18815 -1.79014 -5.72205e-07
      vertex -0.359179 -3.41736 -5.72205e-07
      vertex 0.359179 -3.41736 -5.72205e-07
    endloop
  endfacet
  facet normal 0 0 1
    outer loop
      vertex -0.556231 -1.7119 -5.72205e-07
      vertex -0.359179 -3.41736 -5.72205e-07
      vertex -0.18815 -1.79014 -5.72205e-07
    endloop
  endfacet
  facet normal 0 0 1
    outer loop
      vertex -1.06184 -3.26801 -5.72205e-07
      vertex -0.556231 -1.7119 -5.72205e-07
      vertex -0.9 -1.55885 -5.72205e-07
    endloop
  endfacet
  facet normal 0 0 1
    outer loop
      vertex -0.556231 -1.7119 -5.72205e-07
      vertex -1.06184 -3.26801 -5.72205e-07
      vertex -0.359179 -3.41736 -5.72205e-07
    endloop
  endfacet
  facet normal 0 0 1
    outer loop
      vertex -1.71809 -2.97582 -5.72205e-07
      vertex -0.9 -1.55885 -5.72205e-07
      vertex -1.20443 -1.33766 -5.72205e-07
    endloop
  endfacet
  facet normal 0 0 1
    outer loop
      vertex -2.29926 -2.55358 -5.72205e-07
      vertex -1.20443 -1.33766 -5.72205e-07
      vertex -1.45623 -1.05801 -5.72205e-07
    endloop
  endfacet
  facet normal 0 0 1
    outer loop
      vertex -2.77993 -2.01974 -5.72205e-07
      vertex -1.45623 -1.05801 -5.72205e-07
      vertex -1.64438 -0.732125 -5.72205e-07
    endloop
  endfacet
  facet normal 0 0 1
    outer loop
      vertex -0.9 -1.55885 -5.72205e-07
      vertex -1.71809 -2.97582 -5.72205e-07
      vertex -1.06184 -3.26801 -5.72205e-07
    endloop
  endfacet
  facet normal 0 0 1
    outer loop
      vertex -3.13911 -1.39762 -5.72205e-07
      vertex -1.64438 -0.732125 -5.72205e-07
      vertex -1.76066 -0.374241 -5.72205e-07
    endloop
  endfacet
  facet normal 0 0 1
    outer loop
      vertex -3.3611 -0.714422 -5.72205e-07
      vertex -1.76066 -0.374241 -5.72205e-07
      vertex -1.8 1.22464e-17 -5.72205e-07
    endloop
  endfacet
  facet normal 0 0 1
    outer loop
      vertex -1.64438 0.732125 -5.72205e-07
      vertex -3.13911 1.39762 -5.72205e-07
      vertex -1.76066 0.374241 -5.72205e-07
    endloop
  endfacet
  facet normal 0 0 1
    outer loop
      vertex -1.20443 -1.33766 -5.72205e-07
      vertex -2.29926 -2.55358 -5.72205e-07
      vertex -1.71809 -2.97582 -5.72205e-07
    endloop
  endfacet
  facet normal -0 0 1
    outer loop
      vertex -3.3611 0.714422 -5.72205e-07
      vertex -1.76066 0.374241 -5.72205e-07
      vertex -3.13911 1.39762 -5.72205e-07
    endloop
  endfacet
  facet normal 0 0 1
    outer loop
      vertex -1.45623 -1.05801 -5.72205e-07
      vertex -2.77993 -2.01974 -5.72205e-07
      vertex -2.29926 -2.55358 -5.72205e-07
    endloop
  endfacet
  facet normal 0 0 1
    outer loop
      vertex -1.76066 0.374241 -5.72205e-07
      vertex -3.3611 0.714422 -5.72205e-07
      vertex -1.8 1.22464e-17 -5.72205e-07
    endloop
  endfacet
  facet normal 0 0 1
    outer loop
      vertex -1.64438 -0.732125 -5.72205e-07
      vertex -3.13911 -1.39762 -5.72205e-07
      vertex -2.77993 -2.01974 -5.72205e-07
    endloop
  endfacet
  facet normal 0 0 1
    outer loop
      vertex -3.43618 0 -5.72205e-07
      vertex -1.8 1.22464e-17 -5.72205e-07
      vertex -3.3611 0.714422 -5.72205e-07
    endloop
  endfacet
  facet normal 0 0 1
    outer loop
      vertex -1.76066 -0.374241 -5.72205e-07
      vertex -3.3611 -0.714422 -5.72205e-07
      vertex -3.13911 -1.39762 -5.72205e-07
    endloop
  endfacet
  facet normal 0 0 1
    outer loop
      vertex -1.8 1.22464e-17 -5.72205e-07
      vertex -3.43618 0 -5.72205e-07
      vertex -3.3611 -0.714422 -5.72205e-07
    endloop
  endfacet
  facet normal -0.694855 0.225772 0.682791
    outer loop
      vertex -3.13911 1.39762 -5.72205e-07
      vertex -3.91259 0.831646 -0.6
      vertex -3.3611 0.714422 -5.72205e-07
    endloop
  endfacet
  facet normal -0.63273 0.365307 0.682791
    outer loop
      vertex -3.23607 2.35114 -0.6
      vertex -3.65418 1.62695 -0.6
      vertex -3.13911 1.39762 -5.72205e-07
    endloop
  endfacet
  facet normal -0.63273 -0.365307 0.682791
    outer loop
      vertex -3.13911 -1.39762 -5.72205e-07
      vertex -3.65418 -1.62695 -0.6
      vertex -3.23607 -2.35114 -0.6
    endloop
  endfacet
  facet normal -0.694855 -0.225772 0.682791
    outer loop
      vertex -3.3611 -0.714422 -5.72205e-07
      vertex -3.91259 -0.831646 -0.6
      vertex -3.13911 -1.39762 -5.72205e-07
    endloop
  endfacet
  facet normal -0.632729 -0.365307 0.682792
    outer loop
      vertex -3.13911 -1.39762 -5.72205e-07
      vertex -3.23607 -2.35114 -0.6
      vertex -2.77993 -2.01974 -5.72205e-07
    endloop
  endfacet
  facet normal 0 -0.730613 0.682792
    outer loop
      vertex -0.418114 -3.97809 -0.6
      vertex 0.359179 -3.41736 -5.72205e-07
      vertex -0.359179 -3.41736 -5.72205e-07
    endloop
  endfacet
  facet normal 0 -0.730613 0.682792
    outer loop
      vertex 0.359179 -3.41736 -5.72205e-07
      vertex -0.418114 -3.97809 -0.6
      vertex 0.418114 -3.97809 -0.6
    endloop
  endfacet
  facet normal 0.151903 -0.714648 0.682792
    outer loop
      vertex 1.06184 -3.26801 -5.72205e-07
      vertex 0.418114 -3.97809 -0.6
      vertex 1.23607 -3.80423 -0.6
    endloop
  endfacet
  facet normal 0.694855 -0.225772 0.682791
    outer loop
      vertex 3.91259 -0.831646 -0.6
      vertex 3.13911 -1.39762 -5.72205e-07
      vertex 3.65418 -1.62695 -0.6
    endloop
  endfacet
  facet normal 0.632729 -0.365307 0.682792
    outer loop
      vertex 3.13911 -1.39762 -5.72205e-07
      vertex 2.77993 -2.01974 -5.72205e-07
      vertex 3.23607 -2.35114 -0.6
    endloop
  endfacet
  facet normal 0.726611 -0.0763703 0.682791
    outer loop
      vertex 4 0 -0.6
      vertex 3.3611 -0.714422 -5.72205e-07
      vertex 3.91259 -0.831646 -0.6
    endloop
  endfacet
  facet normal 0.726611 -0.0763695 0.682792
    outer loop
      vertex 3.43618 0 -5.72205e-07
      vertex 3.3611 -0.714422 -5.72205e-07
      vertex 4 0 -0.6
    endloop
  endfacet
  facet normal 0.694855 0.225772 0.682791
    outer loop
      vertex 3.91259 0.831646 -0.6
      vertex 3.13911 1.39762 -5.72205e-07
      vertex 3.3611 0.714422 -5.72205e-07
    endloop
  endfacet
  facet normal 0.542951 0.488876 0.682792
    outer loop
      vertex 2.67652 2.97258 -0.6
      vertex 2.29926 2.55358 -5.72205e-07
      vertex 2.77993 2.01974 -5.72205e-07
    endloop
  endfacet
  facet normal 0.297168 0.667448 0.682791
    outer loop
      vertex 2 3.4641 -0.6
      vertex 1.23607 3.80423 -0.6
      vertex 1.71809 2.97582 -5.72205e-07
    endloop
  endfacet
  facet normal 0.429444 0.591079 0.682792
    outer loop
      vertex 2 3.4641 -0.6
      vertex 1.71809 2.97582 -5.72205e-07
      vertex 2.67652 2.97258 -0.6
    endloop
  endfacet
  facet normal -0.694855 0.225772 0.682791
    outer loop
      vertex -3.65418 1.62695 -0.6
      vertex -3.91259 0.831646 -0.6
      vertex -3.13911 1.39762 -5.72205e-07
    endloop
  endfacet
  facet normal -0.726611 0.0763703 0.682791
    outer loop
      vertex -3.91259 0.831646 -0.6
      vertex -4 0 -0.6
      vertex -3.3611 0.714422 -5.72205e-07
    endloop
  endfacet
  facet normal -0.297168 0.667448 0.682791
    outer loop
      vertex -1.23607 3.80423 -0.6
      vertex -2 3.4641 -0.6
      vertex -1.71809 2.97582 -5.72205e-07
    endloop
  endfacet
  facet normal -0.151903 0.714647 0.682792
    outer loop
      vertex -0.418114 3.97809 -0.6
      vertex -1.06184 3.26801 -5.72205e-07
      vertex -0.359179 3.41736 -5.72205e-07
    endloop
  endfacet
  facet normal -0.726611 -0.0763695 0.682792
    outer loop
      vertex -3.43618 0 -5.72205e-07
      vertex -4 0 -0.6
      vertex -3.3611 -0.714422 -5.72205e-07
    endloop
  endfacet
  facet normal -0.297167 -0.667448 0.682792
    outer loop
      vertex -1.06184 -3.26801 -5.72205e-07
      vertex -1.71809 -2.97582 -5.72205e-07
      vertex -1.23607 -3.80423 -0.6
    endloop
  endfacet
  facet normal -0.151903 -0.714648 0.682792
    outer loop
      vertex -1.06184 -3.26801 -5.72205e-07
      vertex -1.23607 -3.80423 -0.6
      vertex -0.418114 -3.97809 -0.6
    endloop
  endfacet
  facet normal -0.542951 -0.488876 0.682792
    outer loop
      vertex -2.29926 -2.55358 -5.72205e-07
      vertex -2.77993 -2.01974 -5.72205e-07
      vertex -2.67652 -2.97258 -0.6
    endloop
  endfacet
  facet normal -0.542951 -0.488876 0.682792
    outer loop
      vertex -2.77993 -2.01974 -5.72205e-07
      vertex -3.23607 -2.35114 -0.6
      vertex -2.67652 -2.97258 -0.6
    endloop
  endfacet
  facet normal 0.297167 -0.667448 0.682792
    outer loop
      vertex 1.71809 -2.97582 -5.72205e-07
      vertex 1.06184 -3.26801 -5.72205e-07
      vertex 1.23607 -3.80423 -0.6
    endloop
  endfacet
  facet normal 0.151903 -0.714647 0.682792
    outer loop
      vertex 1.06184 -3.26801 -5.72205e-07
      vertex 0.359179 -3.41736 -5.72205e-07
      vertex 0.418114 -3.97809 -0.6
    endloop
  endfacet
  facet normal 0.542951 -0.488876 0.682792
    outer loop
      vertex 2.77993 -2.01974 -5.72205e-07
      vertex 2.67652 -2.97258 -0.6
      vertex 3.23607 -2.35114 -0.6
    endloop
  endfacet
  facet normal 0.63273 -0.365307 0.682791
    outer loop
      vertex 3.65418 -1.62695 -0.6
      vertex 3.13911 -1.39762 -5.72205e-07
      vertex 3.23607 -2.35114 -0.6
    endloop
  endfacet
  facet normal 0.151903 0.714648 0.682792
    outer loop
      vertex 1.23607 3.80423 -0.6
      vertex 0.418114 3.97809 -0.6
      vertex 1.06184 3.26801 -5.72205e-07
    endloop
  endfacet
  facet normal -0.632729 0.365307 0.682792
    outer loop
      vertex -2.77993 2.01974 -5.72205e-07
      vertex -3.23607 2.35114 -0.6
      vertex -3.13911 1.39762 -5.72205e-07
    endloop
  endfacet
  facet normal -0.297167 0.667448 0.682792
    outer loop
      vertex -1.23607 3.80423 -0.6
      vertex -1.71809 2.97582 -5.72205e-07
      vertex -1.06184 3.26801 -5.72205e-07
    endloop
  endfacet
  facet normal -0.151903 0.714648 0.682792
    outer loop
      vertex -0.418114 3.97809 -0.6
      vertex -1.23607 3.80423 -0.6
      vertex -1.06184 3.26801 -5.72205e-07
    endloop
  endfacet
  facet normal -0.429443 0.591079 0.682791
    outer loop
      vertex -2 3.4641 -0.6
      vertex -2.67652 2.97258 -0.6
      vertex -1.71809 2.97582 -5.72205e-07
    endloop
  endfacet
  facet normal -0.429444 0.591078 0.682792
    outer loop
      vertex -1.71809 2.97582 -5.72205e-07
      vertex -2.67652 2.97258 -0.6
      vertex -2.29926 2.55358 -5.72205e-07
    endloop
  endfacet
  facet normal -0.429444 -0.591078 0.682792
    outer loop
      vertex -2.29926 -2.55358 -5.72205e-07
      vertex -2.67652 -2.97258 -0.6
      vertex -1.71809 -2.97582 -5.72205e-07
    endloop
  endfacet
  facet normal -0.429444 -0.591079 0.682792
    outer loop
      vertex -1.71809 -2.97582 -5.72205e-07
      vertex -2.67652 -2.97258 -0.6
      vertex -2 -3.4641 -0.6
    endloop
  endfacet
  facet normal 0.297168 -0.667448 0.682791
    outer loop
      vertex 1.71809 -2.97582 -5.72205e-07
      vertex 1.23607 -3.80423 -0.6
      vertex 2 -3.4641 -0.6
    endloop
  endfacet
  facet normal 0.429444 -0.591079 0.682792
    outer loop
      vertex 2.67652 -2.97258 -0.6
      vertex 1.71809 -2.97582 -5.72205e-07
      vertex 2 -3.4641 -0.6
    endloop
  endfacet
  facet normal 0.542951 -0.488876 0.682792
    outer loop
      vertex 2.77993 -2.01974 -5.72205e-07
      vertex 2.29926 -2.55358 -5.72205e-07
      vertex 2.67652 -2.97258 -0.6
    endloop
  endfacet
  facet normal 0.151903 0.714647 0.682792
    outer loop
      vertex 0.418114 3.97809 -0.6
      vertex 0.359179 3.41736 -5.72205e-07
      vertex 1.06184 3.26801 -5.72205e-07
    endloop
  endfacet
  facet normal -0.900967 -0.433888 0
    outer loop
      vertex 0.0999994 0 -0.300001
      vertex 0.0623484 0.0781822 -0.109999
      vertex 0.0623484 0.0781822 -0.300001
    endloop
  endfacet
  facet normal -0.900967 -0.433888 0
    outer loop
      vertex 0.0623484 0.0781822 -0.109999
      vertex 0.0999994 0 -0.300001
      vertex 0.0999994 0 -0.109999
    endloop
  endfacet
  facet normal 1 -0 0
    outer loop
      vertex -0.0900965 -0.0433884 -0.109999
      vertex -0.0900965 0.0433884 -0.300001
      vertex -0.0900965 0.0433884 -0.109999
    endloop
  endfacet
  facet normal 1 0 0
    outer loop
      vertex -0.0900965 0.0433884 -0.300001
      vertex -0.0900965 -0.0433884 -0.109999
      vertex -0.0900965 -0.0433884 -0.300001
    endloop
  endfacet
  facet normal 0.623488 -0.781833 0
    outer loop
      vertex -0.0900965 0.0433884 -0.300001
      vertex -0.0222521 0.0974922 -0.109999
      vertex -0.0900965 0.0433884 -0.109999
    endloop
  endfacet
  facet normal 0.623488 -0.781833 0
    outer loop
      vertex -0.0222521 0.0974922 -0.109999
      vertex -0.0900965 0.0433884 -0.300001
      vertex -0.0222521 0.0974922 -0.300001
    endloop
  endfacet
  facet normal -0.222526 -0.974927 0
    outer loop
      vertex -0.0222521 0.0974922 -0.300001
      vertex 0.0623484 0.0781822 -0.109999
      vertex -0.0222521 0.0974922 -0.109999
    endloop
  endfacet
  facet normal -0.222526 -0.974927 -0
    outer loop
      vertex 0.0623484 0.0781822 -0.109999
      vertex -0.0222521 0.0974922 -0.300001
      vertex 0.0623484 0.0781822 -0.300001
    endloop
  endfacet
  facet normal 0 0 1
    outer loop
      vertex 0.0623484 0.0781822 -0.300001
      vertex 0.0623484 -0.0781822 -0.300001
      vertex 0.0999994 0 -0.300001
    endloop
  endfacet
  facet normal 0 0 1
    outer loop
      vertex -0.0222521 0.0974922 -0.300001
      vertex 0.0623484 -0.0781822 -0.300001
      vertex 0.0623484 0.0781822 -0.300001
    endloop
  endfacet
  facet normal 0 0 1
    outer loop
      vertex -0.0222521 0.0974922 -0.300001
      vertex -0.0222521 -0.0974922 -0.300001
      vertex 0.0623484 -0.0781822 -0.300001
    endloop
  endfacet
  facet normal -0 0 1
    outer loop
      vertex -0.0900965 0.0433884 -0.300001
      vertex -0.0222521 -0.0974922 -0.300001
      vertex -0.0222521 0.0974922 -0.300001
    endloop
  endfacet
  facet normal 0 0 1
    outer loop
      vertex -0.0222521 -0.0974922 -0.300001
      vertex -0.0900965 0.0433884 -0.300001
      vertex -0.0900965 -0.0433884 -0.300001
    endloop
  endfacet
  facet normal -0.222526 0.974927 0
    outer loop
      vertex 0.0623484 -0.0781822 -0.300001
      vertex -0.0222521 -0.0974922 -0.109999
      vertex 0.0623484 -0.0781822 -0.109999
    endloop
  endfacet
  facet normal -0.222526 0.974927 0
    outer loop
      vertex -0.0222521 -0.0974922 -0.109999
      vertex 0.0623484 -0.0781822 -0.300001
      vertex -0.0222521 -0.0974922 -0.300001
    endloop
  endfacet
  facet normal 0.623488 0.781833 -0
    outer loop
      vertex -0.0222521 -0.0974922 -0.300001
      vertex -0.0900965 -0.0433884 -0.109999
      vertex -0.0222521 -0.0974922 -0.109999
    endloop
  endfacet
  facet normal 0.623488 0.781833 0
    outer loop
      vertex -0.0900965 -0.0433884 -0.109999
      vertex -0.0222521 -0.0974922 -0.300001
      vertex -0.0900965 -0.0433884 -0.300001
    endloop
  endfacet
  facet normal -0.900967 0.433888 0
    outer loop
      vertex 0.0623484 -0.0781822 -0.300001
      vertex 0.0999994 0 -0.109999
      vertex 0.0999994 0 -0.300001
    endloop
  endfacet
  facet normal -0.900967 0.433888 0
    outer loop
      vertex 0.0999994 0 -0.109999
      vertex 0.0623484 -0.0781822 -0.300001
      vertex 0.0623484 -0.0781822 -0.109999
    endloop
  endfacet
endsolid OpenSCAD_Model
