solid OpenSCAD_Model
  facet normal 0.866026 0.5 0
    outer loop
      vertex 1.37032 0.610105 -1.49433e-16
      vertex 1.21352 0.881678 -1.2
      vertex 1.21352 0.881678 -2.15949e-16
    endloop
  endfacet
  facet normal 0.866026 0.5 0
    outer loop
      vertex 1.21352 0.881678 -1.2
      vertex 1.37032 0.610105 -1.49433e-16
      vertex 1.37032 0.610105 -1.2
    endloop
  endfacet
  facet normal -0.994522 0.104529 0
    outer loop
      vertex -1.46722 0.311867 -1.2
      vertex -1.5 0 0
      vertex -1.46722 0.311867 -7.63853e-17
    endloop
  endfacet
  facet normal -0.994522 0.104529 -2.56023e-17
    outer loop
      vertex -1.5 0 0
      vertex -1.46722 0.311867 -1.2
      vertex -1.5 -2.93915e-16 -1.2
    endloop
  endfacet
  facet normal 0 1 -0
    outer loop
      vertex 0.156793 1.49178 -1.2
      vertex -0.156793 1.49178 -3.65381e-16
      vertex 0.156793 1.49178 -3.65381e-16
    endloop
  endfacet
  facet normal 0 1 0
    outer loop
      vertex -0.156793 1.49178 -3.65381e-16
      vertex 0.156793 1.49178 -1.2
      vertex -0.156793 1.49178 -1.2
    endloop
  endfacet
  facet normal 0.743145 0.669131 0
    outer loop
      vertex 1.21352 0.881678 -2.15949e-16
      vertex 1.0037 1.11472 -1.2
      vertex 1.0037 1.11472 -2.73027e-16
    endloop
  endfacet
  facet normal 0.743145 0.669131 0
    outer loop
      vertex 1.0037 1.11472 -1.2
      vertex 1.21352 0.881678 -2.15949e-16
      vertex 1.21352 0.881678 -1.2
    endloop
  endfacet
  facet normal 0.207912 0.978148 -0
    outer loop
      vertex 0.463525 1.42658 -1.2
      vertex 0.156793 1.49178 -3.65381e-16
      vertex 0.463525 1.42658 -3.49412e-16
    endloop
  endfacet
  facet normal 0.207912 0.978148 0
    outer loop
      vertex 0.156793 1.49178 -3.65381e-16
      vertex 0.463525 1.42658 -1.2
      vertex 0.156793 1.49178 -1.2
    endloop
  endfacet
  facet normal -0.406736 0.913546 0
    outer loop
      vertex -0.463525 1.42658 -1.2
      vertex -0.749999 1.29904 -3.18173e-16
      vertex -0.463525 1.42658 -3.49412e-16
    endloop
  endfacet
  facet normal -0.406736 0.913546 0
    outer loop
      vertex -0.749999 1.29904 -3.18173e-16
      vertex -0.463525 1.42658 -1.2
      vertex -0.749999 1.29904 -1.2
    endloop
  endfacet
  facet normal -0.951056 0.309018 0
    outer loop
      vertex -1.46722 0.311867 -1.2
      vertex -1.37032 0.610105 -1.49433e-16
      vertex -1.37032 0.610105 -1.2
    endloop
  endfacet
  facet normal -0.951056 0.309018 0
    outer loop
      vertex -1.37032 0.610105 -1.49433e-16
      vertex -1.46722 0.311867 -1.2
      vertex -1.46722 0.311867 -7.63853e-17
    endloop
  endfacet
  facet normal 0.994522 -0.104529 2.56022e-17
    outer loop
      vertex 1.46722 -0.311867 7.63853e-17
      vertex 1.5 -2.93915e-16 -1.2
      vertex 1.5 0 0
    endloop
  endfacet
  facet normal 0.994522 -0.104529 0
    outer loop
      vertex 1.5 -2.93915e-16 -1.2
      vertex 1.46722 -0.311867 7.63853e-17
      vertex 1.46722 -0.311867 -1.2
    endloop
  endfacet
  facet normal 0.207912 -0.978148 0
    outer loop
      vertex 0.156793 -1.49178 -1.2
      vertex 0.463525 -1.42658 3.49412e-16
      vertex 0.156793 -1.49178 3.65381e-16
    endloop
  endfacet
  facet normal 0.207912 -0.978148 0
    outer loop
      vertex 0.463525 -1.42658 3.49412e-16
      vertex 0.156793 -1.49178 -1.2
      vertex 0.463525 -1.42658 -1.2
    endloop
  endfacet
  facet normal 0.951056 0.309018 0
    outer loop
      vertex 1.46722 0.311867 -7.63853e-17
      vertex 1.37032 0.610105 -1.2
      vertex 1.37032 0.610105 -1.49433e-16
    endloop
  endfacet
  facet normal 0.951056 0.309018 0
    outer loop
      vertex 1.37032 0.610105 -1.2
      vertex 1.46722 0.311867 -7.63853e-17
      vertex 1.46722 0.311867 -1.2
    endloop
  endfacet
  facet normal 0.587787 0.809016 -0
    outer loop
      vertex 1.0037 1.11472 -1.2
      vertex 0.75 1.29904 -3.18173e-16
      vertex 1.0037 1.11472 -2.73027e-16
    endloop
  endfacet
  facet normal 0.587787 0.809016 0
    outer loop
      vertex 0.75 1.29904 -3.18173e-16
      vertex 1.0037 1.11472 -1.2
      vertex 0.75 1.29904 -1.2
    endloop
  endfacet
  facet normal 0.406735 0.913546 -0
    outer loop
      vertex 0.75 1.29904 -1.2
      vertex 0.463525 1.42658 -3.49412e-16
      vertex 0.75 1.29904 -3.18173e-16
    endloop
  endfacet
  facet normal 0.406735 0.913546 0
    outer loop
      vertex 0.463525 1.42658 -3.49412e-16
      vertex 0.75 1.29904 -1.2
      vertex 0.463525 1.42658 -1.2
    endloop
  endfacet
  facet normal 0 2.44929e-16 1
    outer loop
      vertex 1.46722 0.311867 -7.63853e-17
      vertex 1.46722 -0.311867 7.63853e-17
      vertex 1.5 0 0
    endloop
  endfacet
  facet normal -2.02309e-23 2.44929e-16 1
    outer loop
      vertex 1.37032 0.610105 -1.49433e-16
      vertex 1.46722 -0.311867 7.63853e-17
      vertex 1.46722 0.311867 -7.63853e-17
    endloop
  endfacet
  facet normal 1.03414e-23 2.44929e-16 1
    outer loop
      vertex 1.37032 0.610105 -1.49433e-16
      vertex 1.37032 -0.610105 1.49433e-16
      vertex 1.46722 -0.311867 7.63853e-17
    endloop
  endfacet
  facet normal 2.63476e-23 2.44929e-16 1
    outer loop
      vertex 1.21352 0.881678 -2.15949e-16
      vertex 1.37032 -0.610105 1.49433e-16
      vertex 1.37032 0.610105 -1.49433e-16
    endloop
  endfacet
  facet normal -1.8232e-23 2.44929e-16 1
    outer loop
      vertex 1.21352 0.881678 -2.15949e-16
      vertex 1.21352 -0.881678 2.15949e-16
      vertex 1.37032 -0.610105 1.49433e-16
    endloop
  endfacet
  facet normal -5.75186e-24 2.44929e-16 1
    outer loop
      vertex 1.0037 1.11472 -2.73027e-16
      vertex 1.21352 -0.881678 2.15949e-16
      vertex 1.21352 0.881678 -2.15949e-16
    endloop
  endfacet
  facet normal 4.54939e-24 2.44929e-16 1
    outer loop
      vertex 1.0037 1.11472 -2.73027e-16
      vertex 1.0037 -1.11472 2.73027e-16
      vertex 1.21352 -0.881678 2.15949e-16
    endloop
  endfacet
  facet normal 1.98138e-23 2.44929e-16 1
    outer loop
      vertex 0.75 1.29904 -3.18173e-16
      vertex 1.0037 -1.11472 2.73027e-16
      vertex 1.0037 1.11472 -2.73027e-16
    endloop
  endfacet
  facet normal -1.70024e-23 2.44929e-16 1
    outer loop
      vertex 0.75 1.29904 -3.18173e-16
      vertex 0.75 -1.29904 3.18173e-16
      vertex 1.0037 -1.11472 2.73027e-16
    endloop
  endfacet
  facet normal -3.59084e-23 2.44929e-16 1
    outer loop
      vertex 0.463525 1.42658 -3.49412e-16
      vertex 0.75 -1.29904 3.18173e-16
      vertex 0.75 1.29904 -3.18173e-16
    endloop
  endfacet
  facet normal 3.26979e-23 2.44929e-16 1
    outer loop
      vertex 0.463525 1.42658 -3.49412e-16
      vertex 0.463525 -1.42658 3.49412e-16
      vertex 0.75 -1.29904 3.18173e-16
    endloop
  endfacet
  facet normal -3.09517e-23 2.44929e-16 1
    outer loop
      vertex 0.156793 1.49178 -3.65381e-16
      vertex 0.463525 -1.42658 3.49412e-16
      vertex 0.463525 1.42658 -3.49412e-16
    endloop
  endfacet
  facet normal 2.9599e-23 2.44929e-16 1
    outer loop
      vertex 0.156793 1.49178 -3.65381e-16
      vertex 0.156793 -1.49178 3.65381e-16
      vertex 0.463525 -1.42658 3.49412e-16
    endloop
  endfacet
  facet normal -0 2.44929e-16 1
    outer loop
      vertex -0.156793 1.49178 -3.65381e-16
      vertex 0.156793 -1.49178 3.65381e-16
      vertex 0.156793 1.49178 -3.65381e-16
    endloop
  endfacet
  facet normal 0 2.44929e-16 1
    outer loop
      vertex -0.156793 1.49178 -3.65381e-16
      vertex -0.156793 -1.49178 3.65381e-16
      vertex 0.156793 -1.49178 3.65381e-16
    endloop
  endfacet
  facet normal 2.9599e-23 2.44929e-16 1
    outer loop
      vertex -0.463525 1.42658 -3.49412e-16
      vertex -0.156793 -1.49178 3.65381e-16
      vertex -0.156793 1.49178 -3.65381e-16
    endloop
  endfacet
  facet normal -3.09517e-23 2.44929e-16 1
    outer loop
      vertex -0.463525 1.42658 -3.49412e-16
      vertex -0.463525 -1.42658 3.49412e-16
      vertex -0.156793 -1.49178 3.65381e-16
    endloop
  endfacet
  facet normal 3.2698e-23 2.44929e-16 1
    outer loop
      vertex -0.749999 1.29904 -3.18173e-16
      vertex -0.463525 -1.42658 3.49412e-16
      vertex -0.463525 1.42658 -3.49412e-16
    endloop
  endfacet
  facet normal -3.59084e-23 2.44929e-16 1
    outer loop
      vertex -0.749999 1.29904 -3.18173e-16
      vertex -0.75 -1.29904 3.18173e-16
      vertex -0.463525 -1.42658 3.49412e-16
    endloop
  endfacet
  facet normal -1.70023e-23 2.44929e-16 1
    outer loop
      vertex -1.0037 1.11472 -2.73027e-16
      vertex -0.75 -1.29904 3.18173e-16
      vertex -0.749999 1.29904 -3.18173e-16
    endloop
  endfacet
  facet normal 1.98138e-23 2.44929e-16 1
    outer loop
      vertex -1.0037 1.11472 -2.73027e-16
      vertex -1.0037 -1.11472 2.73027e-16
      vertex -0.75 -1.29904 3.18173e-16
    endloop
  endfacet
  facet normal 4.54939e-24 2.44929e-16 1
    outer loop
      vertex -1.21352 0.881678 -2.15949e-16
      vertex -1.0037 -1.11472 2.73027e-16
      vertex -1.0037 1.11472 -2.73027e-16
    endloop
  endfacet
  facet normal -5.75186e-24 2.44929e-16 1
    outer loop
      vertex -1.21352 0.881678 -2.15949e-16
      vertex -1.21352 -0.881678 2.15949e-16
      vertex -1.0037 -1.11472 2.73027e-16
    endloop
  endfacet
  facet normal -1.8232e-23 2.44929e-16 1
    outer loop
      vertex -1.37032 0.610105 -1.49433e-16
      vertex -1.21352 -0.881678 2.15949e-16
      vertex -1.21352 0.881678 -2.15949e-16
    endloop
  endfacet
  facet normal 2.63476e-23 2.44929e-16 1
    outer loop
      vertex -1.37032 0.610105 -1.49433e-16
      vertex -1.37032 -0.610105 1.49433e-16
      vertex -1.21352 -0.881678 2.15949e-16
    endloop
  endfacet
  facet normal 1.03414e-23 2.44929e-16 1
    outer loop
      vertex -1.46722 0.311867 -7.63853e-17
      vertex -1.37032 -0.610105 1.49433e-16
      vertex -1.37032 0.610105 -1.49433e-16
    endloop
  endfacet
  facet normal -2.02309e-23 2.44929e-16 1
    outer loop
      vertex -1.46722 0.311867 -7.63853e-17
      vertex -1.46722 -0.311867 7.63853e-17
      vertex -1.37032 -0.610105 1.49433e-16
    endloop
  endfacet
  facet normal 0 2.44929e-16 1
    outer loop
      vertex -1.46722 -0.311867 7.63853e-17
      vertex -1.46722 0.311867 -7.63853e-17
      vertex -1.5 0 0
    endloop
  endfacet
  facet normal -0.866026 0.5 0
    outer loop
      vertex -1.37032 0.610105 -1.2
      vertex -1.21352 0.881678 -2.15949e-16
      vertex -1.21352 0.881678 -1.2
    endloop
  endfacet
  facet normal -0.866026 0.5 0
    outer loop
      vertex -1.21352 0.881678 -2.15949e-16
      vertex -1.37032 0.610105 -1.2
      vertex -1.37032 0.610105 -1.49433e-16
    endloop
  endfacet
  facet normal -0.587786 0.809017 0
    outer loop
      vertex -0.749999 1.29904 -1.2
      vertex -1.0037 1.11472 -2.73027e-16
      vertex -0.749999 1.29904 -3.18173e-16
    endloop
  endfacet
  facet normal -0.587786 0.809017 0
    outer loop
      vertex -1.0037 1.11472 -2.73027e-16
      vertex -0.749999 1.29904 -1.2
      vertex -1.0037 1.11472 -1.2
    endloop
  endfacet
  facet normal -0.207912 0.978148 0
    outer loop
      vertex -0.156793 1.49178 -1.2
      vertex -0.463525 1.42658 -3.49412e-16
      vertex -0.156793 1.49178 -3.65381e-16
    endloop
  endfacet
  facet normal -0.207912 0.978148 0
    outer loop
      vertex -0.463525 1.42658 -3.49412e-16
      vertex -0.156793 1.49178 -1.2
      vertex -0.463525 1.42658 -1.2
    endloop
  endfacet
  facet normal -0.743145 0.669131 0
    outer loop
      vertex -1.21352 0.881678 -1.2
      vertex -1.0037 1.11472 -2.73027e-16
      vertex -1.0037 1.11472 -1.2
    endloop
  endfacet
  facet normal -0.743145 0.669131 0
    outer loop
      vertex -1.0037 1.11472 -2.73027e-16
      vertex -1.21352 0.881678 -1.2
      vertex -1.21352 0.881678 -2.15949e-16
    endloop
  endfacet
  facet normal 0.994522 0.104529 0
    outer loop
      vertex 1.5 0 0
      vertex 1.46722 0.311867 -1.2
      vertex 1.46722 0.311867 -7.63853e-17
    endloop
  endfacet
  facet normal 0.994522 0.104529 -2.56022e-17
    outer loop
      vertex 1.46722 0.311867 -1.2
      vertex 1.5 0 0
      vertex 1.5 -2.93915e-16 -1.2
    endloop
  endfacet
  facet normal -0.994522 -0.104529 2.56022e-17
    outer loop
      vertex -1.46722 -0.311867 -1.2
      vertex -1.5 0 0
      vertex -1.5 -2.93915e-16 -1.2
    endloop
  endfacet
  facet normal -0.994522 -0.104529 0
    outer loop
      vertex -1.5 0 0
      vertex -1.46722 -0.311867 -1.2
      vertex -1.46722 -0.311867 7.63853e-17
    endloop
  endfacet
  facet normal 0.587787 -0.809016 0
    outer loop
      vertex 0.75 -1.29904 -1.2
      vertex 1.0037 -1.11472 2.73027e-16
      vertex 0.75 -1.29904 3.18173e-16
    endloop
  endfacet
  facet normal 0.587787 -0.809016 0
    outer loop
      vertex 1.0037 -1.11472 2.73027e-16
      vertex 0.75 -1.29904 -1.2
      vertex 1.0037 -1.11472 -1.2
    endloop
  endfacet
  facet normal 0.866026 -0.5 0
    outer loop
      vertex 1.21352 -0.881678 2.15949e-16
      vertex 1.37032 -0.610105 -1.2
      vertex 1.37032 -0.610105 1.49433e-16
    endloop
  endfacet
  facet normal 0.866026 -0.5 0
    outer loop
      vertex 1.37032 -0.610105 -1.2
      vertex 1.21352 -0.881678 2.15949e-16
      vertex 1.21352 -0.881678 -1.2
    endloop
  endfacet
  facet normal 0 -1 0
    outer loop
      vertex -0.156793 -1.49178 -1.2
      vertex 0.156793 -1.49178 3.65381e-16
      vertex -0.156793 -1.49178 3.65381e-16
    endloop
  endfacet
  facet normal 0 -1 -0
    outer loop
      vertex 0.156793 -1.49178 3.65381e-16
      vertex -0.156793 -1.49178 -1.2
      vertex 0.156793 -1.49178 -1.2
    endloop
  endfacet
  facet normal 0.406735 -0.913546 0
    outer loop
      vertex 0.463525 -1.42658 -1.2
      vertex 0.75 -1.29904 3.18173e-16
      vertex 0.463525 -1.42658 3.49412e-16
    endloop
  endfacet
  facet normal 0.406735 -0.913546 0
    outer loop
      vertex 0.75 -1.29904 3.18173e-16
      vertex 0.463525 -1.42658 -1.2
      vertex 0.75 -1.29904 -1.2
    endloop
  endfacet
  facet normal 0.951056 -0.309018 0
    outer loop
      vertex 1.37032 -0.610105 1.49433e-16
      vertex 1.46722 -0.311867 -1.2
      vertex 1.46722 -0.311867 7.63853e-17
    endloop
  endfacet
  facet normal 0.951056 -0.309018 0
    outer loop
      vertex 1.46722 -0.311867 -1.2
      vertex 1.37032 -0.610105 1.49433e-16
      vertex 1.37032 -0.610105 -1.2
    endloop
  endfacet
  facet normal -0.866026 -0.5 0
    outer loop
      vertex -1.21352 -0.881678 -1.2
      vertex -1.37032 -0.610105 1.49433e-16
      vertex -1.37032 -0.610105 -1.2
    endloop
  endfacet
  facet normal -0.866026 -0.5 0
    outer loop
      vertex -1.37032 -0.610105 1.49433e-16
      vertex -1.21352 -0.881678 -1.2
      vertex -1.21352 -0.881678 2.15949e-16
    endloop
  endfacet
  facet normal 0 0 -1
    outer loop
      vertex 2.93444 -0.623734 -2
      vertex 2.93444 0.623734 -2
      vertex 3 -4.89859e-16 -2
    endloop
  endfacet
  facet normal 0 0 -1
    outer loop
      vertex 2.74064 -1.22021 -2
      vertex 2.93444 0.623734 -2
      vertex 2.93444 -0.623734 -2
    endloop
  endfacet
  facet normal 0 0 -1
    outer loop
      vertex 2.74064 -1.22021 -2
      vertex 2.74064 1.22021 -2
      vertex 2.93444 0.623734 -2
    endloop
  endfacet
  facet normal 0 0 -1
    outer loop
      vertex 2.42705 -1.76336 -2
      vertex 2.74064 1.22021 -2
      vertex 2.74064 -1.22021 -2
    endloop
  endfacet
  facet normal 0 0 -1
    outer loop
      vertex 2.42705 -1.76336 -2
      vertex 2.42705 1.76336 -2
      vertex 2.74064 1.22021 -2
    endloop
  endfacet
  facet normal 0 0 -1
    outer loop
      vertex 2.00739 -2.22943 -2
      vertex 2.42705 1.76336 -2
      vertex 2.42705 -1.76336 -2
    endloop
  endfacet
  facet normal 0 0 -1
    outer loop
      vertex 2.00739 -2.22943 -2
      vertex 2.00739 2.22943 -2
      vertex 2.42705 1.76336 -2
    endloop
  endfacet
  facet normal 0 0 -1
    outer loop
      vertex 1.5 -2.59808 -2
      vertex 2.00739 2.22943 -2
      vertex 2.00739 -2.22943 -2
    endloop
  endfacet
  facet normal 0 0 -1
    outer loop
      vertex 1.5 -2.59808 -2
      vertex 1.5 2.59808 -2
      vertex 2.00739 2.22943 -2
    endloop
  endfacet
  facet normal 0 0 -1
    outer loop
      vertex 0.927051 -2.85317 -2
      vertex 1.5 2.59808 -2
      vertex 1.5 -2.59808 -2
    endloop
  endfacet
  facet normal 0 0 -1
    outer loop
      vertex 0.927051 -2.85317 -2
      vertex 0.927051 2.85317 -2
      vertex 1.5 2.59808 -2
    endloop
  endfacet
  facet normal 0 0 -1
    outer loop
      vertex 0.313585 -2.98357 -2
      vertex 0.927051 2.85317 -2
      vertex 0.927051 -2.85317 -2
    endloop
  endfacet
  facet normal 0 0 -1
    outer loop
      vertex 0.313585 -2.98357 -2
      vertex 0.313585 2.98357 -2
      vertex 0.927051 2.85317 -2
    endloop
  endfacet
  facet normal 0 0 -1
    outer loop
      vertex -0.313585 -2.98357 -2
      vertex 0.313585 2.98357 -2
      vertex 0.313585 -2.98357 -2
    endloop
  endfacet
  facet normal 0 0 -1
    outer loop
      vertex -0.313585 -2.98357 -2
      vertex -0.313585 2.98357 -2
      vertex 0.313585 2.98357 -2
    endloop
  endfacet
  facet normal 0 0 -1
    outer loop
      vertex -0.927051 -2.85317 -2
      vertex -0.313585 2.98357 -2
      vertex -0.313585 -2.98357 -2
    endloop
  endfacet
  facet normal 0 0 -1
    outer loop
      vertex -0.927051 -2.85317 -2
      vertex -0.927051 2.85317 -2
      vertex -0.313585 2.98357 -2
    endloop
  endfacet
  facet normal 0 0 -1
    outer loop
      vertex -0.927051 -2.85317 -2
      vertex -1.5 2.59808 -2
      vertex -0.927051 2.85317 -2
    endloop
  endfacet
  facet normal 0 0 -1
    outer loop
      vertex -1.5 -2.59808 -2
      vertex -1.5 2.59808 -2
      vertex -0.927051 -2.85317 -2
    endloop
  endfacet
  facet normal 0 0 -1
    outer loop
      vertex -2.00739 -2.22943 -2
      vertex -1.5 2.59808 -2
      vertex -1.5 -2.59808 -2
    endloop
  endfacet
  facet normal 0 0 -1
    outer loop
      vertex -2.00739 -2.22943 -2
      vertex -2.00739 2.22943 -2
      vertex -1.5 2.59808 -2
    endloop
  endfacet
  facet normal 0 0 -1
    outer loop
      vertex -2.42705 -1.76336 -2
      vertex -2.00739 2.22943 -2
      vertex -2.00739 -2.22943 -2
    endloop
  endfacet
  facet normal 0 0 -1
    outer loop
      vertex -2.42705 -1.76336 -2
      vertex -2.42705 1.76336 -2
      vertex -2.00739 2.22943 -2
    endloop
  endfacet
  facet normal 0 0 -1
    outer loop
      vertex -2.74064 -1.22021 -2
      vertex -2.42705 1.76336 -2
      vertex -2.42705 -1.76336 -2
    endloop
  endfacet
  facet normal 0 0 -1
    outer loop
      vertex -2.74064 -1.22021 -2
      vertex -2.74064 1.22021 -2
      vertex -2.42705 1.76336 -2
    endloop
  endfacet
  facet normal 0 0 -1
    outer loop
      vertex -2.93444 -0.623734 -2
      vertex -2.74064 1.22021 -2
      vertex -2.74064 -1.22021 -2
    endloop
  endfacet
  facet normal 0 0 -1
    outer loop
      vertex -2.93444 -0.623734 -2
      vertex -2.93444 0.623734 -2
      vertex -2.74064 1.22021 -2
    endloop
  endfacet
  facet normal 0 -0 -1
    outer loop
      vertex -2.93444 0.623734 -2
      vertex -2.93444 -0.623734 -2
      vertex -3 -4.89859e-16 -2
    endloop
  endfacet
  facet normal -0.951056 -0.309018 0
    outer loop
      vertex -1.37032 -0.610105 -1.2
      vertex -1.46722 -0.311867 7.63853e-17
      vertex -1.46722 -0.311867 -1.2
    endloop
  endfacet
  facet normal -0.951056 -0.309018 0
    outer loop
      vertex -1.46722 -0.311867 7.63853e-17
      vertex -1.37032 -0.610105 -1.2
      vertex -1.37032 -0.610105 1.49433e-16
    endloop
  endfacet
  facet normal -0.743145 -0.669131 0
    outer loop
      vertex -1.0037 -1.11472 -1.2
      vertex -1.21352 -0.881678 2.15949e-16
      vertex -1.21352 -0.881678 -1.2
    endloop
  endfacet
  facet normal -0.743145 -0.669131 0
    outer loop
      vertex -1.21352 -0.881678 2.15949e-16
      vertex -1.0037 -1.11472 -1.2
      vertex -1.0037 -1.11472 2.73027e-16
    endloop
  endfacet
  facet normal 0.743145 -0.669131 0
    outer loop
      vertex 1.0037 -1.11472 2.73027e-16
      vertex 1.21352 -0.881678 -1.2
      vertex 1.21352 -0.881678 2.15949e-16
    endloop
  endfacet
  facet normal 0.743145 -0.669131 0
    outer loop
      vertex 1.21352 -0.881678 -1.2
      vertex 1.0037 -1.11472 2.73027e-16
      vertex 1.0037 -1.11472 -1.2
    endloop
  endfacet
  facet normal -0.587787 -0.809016 0
    outer loop
      vertex -1.0037 -1.11472 -1.2
      vertex -0.75 -1.29904 3.18173e-16
      vertex -1.0037 -1.11472 2.73027e-16
    endloop
  endfacet
  facet normal -0.587787 -0.809016 -0
    outer loop
      vertex -0.75 -1.29904 3.18173e-16
      vertex -1.0037 -1.11472 -1.2
      vertex -0.75 -1.29904 -1.2
    endloop
  endfacet
  facet normal -0.406735 -0.913546 0
    outer loop
      vertex -0.75 -1.29904 -1.2
      vertex -0.463525 -1.42658 3.49412e-16
      vertex -0.75 -1.29904 3.18173e-16
    endloop
  endfacet
  facet normal -0.406735 -0.913546 -0
    outer loop
      vertex -0.463525 -1.42658 3.49412e-16
      vertex -0.75 -1.29904 -1.2
      vertex -0.463525 -1.42658 -1.2
    endloop
  endfacet
  facet normal -0.207912 -0.978148 0
    outer loop
      vertex -0.463525 -1.42658 -1.2
      vertex -0.156793 -1.49178 3.65381e-16
      vertex -0.463525 -1.42658 3.49412e-16
    endloop
  endfacet
  facet normal -0.207912 -0.978148 -0
    outer loop
      vertex -0.156793 -1.49178 3.65381e-16
      vertex -0.463525 -1.42658 -1.2
      vertex -0.156793 -1.49178 -1.2
    endloop
  endfacet
  facet normal 0.994522 0.104529 0
    outer loop
      vertex 3 -2.93915e-16 -1.2
      vertex 2.93444 0.623734 -2
      vertex 2.93444 0.623734 -1.2
    endloop
  endfacet
  facet normal 0.994522 0.104529 -2.55999e-17
    outer loop
      vertex 2.93444 0.623734 -2
      vertex 3 -2.93915e-16 -1.2
      vertex 3 -4.89859e-16 -2
    endloop
  endfacet
  facet normal -0.994522 0.104529 0
    outer loop
      vertex -2.93444 0.623734 -2
      vertex -3 -2.93915e-16 -1.2
      vertex -2.93444 0.623734 -1.2
    endloop
  endfacet
  facet normal -0.994522 0.104529 -2.56022e-17
    outer loop
      vertex -3 -2.93915e-16 -1.2
      vertex -2.93444 0.623734 -2
      vertex -3 -4.89859e-16 -2
    endloop
  endfacet
  facet normal 0 1 -0
    outer loop
      vertex 0.313585 2.98357 -2
      vertex -0.313585 2.98357 -1.2
      vertex 0.313585 2.98357 -1.2
    endloop
  endfacet
  facet normal 0 1 0
    outer loop
      vertex -0.313585 2.98357 -1.2
      vertex 0.313585 2.98357 -2
      vertex -0.313585 2.98357 -2
    endloop
  endfacet
  facet normal 0 -1 0
    outer loop
      vertex -0.313585 -2.98357 -2
      vertex 0.313585 -2.98357 -1.2
      vertex -0.313585 -2.98357 -1.2
    endloop
  endfacet
  facet normal 0 -1 -0
    outer loop
      vertex 0.313585 -2.98357 -1.2
      vertex -0.313585 -2.98357 -2
      vertex 0.313585 -2.98357 -2
    endloop
  endfacet
  facet normal 0.587786 0.809016 -0
    outer loop
      vertex 2.00739 2.22943 -2
      vertex 1.5 2.59808 -1.2
      vertex 2.00739 2.22943 -1.2
    endloop
  endfacet
  facet normal 0.587786 0.809016 0
    outer loop
      vertex 1.5 2.59808 -1.2
      vertex 2.00739 2.22943 -2
      vertex 1.5 2.59808 -2
    endloop
  endfacet
  facet normal 0.406737 0.913545 -0
    outer loop
      vertex 1.5 2.59808 -2
      vertex 0.927051 2.85317 -1.2
      vertex 1.5 2.59808 -1.2
    endloop
  endfacet
  facet normal 0.406737 0.913545 0
    outer loop
      vertex 0.927051 2.85317 -1.2
      vertex 1.5 2.59808 -2
      vertex 0.927051 2.85317 -2
    endloop
  endfacet
  facet normal -0.743144 0.669131 0
    outer loop
      vertex -2.42705 1.76336 -2
      vertex -2.00739 2.22943 -1.2
      vertex -2.00739 2.22943 -2
    endloop
  endfacet
  facet normal -0.743144 0.669131 0
    outer loop
      vertex -2.00739 2.22943 -1.2
      vertex -2.42705 1.76336 -2
      vertex -2.42705 1.76336 -1.2
    endloop
  endfacet
  facet normal 0 0 1
    outer loop
      vertex 2.93444 0.623734 -1.2
      vertex 1.46722 0.311867 -1.2
      vertex 1.5 -2.93915e-16 -1.2
    endloop
  endfacet
  facet normal 0 0 1
    outer loop
      vertex 2.00739 2.22943 -1.2
      vertex 1.37032 0.610105 -1.2
      vertex 1.46722 0.311867 -1.2
    endloop
  endfacet
  facet normal 0 0 1
    outer loop
      vertex 2.00739 2.22943 -1.2
      vertex 1.21352 0.881678 -1.2
      vertex 1.37032 0.610105 -1.2
    endloop
  endfacet
  facet normal 0 0 1
    outer loop
      vertex 2.00739 2.22943 -1.2
      vertex 1.0037 1.11472 -1.2
      vertex 1.21352 0.881678 -1.2
    endloop
  endfacet
  facet normal 0 0 1
    outer loop
      vertex 0.75 1.29904 -1.2
      vertex 1.5 2.59808 -1.2
      vertex 0.927051 2.85317 -1.2
    endloop
  endfacet
  facet normal 0 0 1
    outer loop
      vertex 1.5 2.59808 -1.2
      vertex 0.75 1.29904 -1.2
      vertex 1.0037 1.11472 -1.2
    endloop
  endfacet
  facet normal 0 0 1
    outer loop
      vertex 0.927051 2.85317 -1.2
      vertex 0.463525 1.42658 -1.2
      vertex 0.75 1.29904 -1.2
    endloop
  endfacet
  facet normal 0 0 1
    outer loop
      vertex 0.313585 2.98357 -1.2
      vertex 0.463525 1.42658 -1.2
      vertex 0.927051 2.85317 -1.2
    endloop
  endfacet
  facet normal 0 0 1
    outer loop
      vertex 0.313585 2.98357 -1.2
      vertex 0.156793 1.49178 -1.2
      vertex 0.463525 1.42658 -1.2
    endloop
  endfacet
  facet normal 0 0 1
    outer loop
      vertex 0.313585 2.98357 -1.2
      vertex -0.156793 1.49178 -1.2
      vertex 0.156793 1.49178 -1.2
    endloop
  endfacet
  facet normal -0 0 1
    outer loop
      vertex -0.313585 2.98357 -1.2
      vertex -0.156793 1.49178 -1.2
      vertex 0.313585 2.98357 -1.2
    endloop
  endfacet
  facet normal 0 0 1
    outer loop
      vertex -0.313585 2.98357 -1.2
      vertex -0.463525 1.42658 -1.2
      vertex -0.156793 1.49178 -1.2
    endloop
  endfacet
  facet normal -0 0 1
    outer loop
      vertex -0.927051 2.85317 -1.2
      vertex -0.463525 1.42658 -1.2
      vertex -0.313585 2.98357 -1.2
    endloop
  endfacet
  facet normal 0 0 1
    outer loop
      vertex -0.463525 1.42658 -1.2
      vertex -0.927051 2.85317 -1.2
      vertex -0.749999 1.29904 -1.2
    endloop
  endfacet
  facet normal -0 0 1
    outer loop
      vertex -1.5 2.59808 -1.2
      vertex -0.749999 1.29904 -1.2
      vertex -0.927051 2.85317 -1.2
    endloop
  endfacet
  facet normal 0 0 1
    outer loop
      vertex -0.749999 1.29904 -1.2
      vertex -1.5 2.59808 -1.2
      vertex -1.0037 1.11472 -1.2
    endloop
  endfacet
  facet normal -0 0 1
    outer loop
      vertex -2.00739 2.22943 -1.2
      vertex -1.0037 1.11472 -1.2
      vertex -1.5 2.59808 -1.2
    endloop
  endfacet
  facet normal 0 0 1
    outer loop
      vertex -1.0037 1.11472 -1.2
      vertex -2.00739 2.22943 -1.2
      vertex -1.21352 0.881678 -1.2
    endloop
  endfacet
  facet normal -0 0 1
    outer loop
      vertex -2.42705 1.76336 -1.2
      vertex -1.21352 0.881678 -1.2
      vertex -2.00739 2.22943 -1.2
    endloop
  endfacet
  facet normal 0 0 1
    outer loop
      vertex -1.21352 0.881678 -1.2
      vertex -2.42705 1.76336 -1.2
      vertex -1.37032 0.610105 -1.2
    endloop
  endfacet
  facet normal -0 0 1
    outer loop
      vertex -2.74064 1.22021 -1.2
      vertex -1.37032 0.610105 -1.2
      vertex -2.42705 1.76336 -1.2
    endloop
  endfacet
  facet normal 0 0 1
    outer loop
      vertex -1.37032 0.610105 -1.2
      vertex -2.74064 1.22021 -1.2
      vertex -1.46722 0.311867 -1.2
    endloop
  endfacet
  facet normal 0 0 1
    outer loop
      vertex -1.5 -2.93915e-16 -1.2
      vertex -2.00739 -2.22943 -1.2
      vertex -1.5 -2.59808 -1.2
    endloop
  endfacet
  facet normal -0 0 1
    outer loop
      vertex -2.93444 0.623734 -1.2
      vertex -1.46722 0.311867 -1.2
      vertex -2.74064 1.22021 -1.2
    endloop
  endfacet
  facet normal 0 0 1
    outer loop
      vertex -1.5 -2.93915e-16 -1.2
      vertex -2.42705 -1.76336 -1.2
      vertex -2.00739 -2.22943 -1.2
    endloop
  endfacet
  facet normal 0 0 1
    outer loop
      vertex -1.46722 0.311867 -1.2
      vertex -2.93444 0.623734 -1.2
      vertex -1.5 -2.93915e-16 -1.2
    endloop
  endfacet
  facet normal 0 0 1
    outer loop
      vertex -1.5 -2.93915e-16 -1.2
      vertex -2.74064 -1.22021 -1.2
      vertex -2.42705 -1.76336 -1.2
    endloop
  endfacet
  facet normal 0 0 1
    outer loop
      vertex -3 -2.93915e-16 -1.2
      vertex -1.5 -2.93915e-16 -1.2
      vertex -2.93444 0.623734 -1.2
    endloop
  endfacet
  facet normal 0 0 1
    outer loop
      vertex -1.5 -2.93915e-16 -1.2
      vertex -2.93444 -0.623734 -1.2
      vertex -2.74064 -1.22021 -1.2
    endloop
  endfacet
  facet normal 0 0 1
    outer loop
      vertex -1.5 -2.93915e-16 -1.2
      vertex -3 -2.93915e-16 -1.2
      vertex -2.93444 -0.623734 -1.2
    endloop
  endfacet
  facet normal 0 0 1
    outer loop
      vertex 1.5 -2.93915e-16 -1.2
      vertex 3 -2.93915e-16 -1.2
      vertex 2.93444 0.623734 -1.2
    endloop
  endfacet
  facet normal 0 0 1
    outer loop
      vertex 1.46722 0.311867 -1.2
      vertex 2.93444 0.623734 -1.2
      vertex 2.74064 1.22021 -1.2
    endloop
  endfacet
  facet normal 0 0 1
    outer loop
      vertex 3 -2.93915e-16 -1.2
      vertex 1.5 -2.93915e-16 -1.2
      vertex 2.93444 -0.623734 -1.2
    endloop
  endfacet
  facet normal 0 0 1
    outer loop
      vertex 1.46722 0.311867 -1.2
      vertex 2.74064 1.22021 -1.2
      vertex 2.42705 1.76336 -1.2
    endloop
  endfacet
  facet normal -0 0 1
    outer loop
      vertex 1.46722 -0.311867 -1.2
      vertex 2.93444 -0.623734 -1.2
      vertex 1.5 -2.93915e-16 -1.2
    endloop
  endfacet
  facet normal 0 0 1
    outer loop
      vertex 1.46722 0.311867 -1.2
      vertex 2.42705 1.76336 -1.2
      vertex 2.00739 2.22943 -1.2
    endloop
  endfacet
  facet normal 0 0 1
    outer loop
      vertex 2.93444 -0.623734 -1.2
      vertex 1.46722 -0.311867 -1.2
      vertex 2.74064 -1.22021 -1.2
    endloop
  endfacet
  facet normal 0 0 1
    outer loop
      vertex 1.0037 1.11472 -1.2
      vertex 2.00739 2.22943 -1.2
      vertex 1.5 2.59808 -1.2
    endloop
  endfacet
  facet normal -0 0 1
    outer loop
      vertex 1.37032 -0.610105 -1.2
      vertex 2.74064 -1.22021 -1.2
      vertex 1.46722 -0.311867 -1.2
    endloop
  endfacet
  facet normal 0 0 1
    outer loop
      vertex 2.74064 -1.22021 -1.2
      vertex 1.37032 -0.610105 -1.2
      vertex 2.42705 -1.76336 -1.2
    endloop
  endfacet
  facet normal -0 0 1
    outer loop
      vertex 1.21352 -0.881678 -1.2
      vertex 2.42705 -1.76336 -1.2
      vertex 1.37032 -0.610105 -1.2
    endloop
  endfacet
  facet normal 0 0 1
    outer loop
      vertex 2.42705 -1.76336 -1.2
      vertex 1.21352 -0.881678 -1.2
      vertex 2.00739 -2.22943 -1.2
    endloop
  endfacet
  facet normal -0 0 1
    outer loop
      vertex 1.0037 -1.11472 -1.2
      vertex 2.00739 -2.22943 -1.2
      vertex 1.21352 -0.881678 -1.2
    endloop
  endfacet
  facet normal 0 0 1
    outer loop
      vertex 2.00739 -2.22943 -1.2
      vertex 1.0037 -1.11472 -1.2
      vertex 1.5 -2.59808 -1.2
    endloop
  endfacet
  facet normal -0 0 1
    outer loop
      vertex 0.75 -1.29904 -1.2
      vertex 1.5 -2.59808 -1.2
      vertex 1.0037 -1.11472 -1.2
    endloop
  endfacet
  facet normal 0 0 1
    outer loop
      vertex 1.5 -2.59808 -1.2
      vertex 0.75 -1.29904 -1.2
      vertex 0.927051 -2.85317 -1.2
    endloop
  endfacet
  facet normal -0 0 1
    outer loop
      vertex 0.463525 -1.42658 -1.2
      vertex 0.927051 -2.85317 -1.2
      vertex 0.75 -1.29904 -1.2
    endloop
  endfacet
  facet normal 0 0 1
    outer loop
      vertex 0.463525 -1.42658 -1.2
      vertex 0.313585 -2.98357 -1.2
      vertex 0.927051 -2.85317 -1.2
    endloop
  endfacet
  facet normal -0 0 1
    outer loop
      vertex 0.156793 -1.49178 -1.2
      vertex 0.313585 -2.98357 -1.2
      vertex 0.463525 -1.42658 -1.2
    endloop
  endfacet
  facet normal -0 0 1
    outer loop
      vertex -0.156793 -1.49178 -1.2
      vertex 0.313585 -2.98357 -1.2
      vertex 0.156793 -1.49178 -1.2
    endloop
  endfacet
  facet normal 0 0 1
    outer loop
      vertex -0.156793 -1.49178 -1.2
      vertex -0.313585 -2.98357 -1.2
      vertex 0.313585 -2.98357 -1.2
    endloop
  endfacet
  facet normal 0 0 1
    outer loop
      vertex -0.463525 -1.42658 -1.2
      vertex -0.313585 -2.98357 -1.2
      vertex -0.156793 -1.49178 -1.2
    endloop
  endfacet
  facet normal 0 0 1
    outer loop
      vertex -0.927051 -2.85317 -1.2
      vertex -0.463525 -1.42658 -1.2
      vertex -0.75 -1.29904 -1.2
    endloop
  endfacet
  facet normal 0 0 1
    outer loop
      vertex -0.463525 -1.42658 -1.2
      vertex -0.927051 -2.85317 -1.2
      vertex -0.313585 -2.98357 -1.2
    endloop
  endfacet
  facet normal 0 0 1
    outer loop
      vertex -1.5 -2.59808 -1.2
      vertex -0.75 -1.29904 -1.2
      vertex -1.0037 -1.11472 -1.2
    endloop
  endfacet
  facet normal 0 0 1
    outer loop
      vertex -1.5 -2.59808 -1.2
      vertex -1.0037 -1.11472 -1.2
      vertex -1.21352 -0.881678 -1.2
    endloop
  endfacet
  facet normal 0 0 1
    outer loop
      vertex -1.5 -2.59808 -1.2
      vertex -1.21352 -0.881678 -1.2
      vertex -1.37032 -0.610105 -1.2
    endloop
  endfacet
  facet normal 0 0 1
    outer loop
      vertex -1.5 -2.59808 -1.2
      vertex -1.37032 -0.610105 -1.2
      vertex -1.46722 -0.311867 -1.2
    endloop
  endfacet
  facet normal 0 0 1
    outer loop
      vertex -0.75 -1.29904 -1.2
      vertex -1.5 -2.59808 -1.2
      vertex -0.927051 -2.85317 -1.2
    endloop
  endfacet
  facet normal 0 0 1
    outer loop
      vertex -1.5 -2.59808 -1.2
      vertex -1.46722 -0.311867 -1.2
      vertex -1.5 -2.93915e-16 -1.2
    endloop
  endfacet
  facet normal -0.406737 0.913545 0
    outer loop
      vertex -0.927051 2.85317 -2
      vertex -1.5 2.59808 -1.2
      vertex -0.927051 2.85317 -1.2
    endloop
  endfacet
  facet normal -0.406737 0.913545 0
    outer loop
      vertex -1.5 2.59808 -1.2
      vertex -0.927051 2.85317 -2
      vertex -1.5 2.59808 -2
    endloop
  endfacet
  facet normal 0.951056 -0.309017 0
    outer loop
      vertex 2.74064 -1.22021 -1.2
      vertex 2.93444 -0.623734 -2
      vertex 2.93444 -0.623734 -1.2
    endloop
  endfacet
  facet normal 0.951056 -0.309017 0
    outer loop
      vertex 2.93444 -0.623734 -2
      vertex 2.74064 -1.22021 -1.2
      vertex 2.74064 -1.22021 -2
    endloop
  endfacet
  facet normal 0.866026 0.5 0
    outer loop
      vertex 2.74064 1.22021 -1.2
      vertex 2.42705 1.76336 -2
      vertex 2.42705 1.76336 -1.2
    endloop
  endfacet
  facet normal 0.866026 0.5 0
    outer loop
      vertex 2.42705 1.76336 -2
      vertex 2.74064 1.22021 -1.2
      vertex 2.74064 1.22021 -2
    endloop
  endfacet
  facet normal 0.951056 0.309017 0
    outer loop
      vertex 2.93444 0.623734 -1.2
      vertex 2.74064 1.22021 -2
      vertex 2.74064 1.22021 -1.2
    endloop
  endfacet
  facet normal 0.951056 0.309017 0
    outer loop
      vertex 2.74064 1.22021 -2
      vertex 2.93444 0.623734 -1.2
      vertex 2.93444 0.623734 -2
    endloop
  endfacet
  facet normal 0.743144 0.669131 0
    outer loop
      vertex 2.42705 1.76336 -1.2
      vertex 2.00739 2.22943 -2
      vertex 2.00739 2.22943 -1.2
    endloop
  endfacet
  facet normal 0.743144 0.669131 0
    outer loop
      vertex 2.00739 2.22943 -2
      vertex 2.42705 1.76336 -1.2
      vertex 2.42705 1.76336 -2
    endloop
  endfacet
  facet normal 0.207911 0.978148 -0
    outer loop
      vertex 0.927051 2.85317 -2
      vertex 0.313585 2.98357 -1.2
      vertex 0.927051 2.85317 -1.2
    endloop
  endfacet
  facet normal 0.207911 0.978148 0
    outer loop
      vertex 0.313585 2.98357 -1.2
      vertex 0.927051 2.85317 -2
      vertex 0.313585 2.98357 -2
    endloop
  endfacet
  facet normal -0.866026 0.5 0
    outer loop
      vertex -2.74064 1.22021 -2
      vertex -2.42705 1.76336 -1.2
      vertex -2.42705 1.76336 -2
    endloop
  endfacet
  facet normal -0.866026 0.5 0
    outer loop
      vertex -2.42705 1.76336 -1.2
      vertex -2.74064 1.22021 -2
      vertex -2.74064 1.22021 -1.2
    endloop
  endfacet
  facet normal -0.951056 0.309017 0
    outer loop
      vertex -2.93444 0.623734 -2
      vertex -2.74064 1.22021 -1.2
      vertex -2.74064 1.22021 -2
    endloop
  endfacet
  facet normal -0.951056 0.309017 0
    outer loop
      vertex -2.74064 1.22021 -1.2
      vertex -2.93444 0.623734 -2
      vertex -2.93444 0.623734 -1.2
    endloop
  endfacet
  facet normal -0.587785 0.809017 0
    outer loop
      vertex -1.5 2.59808 -2
      vertex -2.00739 2.22943 -1.2
      vertex -1.5 2.59808 -1.2
    endloop
  endfacet
  facet normal -0.587785 0.809017 0
    outer loop
      vertex -2.00739 2.22943 -1.2
      vertex -1.5 2.59808 -2
      vertex -2.00739 2.22943 -2
    endloop
  endfacet
  facet normal -0.207911 0.978148 0
    outer loop
      vertex -0.313585 2.98357 -2
      vertex -0.927051 2.85317 -1.2
      vertex -0.313585 2.98357 -1.2
    endloop
  endfacet
  facet normal -0.207911 0.978148 0
    outer loop
      vertex -0.927051 2.85317 -1.2
      vertex -0.313585 2.98357 -2
      vertex -0.927051 2.85317 -2
    endloop
  endfacet
  facet normal 0.994522 -0.104529 2.55999e-17
    outer loop
      vertex 2.93444 -0.623734 -1.2
      vertex 3 -4.89859e-16 -2
      vertex 3 -2.93915e-16 -1.2
    endloop
  endfacet
  facet normal 0.994522 -0.104529 0
    outer loop
      vertex 3 -4.89859e-16 -2
      vertex 2.93444 -0.623734 -1.2
      vertex 2.93444 -0.623734 -2
    endloop
  endfacet
  facet normal 0.207911 -0.978148 0
    outer loop
      vertex 0.313585 -2.98357 -2
      vertex 0.927051 -2.85317 -1.2
      vertex 0.313585 -2.98357 -1.2
    endloop
  endfacet
  facet normal 0.207911 -0.978148 0
    outer loop
      vertex 0.927051 -2.85317 -1.2
      vertex 0.313585 -2.98357 -2
      vertex 0.927051 -2.85317 -2
    endloop
  endfacet
  facet normal 0.866026 -0.5 0
    outer loop
      vertex 2.42705 -1.76336 -1.2
      vertex 2.74064 -1.22021 -2
      vertex 2.74064 -1.22021 -1.2
    endloop
  endfacet
  facet normal 0.866026 -0.5 0
    outer loop
      vertex 2.74064 -1.22021 -2
      vertex 2.42705 -1.76336 -1.2
      vertex 2.42705 -1.76336 -2
    endloop
  endfacet
  facet normal 0.587786 -0.809016 0
    outer loop
      vertex 1.5 -2.59808 -2
      vertex 2.00739 -2.22943 -1.2
      vertex 1.5 -2.59808 -1.2
    endloop
  endfacet
  facet normal 0.587786 -0.809016 0
    outer loop
      vertex 2.00739 -2.22943 -1.2
      vertex 1.5 -2.59808 -2
      vertex 2.00739 -2.22943 -2
    endloop
  endfacet
  facet normal 0.406737 -0.913545 0
    outer loop
      vertex 0.927051 -2.85317 -2
      vertex 1.5 -2.59808 -1.2
      vertex 0.927051 -2.85317 -1.2
    endloop
  endfacet
  facet normal 0.406737 -0.913545 0
    outer loop
      vertex 1.5 -2.59808 -1.2
      vertex 0.927051 -2.85317 -2
      vertex 1.5 -2.59808 -2
    endloop
  endfacet
  facet normal -0.743144 -0.669131 0
    outer loop
      vertex -2.00739 -2.22943 -2
      vertex -2.42705 -1.76336 -1.2
      vertex -2.42705 -1.76336 -2
    endloop
  endfacet
  facet normal -0.743144 -0.669131 0
    outer loop
      vertex -2.42705 -1.76336 -1.2
      vertex -2.00739 -2.22943 -2
      vertex -2.00739 -2.22943 -1.2
    endloop
  endfacet
  facet normal -0.866026 -0.5 0
    outer loop
      vertex -2.42705 -1.76336 -2
      vertex -2.74064 -1.22021 -1.2
      vertex -2.74064 -1.22021 -2
    endloop
  endfacet
  facet normal -0.866026 -0.5 0
    outer loop
      vertex -2.74064 -1.22021 -1.2
      vertex -2.42705 -1.76336 -2
      vertex -2.42705 -1.76336 -1.2
    endloop
  endfacet
  facet normal -0.951056 -0.309017 0
    outer loop
      vertex -2.74064 -1.22021 -2
      vertex -2.93444 -0.623734 -1.2
      vertex -2.93444 -0.623734 -2
    endloop
  endfacet
  facet normal -0.951056 -0.309017 0
    outer loop
      vertex -2.93444 -0.623734 -1.2
      vertex -2.74064 -1.22021 -2
      vertex -2.74064 -1.22021 -1.2
    endloop
  endfacet
  facet normal -0.994522 -0.104529 2.55999e-17
    outer loop
      vertex -2.93444 -0.623734 -2
      vertex -3 -2.93915e-16 -1.2
      vertex -3 -4.89859e-16 -2
    endloop
  endfacet
  facet normal -0.994522 -0.104529 0
    outer loop
      vertex -3 -2.93915e-16 -1.2
      vertex -2.93444 -0.623734 -2
      vertex -2.93444 -0.623734 -1.2
    endloop
  endfacet
  facet normal 0.743144 -0.669131 0
    outer loop
      vertex 2.00739 -2.22943 -1.2
      vertex 2.42705 -1.76336 -2
      vertex 2.42705 -1.76336 -1.2
    endloop
  endfacet
  facet normal 0.743144 -0.669131 0
    outer loop
      vertex 2.42705 -1.76336 -2
      vertex 2.00739 -2.22943 -1.2
      vertex 2.00739 -2.22943 -2
    endloop
  endfacet
  facet normal -0.587786 -0.809016 0
    outer loop
      vertex -2.00739 -2.22943 -2
      vertex -1.5 -2.59808 -1.2
      vertex -2.00739 -2.22943 -1.2
    endloop
  endfacet
  facet normal -0.587786 -0.809016 -0
    outer loop
      vertex -1.5 -2.59808 -1.2
      vertex -2.00739 -2.22943 -2
      vertex -1.5 -2.59808 -2
    endloop
  endfacet
  facet normal -0.406737 -0.913545 0
    outer loop
      vertex -1.5 -2.59808 -2
      vertex -0.927051 -2.85317 -1.2
      vertex -1.5 -2.59808 -1.2
    endloop
  endfacet
  facet normal -0.406737 -0.913545 -0
    outer loop
      vertex -0.927051 -2.85317 -1.2
      vertex -1.5 -2.59808 -2
      vertex -0.927051 -2.85317 -2
    endloop
  endfacet
  facet normal -0.207911 -0.978148 0
    outer loop
      vertex -0.927051 -2.85317 -2
      vertex -0.313585 -2.98357 -1.2
      vertex -0.927051 -2.85317 -1.2
    endloop
  endfacet
  facet normal -0.207911 -0.978148 -0
    outer loop
      vertex -0.313585 -2.98357 -1.2
      vertex -0.927051 -2.85317 -2
      vertex -0.313585 -2.98357 -2
    endloop
  endfacet
endsolid OpenSCAD_Model
