solid OpenSCAD_Model
  facet normal -1 0 0
    outer loop
      vertex 1.79014 -0.188151 0
      vertex 1.79014 0.188152 0.900001
      vertex 1.79014 0.188152 0
    endloop
  endfacet
  facet normal -1 -0 0
    outer loop
      vertex 1.79014 0.188152 0.900001
      vertex 1.79014 -0.188151 0
      vertex 1.79014 -0.188151 0.900001
    endloop
  endfacet
  facet normal 0.669131 0.743144 -0
    outer loop
      vertex -1.05801 -1.45623 0
      vertex -1.33766 -1.20443 0.900001
      vertex -1.05801 -1.45623 0.900001
    endloop
  endfacet
  facet normal 0.669131 0.743144 0
    outer loop
      vertex -1.33766 -1.20443 0.900001
      vertex -1.05801 -1.45623 0
      vertex -1.33766 -1.20443 0
    endloop
  endfacet
  facet normal -0.978147 0.207913 0
    outer loop
      vertex 1.7119 -0.55623 0
      vertex 1.79014 -0.188151 0.900001
      vertex 1.79014 -0.188151 0
    endloop
  endfacet
  facet normal -0.978147 0.207913 0
    outer loop
      vertex 1.79014 -0.188151 0.900001
      vertex 1.7119 -0.55623 0
      vertex 1.7119 -0.55623 0.900001
    endloop
  endfacet
  facet normal -0.66913 0.743146 0
    outer loop
      vertex 1.33766 -1.20444 0
      vertex 1.05801 -1.45623 0.900001
      vertex 1.33766 -1.20444 0.900001
    endloop
  endfacet
  facet normal -0.66913 0.743146 0
    outer loop
      vertex 1.05801 -1.45623 0.900001
      vertex 1.33766 -1.20444 0
      vertex 1.05801 -1.45623 0
    endloop
  endfacet
  facet normal -0.809018 0.587785 0
    outer loop
      vertex 1.33766 -1.20444 0
      vertex 1.55885 -0.9 0.900001
      vertex 1.55885 -0.9 0
    endloop
  endfacet
  facet normal -0.809018 0.587785 0
    outer loop
      vertex 1.55885 -0.9 0.900001
      vertex 1.33766 -1.20444 0
      vertex 1.33766 -1.20444 0.900001
    endloop
  endfacet
  facet normal -0.104528 0.994522 0
    outer loop
      vertex 0.374241 -1.76067 0
      vertex 2.26966e-07 -1.8 0.900001
      vertex 0.374241 -1.76067 0.900001
    endloop
  endfacet
  facet normal -0.104528 0.994522 0
    outer loop
      vertex 2.26966e-07 -1.8 0.900001
      vertex 0.374241 -1.76067 0
      vertex 2.26966e-07 -1.8 0
    endloop
  endfacet
  facet normal 0.5 0.866025 -0
    outer loop
      vertex -0.732126 -1.64438 0
      vertex -1.05801 -1.45623 0.900001
      vertex -0.732126 -1.64438 0.900001
    endloop
  endfacet
  facet normal 0.5 0.866025 0
    outer loop
      vertex -1.05801 -1.45623 0.900001
      vertex -0.732126 -1.64438 0
      vertex -1.05801 -1.45623 0
    endloop
  endfacet
  facet normal -0.809017 -0.587785 0
    outer loop
      vertex 1.55885 0.9 0
      vertex 1.33766 1.20443 0.900001
      vertex 1.33766 1.20443 0
    endloop
  endfacet
  facet normal -0.809017 -0.587785 0
    outer loop
      vertex 1.33766 1.20443 0.900001
      vertex 1.55885 0.9 0
      vertex 1.55885 0.9 0.900001
    endloop
  endfacet
  facet normal -0.978147 -0.207913 0
    outer loop
      vertex 1.79014 0.188152 0
      vertex 1.7119 0.55623 0.900001
      vertex 1.7119 0.55623 0
    endloop
  endfacet
  facet normal -0.978147 -0.207913 0
    outer loop
      vertex 1.7119 0.55623 0.900001
      vertex 1.79014 0.188152 0
      vertex 1.79014 0.188152 0.900001
    endloop
  endfacet
  facet normal -0.913546 0.406735 0
    outer loop
      vertex 1.55885 -0.9 0
      vertex 1.7119 -0.55623 0.900001
      vertex 1.7119 -0.55623 0
    endloop
  endfacet
  facet normal -0.913546 0.406735 0
    outer loop
      vertex 1.7119 -0.55623 0.900001
      vertex 1.55885 -0.9 0
      vertex 1.55885 -0.9 0.900001
    endloop
  endfacet
  facet normal -0.5 0.866025 0
    outer loop
      vertex 1.05801 -1.45623 0
      vertex 0.732127 -1.64438 0.900001
      vertex 1.05801 -1.45623 0.900001
    endloop
  endfacet
  facet normal -0.5 0.866025 0
    outer loop
      vertex 0.732127 -1.64438 0.900001
      vertex 1.05801 -1.45623 0
      vertex 0.732127 -1.64438 0
    endloop
  endfacet
  facet normal 0.809017 0.587785 0
    outer loop
      vertex -1.33766 -1.20443 0.900001
      vertex -1.55885 -0.9 0
      vertex -1.55885 -0.9 0.900001
    endloop
  endfacet
  facet normal 0.809017 0.587785 0
    outer loop
      vertex -1.55885 -0.9 0
      vertex -1.33766 -1.20443 0.900001
      vertex -1.33766 -1.20443 0
    endloop
  endfacet
  facet normal 0.10453 0.994522 -0
    outer loop
      vertex 2.26966e-07 -1.8 0
      vertex -0.374241 -1.76066 0.900001
      vertex 2.26966e-07 -1.8 0.900001
    endloop
  endfacet
  facet normal 0.10453 0.994522 0
    outer loop
      vertex -0.374241 -1.76066 0.900001
      vertex 2.26966e-07 -1.8 0
      vertex -0.374241 -1.76066 0
    endloop
  endfacet
  facet normal -0.309018 0.951056 0
    outer loop
      vertex 0.732127 -1.64438 0
      vertex 0.374241 -1.76067 0.900001
      vertex 0.732127 -1.64438 0.900001
    endloop
  endfacet
  facet normal -0.309018 0.951056 0
    outer loop
      vertex 0.374241 -1.76067 0.900001
      vertex 0.732127 -1.64438 0
      vertex 0.374241 -1.76067 0
    endloop
  endfacet
  facet normal 0.309016 0.951057 -0
    outer loop
      vertex -0.374241 -1.76066 0
      vertex -0.732126 -1.64438 0.900001
      vertex -0.374241 -1.76066 0.900001
    endloop
  endfacet
  facet normal 0.309016 0.951057 0
    outer loop
      vertex -0.732126 -1.64438 0.900001
      vertex -0.374241 -1.76066 0
      vertex -0.732126 -1.64438 0
    endloop
  endfacet
  facet normal -0.913545 -0.406737 0
    outer loop
      vertex 1.7119 0.55623 0
      vertex 1.55885 0.9 0.900001
      vertex 1.55885 0.9 0
    endloop
  endfacet
  facet normal -0.913545 -0.406737 0
    outer loop
      vertex 1.55885 0.9 0.900001
      vertex 1.7119 0.55623 0
      vertex 1.7119 0.55623 0.900001
    endloop
  endfacet
  facet normal -0.10453 -0.994522 0
    outer loop
      vertex -2.26966e-07 1.8 0
      vertex 0.374241 1.76066 0.900001
      vertex -2.26966e-07 1.8 0.900001
    endloop
  endfacet
  facet normal -0.10453 -0.994522 -0
    outer loop
      vertex 0.374241 1.76066 0.900001
      vertex -2.26966e-07 1.8 0
      vertex 0.374241 1.76066 0
    endloop
  endfacet
  facet normal -0.669131 -0.743144 0
    outer loop
      vertex 1.05801 1.45623 0
      vertex 1.33766 1.20443 0.900001
      vertex 1.05801 1.45623 0.900001
    endloop
  endfacet
  facet normal -0.669131 -0.743144 -0
    outer loop
      vertex 1.33766 1.20443 0.900001
      vertex 1.05801 1.45623 0
      vertex 1.33766 1.20443 0
    endloop
  endfacet
  facet normal 0.66913 -0.743146 0
    outer loop
      vertex -1.33766 1.20444 0
      vertex -1.05801 1.45623 0.900001
      vertex -1.33766 1.20444 0.900001
    endloop
  endfacet
  facet normal 0.66913 -0.743146 0
    outer loop
      vertex -1.05801 1.45623 0.900001
      vertex -1.33766 1.20444 0
      vertex -1.05801 1.45623 0
    endloop
  endfacet
  facet normal -0.5 -0.866025 0
    outer loop
      vertex 0.732126 1.64438 0
      vertex 1.05801 1.45623 0.900001
      vertex 0.732126 1.64438 0.900001
    endloop
  endfacet
  facet normal -0.5 -0.866025 -0
    outer loop
      vertex 1.05801 1.45623 0.900001
      vertex 0.732126 1.64438 0
      vertex 1.05801 1.45623 0
    endloop
  endfacet
  facet normal 0.913545 0.406737 0
    outer loop
      vertex -1.55885 -0.9 0.900001
      vertex -1.7119 -0.55623 0
      vertex -1.7119 -0.55623 0.900001
    endloop
  endfacet
  facet normal 0.913545 0.406737 0
    outer loop
      vertex -1.7119 -0.55623 0
      vertex -1.55885 -0.9 0.900001
      vertex -1.55885 -0.9 0
    endloop
  endfacet
  facet normal 1 -0 0
    outer loop
      vertex -1.79014 -0.188152 0.900001
      vertex -1.79014 0.188151 0
      vertex -1.79014 0.188151 0.900001
    endloop
  endfacet
  facet normal 1 0 0
    outer loop
      vertex -1.79014 0.188151 0
      vertex -1.79014 -0.188152 0.900001
      vertex -1.79014 -0.188152 0
    endloop
  endfacet
  facet normal 0.309018 -0.951056 0
    outer loop
      vertex -0.732127 1.64438 0
      vertex -0.374241 1.76067 0.900001
      vertex -0.732127 1.64438 0.900001
    endloop
  endfacet
  facet normal 0.309018 -0.951056 0
    outer loop
      vertex -0.374241 1.76067 0.900001
      vertex -0.732127 1.64438 0
      vertex -0.374241 1.76067 0
    endloop
  endfacet
  facet normal 0.104528 -0.994522 0
    outer loop
      vertex -0.374241 1.76067 0
      vertex -2.26966e-07 1.8 0.900001
      vertex -0.374241 1.76067 0.900001
    endloop
  endfacet
  facet normal 0.104528 -0.994522 0
    outer loop
      vertex -2.26966e-07 1.8 0.900001
      vertex -0.374241 1.76067 0
      vertex -2.26966e-07 1.8 0
    endloop
  endfacet
  facet normal 0.809018 -0.587785 0
    outer loop
      vertex -1.55885 0.9 0.900001
      vertex -1.33766 1.20444 0
      vertex -1.33766 1.20444 0.900001
    endloop
  endfacet
  facet normal 0.809018 -0.587785 0
    outer loop
      vertex -1.33766 1.20444 0
      vertex -1.55885 0.9 0.900001
      vertex -1.55885 0.9 0
    endloop
  endfacet
  facet normal 0.5 -0.866025 0
    outer loop
      vertex -1.05801 1.45623 0
      vertex -0.732127 1.64438 0.900001
      vertex -1.05801 1.45623 0.900001
    endloop
  endfacet
  facet normal 0.5 -0.866025 0
    outer loop
      vertex -0.732127 1.64438 0.900001
      vertex -1.05801 1.45623 0
      vertex -0.732127 1.64438 0
    endloop
  endfacet
  facet normal 0.978147 0.207913 0
    outer loop
      vertex -1.7119 -0.55623 0.900001
      vertex -1.79014 -0.188152 0
      vertex -1.79014 -0.188152 0.900001
    endloop
  endfacet
  facet normal 0.978147 0.207913 0
    outer loop
      vertex -1.79014 -0.188152 0
      vertex -1.7119 -0.55623 0.900001
      vertex -1.7119 -0.55623 0
    endloop
  endfacet
  facet normal 0.978147 -0.207913 0
    outer loop
      vertex -1.79014 0.188151 0.900001
      vertex -1.7119 0.55623 0
      vertex -1.7119 0.55623 0.900001
    endloop
  endfacet
  facet normal 0.978147 -0.207913 0
    outer loop
      vertex -1.7119 0.55623 0
      vertex -1.79014 0.188151 0.900001
      vertex -1.79014 0.188151 0
    endloop
  endfacet
  facet normal -0.309016 -0.951057 0
    outer loop
      vertex 0.374241 1.76066 0
      vertex 0.732126 1.64438 0.900001
      vertex 0.374241 1.76066 0.900001
    endloop
  endfacet
  facet normal -0.309016 -0.951057 -0
    outer loop
      vertex 0.732126 1.64438 0.900001
      vertex 0.374241 1.76066 0
      vertex 0.732126 1.64438 0
    endloop
  endfacet
  facet normal 0.913546 -0.406735 0
    outer loop
      vertex -1.7119 0.55623 0.900001
      vertex -1.55885 0.9 0
      vertex -1.55885 0.9 0.900001
    endloop
  endfacet
  facet normal 0.913546 -0.406735 0
    outer loop
      vertex -1.55885 0.9 0
      vertex -1.7119 0.55623 0.900001
      vertex -1.7119 0.55623 0
    endloop
  endfacet
  facet normal -0.913546 -0.406736 0
    outer loop
      vertex 3.13849 1.01976 0.900001
      vertex 2.85788 1.65 1
      vertex 2.85788 1.65 0.900001
    endloop
  endfacet
  facet normal -0.913546 -0.406736 0
    outer loop
      vertex 2.85788 1.65 1
      vertex 3.13849 1.01976 0.900001
      vertex 3.13849 1.01976 1
    endloop
  endfacet
  facet normal 0.809017 0.587786 0
    outer loop
      vertex -2.45238 -2.20813 1
      vertex -2.85788 -1.65 0.900001
      vertex -2.85788 -1.65 1
    endloop
  endfacet
  facet normal 0.809017 0.587786 0
    outer loop
      vertex -2.85788 -1.65 0.900001
      vertex -2.45238 -2.20813 1
      vertex -2.45238 -2.20813 0.900001
    endloop
  endfacet
  facet normal -0.5 0.866025 0
    outer loop
      vertex 1.93969 -2.66976 0.900001
      vertex 1.34223 -3.0147 1
      vertex 1.93969 -2.66976 1
    endloop
  endfacet
  facet normal -0.5 0.866025 0
    outer loop
      vertex 1.34223 -3.0147 1
      vertex 1.93969 -2.66976 0.900001
      vertex 1.34223 -3.0147 0.900001
    endloop
  endfacet
  facet normal -0.978148 0.207912 0
    outer loop
      vertex 3.13849 -1.01976 0.900001
      vertex 3.28192 -0.344943 1
      vertex 3.28192 -0.344943 0.900001
    endloop
  endfacet
  facet normal -0.978148 0.207912 0
    outer loop
      vertex 3.28192 -0.344943 1
      vertex 3.13849 -1.01976 0.900001
      vertex 3.13849 -1.01976 1
    endloop
  endfacet
  facet normal -0.978147 -0.207913 0
    outer loop
      vertex 3.28192 0.344944 0.900001
      vertex 3.13849 1.01976 1
      vertex 3.13849 1.01976 0.900001
    endloop
  endfacet
  facet normal -0.978147 -0.207913 0
    outer loop
      vertex 3.13849 1.01976 1
      vertex 3.28192 0.344944 0.900001
      vertex 3.28192 0.344944 1
    endloop
  endfacet
  facet normal 0.104529 0.994522 -0
    outer loop
      vertex 1.40803e-07 -3.3 0.900001
      vertex -0.686109 -3.22789 1
      vertex 1.40803e-07 -3.3 1
    endloop
  endfacet
  facet normal 0.104529 0.994522 0
    outer loop
      vertex -0.686109 -3.22789 1
      vertex 1.40803e-07 -3.3 0.900001
      vertex -0.686109 -3.22789 0.900001
    endloop
  endfacet
  facet normal -0.104529 0.994522 0
    outer loop
      vertex 0.686109 -3.22789 0.900001
      vertex 1.40803e-07 -3.3 1
      vertex 0.686109 -3.22789 1
    endloop
  endfacet
  facet normal -0.104529 0.994522 0
    outer loop
      vertex 1.40803e-07 -3.3 1
      vertex 0.686109 -3.22789 0.900001
      vertex 1.40803e-07 -3.3 0.900001
    endloop
  endfacet
  facet normal -0.499999 -0.866026 0
    outer loop
      vertex 1.34223 3.0147 0.900001
      vertex 1.93969 2.66976 1
      vertex 1.34223 3.0147 1
    endloop
  endfacet
  facet normal -0.499999 -0.866026 -0
    outer loop
      vertex 1.93969 2.66976 1
      vertex 1.34223 3.0147 0.900001
      vertex 1.93969 2.66976 0.900001
    endloop
  endfacet
  facet normal -1 3.45591e-07 0
    outer loop
      vertex 3.28192 -0.344943 0.900001
      vertex 3.28192 0.344944 1
      vertex 3.28192 0.344944 0.900001
    endloop
  endfacet
  facet normal -1 3.45591e-07 0
    outer loop
      vertex 3.28192 0.344944 1
      vertex 3.28192 -0.344943 0.900001
      vertex 3.28192 -0.344943 1
    endloop
  endfacet
  facet normal -0.809017 0.587785 0
    outer loop
      vertex 2.45238 -2.20813 0.900001
      vertex 2.85788 -1.65 1
      vertex 2.85788 -1.65 0.900001
    endloop
  endfacet
  facet normal -0.809017 0.587785 0
    outer loop
      vertex 2.85788 -1.65 1
      vertex 2.45238 -2.20813 0.900001
      vertex 2.45238 -2.20813 1
    endloop
  endfacet
  facet normal -0.66913 0.743145 0
    outer loop
      vertex 2.45238 -2.20813 0.900001
      vertex 1.93969 -2.66976 1
      vertex 2.45238 -2.20813 1
    endloop
  endfacet
  facet normal -0.66913 0.743145 0
    outer loop
      vertex 1.93969 -2.66976 1
      vertex 2.45238 -2.20813 0.900001
      vertex 1.93969 -2.66976 0.900001
    endloop
  endfacet
  facet normal -0.913545 0.406737 0
    outer loop
      vertex 2.85788 -1.65 0.900001
      vertex 3.13849 -1.01976 1
      vertex 3.13849 -1.01976 0.900001
    endloop
  endfacet
  facet normal -0.913545 0.406737 0
    outer loop
      vertex 3.13849 -1.01976 1
      vertex 2.85788 -1.65 0.900001
      vertex 2.85788 -1.65 1
    endloop
  endfacet
  facet normal 0.499999 0.866026 -0
    outer loop
      vertex -1.34223 -3.0147 0.900001
      vertex -1.93969 -2.66976 1
      vertex -1.34223 -3.0147 1
    endloop
  endfacet
  facet normal 0.499999 0.866026 0
    outer loop
      vertex -1.93969 -2.66976 1
      vertex -1.34223 -3.0147 0.900001
      vertex -1.93969 -2.66976 0.900001
    endloop
  endfacet
  facet normal 0.309017 0.951056 -0
    outer loop
      vertex -0.686109 -3.22789 0.900001
      vertex -1.34223 -3.0147 1
      vertex -0.686109 -3.22789 1
    endloop
  endfacet
  facet normal 0.309017 0.951056 0
    outer loop
      vertex -1.34223 -3.0147 1
      vertex -0.686109 -3.22789 0.900001
      vertex -1.34223 -3.0147 0.900001
    endloop
  endfacet
  facet normal 0.669132 0.743144 -0
    outer loop
      vertex -1.93969 -2.66976 0.900001
      vertex -2.45238 -2.20813 1
      vertex -1.93969 -2.66976 1
    endloop
  endfacet
  facet normal 0.669132 0.743144 0
    outer loop
      vertex -2.45238 -2.20813 1
      vertex -1.93969 -2.66976 0.900001
      vertex -2.45238 -2.20813 0.900001
    endloop
  endfacet
  facet normal -0 0 1
    outer loop
      vertex 1.79014 -0.188151 0.900001
      vertex 3.28192 -0.344943 0.900001
      vertex 3.28192 0.344944 0.900001
    endloop
  endfacet
  facet normal 0 0 1
    outer loop
      vertex 1.79014 0.188152 0.900001
      vertex 3.28192 0.344944 0.900001
      vertex 3.13849 1.01976 0.900001
    endloop
  endfacet
  facet normal 0 0 1
    outer loop
      vertex 1.7119 0.55623 0.900001
      vertex 3.13849 1.01976 0.900001
      vertex 2.85788 1.65 0.900001
    endloop
  endfacet
  facet normal 0 0 1
    outer loop
      vertex 1.79014 -0.188151 0.900001
      vertex 3.28192 0.344944 0.900001
      vertex 1.79014 0.188152 0.900001
    endloop
  endfacet
  facet normal 0 0 1
    outer loop
      vertex 1.55885 0.9 0.900001
      vertex 2.85788 1.65 0.900001
      vertex 2.45238 2.20813 0.900001
    endloop
  endfacet
  facet normal 0 0 1
    outer loop
      vertex 3.28192 -0.344943 0.900001
      vertex 1.79014 -0.188151 0.900001
      vertex 3.13849 -1.01976 0.900001
    endloop
  endfacet
  facet normal 0 0 1
    outer loop
      vertex 1.33766 1.20443 0.900001
      vertex 2.45238 2.20813 0.900001
      vertex 1.93969 2.66976 0.900001
    endloop
  endfacet
  facet normal -0 0 1
    outer loop
      vertex 1.7119 -0.55623 0.900001
      vertex 3.13849 -1.01976 0.900001
      vertex 1.79014 -0.188151 0.900001
    endloop
  endfacet
  facet normal 0 0 1
    outer loop
      vertex 3.13849 -1.01976 0.900001
      vertex 1.7119 -0.55623 0.900001
      vertex 2.85788 -1.65 0.900001
    endloop
  endfacet
  facet normal 0 0 1
    outer loop
      vertex 3.13849 1.01976 0.900001
      vertex 1.7119 0.55623 0.900001
      vertex 1.79014 0.188152 0.900001
    endloop
  endfacet
  facet normal 0 0 1
    outer loop
      vertex 2.85788 1.65 0.900001
      vertex 1.55885 0.9 0.900001
      vertex 1.7119 0.55623 0.900001
    endloop
  endfacet
  facet normal 0 0 1
    outer loop
      vertex 1.05801 1.45623 0.900001
      vertex 1.93969 2.66976 0.900001
      vertex 1.34223 3.0147 0.900001
    endloop
  endfacet
  facet normal 0 0 1
    outer loop
      vertex 2.45238 2.20813 0.900001
      vertex 1.33766 1.20443 0.900001
      vertex 1.55885 0.9 0.900001
    endloop
  endfacet
  facet normal 0 0 1
    outer loop
      vertex 1.93969 2.66976 0.900001
      vertex 1.05801 1.45623 0.900001
      vertex 1.33766 1.20443 0.900001
    endloop
  endfacet
  facet normal 0 0 1
    outer loop
      vertex 1.34223 3.0147 0.900001
      vertex 0.732126 1.64438 0.900001
      vertex 1.05801 1.45623 0.900001
    endloop
  endfacet
  facet normal 0 0 1
    outer loop
      vertex 0.686109 3.22789 0.900001
      vertex 0.732126 1.64438 0.900001
      vertex 1.34223 3.0147 0.900001
    endloop
  endfacet
  facet normal 0 0 1
    outer loop
      vertex 0.686109 3.22789 0.900001
      vertex 0.374241 1.76066 0.900001
      vertex 0.732126 1.64438 0.900001
    endloop
  endfacet
  facet normal 0 0 1
    outer loop
      vertex -1.40803e-07 3.3 0.900001
      vertex 0.374241 1.76066 0.900001
      vertex 0.686109 3.22789 0.900001
    endloop
  endfacet
  facet normal 0 0 1
    outer loop
      vertex -1.40803e-07 3.3 0.900001
      vertex -2.26966e-07 1.8 0.900001
      vertex 0.374241 1.76066 0.900001
    endloop
  endfacet
  facet normal 0 0 1
    outer loop
      vertex -1.40803e-07 3.3 0.900001
      vertex -0.374241 1.76067 0.900001
      vertex -2.26966e-07 1.8 0.900001
    endloop
  endfacet
  facet normal -0 0 1
    outer loop
      vertex -0.686109 3.22789 0.900001
      vertex -0.374241 1.76067 0.900001
      vertex -1.40803e-07 3.3 0.900001
    endloop
  endfacet
  facet normal 0 0 1
    outer loop
      vertex -0.686109 3.22789 0.900001
      vertex -0.732127 1.64438 0.900001
      vertex -0.374241 1.76067 0.900001
    endloop
  endfacet
  facet normal -0 0 1
    outer loop
      vertex -1.34223 3.0147 0.900001
      vertex -0.732127 1.64438 0.900001
      vertex -0.686109 3.22789 0.900001
    endloop
  endfacet
  facet normal 0 0 1
    outer loop
      vertex -0.732127 1.64438 0.900001
      vertex -1.34223 3.0147 0.900001
      vertex -1.05801 1.45623 0.900001
    endloop
  endfacet
  facet normal -0 0 1
    outer loop
      vertex -1.93969 2.66976 0.900001
      vertex -1.05801 1.45623 0.900001
      vertex -1.34223 3.0147 0.900001
    endloop
  endfacet
  facet normal 0 0 1
    outer loop
      vertex -1.05801 1.45623 0.900001
      vertex -1.93969 2.66976 0.900001
      vertex -1.33766 1.20444 0.900001
    endloop
  endfacet
  facet normal -0 0 1
    outer loop
      vertex -2.45238 2.20813 0.900001
      vertex -1.33766 1.20444 0.900001
      vertex -1.93969 2.66976 0.900001
    endloop
  endfacet
  facet normal 0 0 1
    outer loop
      vertex -1.33766 1.20444 0.900001
      vertex -2.45238 2.20813 0.900001
      vertex -1.55885 0.9 0.900001
    endloop
  endfacet
  facet normal 0 0 1
    outer loop
      vertex -1.55885 0.9 0.900001
      vertex -2.85788 1.65 0.900001
      vertex -1.7119 0.55623 0.900001
    endloop
  endfacet
  facet normal -0 0 1
    outer loop
      vertex -2.85788 1.65 0.900001
      vertex -1.55885 0.9 0.900001
      vertex -2.45238 2.20813 0.900001
    endloop
  endfacet
  facet normal -0 0 1
    outer loop
      vertex 1.55885 -0.9 0.900001
      vertex 2.85788 -1.65 0.900001
      vertex 1.7119 -0.55623 0.900001
    endloop
  endfacet
  facet normal 0 0 1
    outer loop
      vertex 2.85788 -1.65 0.900001
      vertex 1.55885 -0.9 0.900001
      vertex 2.45238 -2.20813 0.900001
    endloop
  endfacet
  facet normal -0 0 1
    outer loop
      vertex 1.33766 -1.20444 0.900001
      vertex 2.45238 -2.20813 0.900001
      vertex 1.55885 -0.9 0.900001
    endloop
  endfacet
  facet normal 0 0 1
    outer loop
      vertex 2.45238 -2.20813 0.900001
      vertex 1.33766 -1.20444 0.900001
      vertex 1.93969 -2.66976 0.900001
    endloop
  endfacet
  facet normal -0 0 1
    outer loop
      vertex 1.05801 -1.45623 0.900001
      vertex 1.93969 -2.66976 0.900001
      vertex 1.33766 -1.20444 0.900001
    endloop
  endfacet
  facet normal 0 0 1
    outer loop
      vertex 1.93969 -2.66976 0.900001
      vertex 1.05801 -1.45623 0.900001
      vertex 1.34223 -3.0147 0.900001
    endloop
  endfacet
  facet normal -0 0 1
    outer loop
      vertex 0.732127 -1.64438 0.900001
      vertex 1.34223 -3.0147 0.900001
      vertex 1.05801 -1.45623 0.900001
    endloop
  endfacet
  facet normal 0 0 1
    outer loop
      vertex 0.732127 -1.64438 0.900001
      vertex 0.686109 -3.22789 0.900001
      vertex 1.34223 -3.0147 0.900001
    endloop
  endfacet
  facet normal -0 0 1
    outer loop
      vertex 0.374241 -1.76067 0.900001
      vertex 0.686109 -3.22789 0.900001
      vertex 0.732127 -1.64438 0.900001
    endloop
  endfacet
  facet normal -0 0 1
    outer loop
      vertex 2.26966e-07 -1.8 0.900001
      vertex 0.686109 -3.22789 0.900001
      vertex 0.374241 -1.76067 0.900001
    endloop
  endfacet
  facet normal 0 0 1
    outer loop
      vertex 2.26966e-07 -1.8 0.900001
      vertex 1.40803e-07 -3.3 0.900001
      vertex 0.686109 -3.22789 0.900001
    endloop
  endfacet
  facet normal 0 0 1
    outer loop
      vertex -0.374241 -1.76066 0.900001
      vertex 1.40803e-07 -3.3 0.900001
      vertex 2.26966e-07 -1.8 0.900001
    endloop
  endfacet
  facet normal 0 0 1
    outer loop
      vertex -0.374241 -1.76066 0.900001
      vertex -0.686109 -3.22789 0.900001
      vertex 1.40803e-07 -3.3 0.900001
    endloop
  endfacet
  facet normal 0 0 1
    outer loop
      vertex -0.732126 -1.64438 0.900001
      vertex -0.686109 -3.22789 0.900001
      vertex -0.374241 -1.76066 0.900001
    endloop
  endfacet
  facet normal 0 0 1
    outer loop
      vertex -1.34223 -3.0147 0.900001
      vertex -0.732126 -1.64438 0.900001
      vertex -1.05801 -1.45623 0.900001
    endloop
  endfacet
  facet normal 0 0 1
    outer loop
      vertex -1.93969 -2.66976 0.900001
      vertex -1.05801 -1.45623 0.900001
      vertex -1.33766 -1.20443 0.900001
    endloop
  endfacet
  facet normal 0 0 1
    outer loop
      vertex -0.732126 -1.64438 0.900001
      vertex -1.34223 -3.0147 0.900001
      vertex -0.686109 -3.22789 0.900001
    endloop
  endfacet
  facet normal 0 0 1
    outer loop
      vertex -2.45238 -2.20813 0.900001
      vertex -1.33766 -1.20443 0.900001
      vertex -1.55885 -0.9 0.900001
    endloop
  endfacet
  facet normal 0 0 1
    outer loop
      vertex -2.85788 -1.65 0.900001
      vertex -1.55885 -0.9 0.900001
      vertex -1.7119 -0.55623 0.900001
    endloop
  endfacet
  facet normal 0 0 1
    outer loop
      vertex -3.13849 -1.01976 0.900001
      vertex -1.7119 -0.55623 0.900001
      vertex -1.79014 -0.188152 0.900001
    endloop
  endfacet
  facet normal 0 0 1
    outer loop
      vertex -1.05801 -1.45623 0.900001
      vertex -1.93969 -2.66976 0.900001
      vertex -1.34223 -3.0147 0.900001
    endloop
  endfacet
  facet normal -0 0 1
    outer loop
      vertex -3.13849 1.01976 0.900001
      vertex -1.7119 0.55623 0.900001
      vertex -2.85788 1.65 0.900001
    endloop
  endfacet
  facet normal 0 0 1
    outer loop
      vertex -1.7119 0.55623 0.900001
      vertex -3.13849 1.01976 0.900001
      vertex -1.79014 0.188151 0.900001
    endloop
  endfacet
  facet normal 0 0 1
    outer loop
      vertex -1.33766 -1.20443 0.900001
      vertex -2.45238 -2.20813 0.900001
      vertex -1.93969 -2.66976 0.900001
    endloop
  endfacet
  facet normal -0 0 1
    outer loop
      vertex -3.28192 0.344943 0.900001
      vertex -1.79014 0.188151 0.900001
      vertex -3.13849 1.01976 0.900001
    endloop
  endfacet
  facet normal 0 0 1
    outer loop
      vertex -1.55885 -0.9 0.900001
      vertex -2.85788 -1.65 0.900001
      vertex -2.45238 -2.20813 0.900001
    endloop
  endfacet
  facet normal 0 0 1
    outer loop
      vertex -1.7119 -0.55623 0.900001
      vertex -3.13849 -1.01976 0.900001
      vertex -2.85788 -1.65 0.900001
    endloop
  endfacet
  facet normal 0 0 1
    outer loop
      vertex -1.79014 0.188151 0.900001
      vertex -3.28192 0.344943 0.900001
      vertex -1.79014 -0.188152 0.900001
    endloop
  endfacet
  facet normal 0 0 1
    outer loop
      vertex -3.28192 -0.344944 0.900001
      vertex -1.79014 -0.188152 0.900001
      vertex -3.28192 0.344943 0.900001
    endloop
  endfacet
  facet normal 0 0 1
    outer loop
      vertex -1.79014 -0.188152 0.900001
      vertex -3.28192 -0.344944 0.900001
      vertex -3.13849 -1.01976 0.900001
    endloop
  endfacet
  facet normal -0.309017 0.951056 0
    outer loop
      vertex 1.34223 -3.0147 0.900001
      vertex 0.686109 -3.22789 1
      vertex 1.34223 -3.0147 1
    endloop
  endfacet
  facet normal -0.309017 0.951056 0
    outer loop
      vertex 0.686109 -3.22789 1
      vertex 1.34223 -3.0147 0.900001
      vertex 0.686109 -3.22789 0.900001
    endloop
  endfacet
  facet normal 0.66913 -0.743145 0
    outer loop
      vertex -2.45238 2.20813 0.900001
      vertex -1.93969 2.66976 1
      vertex -2.45238 2.20813 1
    endloop
  endfacet
  facet normal 0.66913 -0.743145 0
    outer loop
      vertex -1.93969 2.66976 1
      vertex -2.45238 2.20813 0.900001
      vertex -1.93969 2.66976 0.900001
    endloop
  endfacet
  facet normal 0.309017 -0.951056 0
    outer loop
      vertex -1.34223 3.0147 0.900001
      vertex -0.686109 3.22789 1
      vertex -1.34223 3.0147 1
    endloop
  endfacet
  facet normal 0.309017 -0.951056 0
    outer loop
      vertex -0.686109 3.22789 1
      vertex -1.34223 3.0147 0.900001
      vertex -0.686109 3.22789 0.900001
    endloop
  endfacet
  facet normal -0.104529 -0.994522 0
    outer loop
      vertex -1.40803e-07 3.3 0.900001
      vertex 0.686109 3.22789 1
      vertex -1.40803e-07 3.3 1
    endloop
  endfacet
  facet normal -0.104529 -0.994522 -0
    outer loop
      vertex 0.686109 3.22789 1
      vertex -1.40803e-07 3.3 0.900001
      vertex 0.686109 3.22789 0.900001
    endloop
  endfacet
  facet normal -0.309017 -0.951056 0
    outer loop
      vertex 0.686109 3.22789 0.900001
      vertex 1.34223 3.0147 1
      vertex 0.686109 3.22789 1
    endloop
  endfacet
  facet normal -0.309017 -0.951056 -0
    outer loop
      vertex 1.34223 3.0147 1
      vertex 0.686109 3.22789 0.900001
      vertex 1.34223 3.0147 0.900001
    endloop
  endfacet
  facet normal -0.669132 -0.743144 0
    outer loop
      vertex 1.93969 2.66976 0.900001
      vertex 2.45238 2.20813 1
      vertex 1.93969 2.66976 1
    endloop
  endfacet
  facet normal -0.669132 -0.743144 -0
    outer loop
      vertex 2.45238 2.20813 1
      vertex 1.93969 2.66976 0.900001
      vertex 2.45238 2.20813 0.900001
    endloop
  endfacet
  facet normal -0.809017 -0.587786 0
    outer loop
      vertex 2.85788 1.65 0.900001
      vertex 2.45238 2.20813 1
      vertex 2.45238 2.20813 0.900001
    endloop
  endfacet
  facet normal -0.809017 -0.587786 0
    outer loop
      vertex 2.45238 2.20813 1
      vertex 2.85788 1.65 0.900001
      vertex 2.85788 1.65 1
    endloop
  endfacet
  facet normal 1 -3.45591e-07 0
    outer loop
      vertex -3.28192 -0.344944 1
      vertex -3.28192 0.344943 0.900001
      vertex -3.28192 0.344943 1
    endloop
  endfacet
  facet normal 1 -3.45591e-07 0
    outer loop
      vertex -3.28192 0.344943 0.900001
      vertex -3.28192 -0.344944 1
      vertex -3.28192 -0.344944 0.900001
    endloop
  endfacet
  facet normal 0.913546 0.406736 0
    outer loop
      vertex -2.85788 -1.65 1
      vertex -3.13849 -1.01976 0.900001
      vertex -3.13849 -1.01976 1
    endloop
  endfacet
  facet normal 0.913546 0.406736 0
    outer loop
      vertex -3.13849 -1.01976 0.900001
      vertex -2.85788 -1.65 1
      vertex -2.85788 -1.65 0.900001
    endloop
  endfacet
  facet normal 0.978147 0.207913 0
    outer loop
      vertex -3.13849 -1.01976 1
      vertex -3.28192 -0.344944 0.900001
      vertex -3.28192 -0.344944 1
    endloop
  endfacet
  facet normal 0.978147 0.207913 0
    outer loop
      vertex -3.28192 -0.344944 0.900001
      vertex -3.13849 -1.01976 1
      vertex -3.13849 -1.01976 0.900001
    endloop
  endfacet
  facet normal 0.104529 -0.994522 0
    outer loop
      vertex -0.686109 3.22789 0.900001
      vertex -1.40803e-07 3.3 1
      vertex -0.686109 3.22789 1
    endloop
  endfacet
  facet normal 0.104529 -0.994522 0
    outer loop
      vertex -1.40803e-07 3.3 1
      vertex -0.686109 3.22789 0.900001
      vertex -1.40803e-07 3.3 0.900001
    endloop
  endfacet
  facet normal 0.5 -0.866025 0
    outer loop
      vertex -1.93969 2.66976 0.900001
      vertex -1.34223 3.0147 1
      vertex -1.93969 2.66976 1
    endloop
  endfacet
  facet normal 0.5 -0.866025 0
    outer loop
      vertex -1.34223 3.0147 1
      vertex -1.93969 2.66976 0.900001
      vertex -1.34223 3.0147 0.900001
    endloop
  endfacet
  facet normal 0.913545 -0.406737 0
    outer loop
      vertex -3.13849 1.01976 1
      vertex -2.85788 1.65 0.900001
      vertex -2.85788 1.65 1
    endloop
  endfacet
  facet normal 0.913545 -0.406737 0
    outer loop
      vertex -2.85788 1.65 0.900001
      vertex -3.13849 1.01976 1
      vertex -3.13849 1.01976 0.900001
    endloop
  endfacet
  facet normal 0.809017 -0.587785 0
    outer loop
      vertex -2.85788 1.65 1
      vertex -2.45238 2.20813 0.900001
      vertex -2.45238 2.20813 1
    endloop
  endfacet
  facet normal 0.809017 -0.587785 0
    outer loop
      vertex -2.45238 2.20813 0.900001
      vertex -2.85788 1.65 1
      vertex -2.85788 1.65 0.900001
    endloop
  endfacet
  facet normal 0.978148 -0.207912 0
    outer loop
      vertex -3.28192 0.344943 1
      vertex -3.13849 1.01976 0.900001
      vertex -3.13849 1.01976 1
    endloop
  endfacet
  facet normal 0.978148 -0.207912 0
    outer loop
      vertex -3.13849 1.01976 0.900001
      vertex -3.28192 0.344943 1
      vertex -3.28192 0.344943 0.900001
    endloop
  endfacet
  facet normal 0 0 -1
    outer loop
      vertex 7.10286 -4.12408 0
      vertex 6.73954 -2.8986 0
      vertex 7.12299 -4.08922 0
    endloop
  endfacet
  facet normal 0 0 -1
    outer loop
      vertex 5.88003 -4.38731 0
      vertex 6.73954 -2.8986 0
      vertex 7.10286 -4.12408 0
    endloop
  endfacet
  facet normal -0 0 -1
    outer loop
      vertex 6.73954 -2.8986 0
      vertex 5.88003 -4.38731 0
      vertex 6.24211 -2.06249 0
    endloop
  endfacet
  facet normal 0 0 -1
    outer loop
      vertex 4.90723 -4.37458 0
      vertex 6.24211 -2.06249 0
      vertex 5.88003 -4.38731 0
    endloop
  endfacet
  facet normal -0 0 -1
    outer loop
      vertex 6.24211 -2.06249 0
      vertex 4.90723 -4.37458 0
      vertex 5.76294 -1.55918 0
    endloop
  endfacet
  facet normal 0 0 -1
    outer loop
      vertex 4.23176 -4.21126 0
      vertex 5.76294 -1.55918 0
      vertex 4.90723 -4.37458 0
    endloop
  endfacet
  facet normal 0 -0 -1
    outer loop
      vertex 5.28738 -1.27509 0
      vertex 5.76294 -1.55918 0
      vertex 4.23176 -4.21126 0
    endloop
  endfacet
  facet normal 0 0 -1
    outer loop
      vertex 5.76294 -1.55918 0
      vertex 5.28738 -1.27509 0
      vertex 5.41614 -1.32765 0
    endloop
  endfacet
  facet normal 0 0 -1
    outer loop
      vertex 3.74795 -3.94146 0
      vertex 5.28738 -1.27509 0
      vertex 4.23176 -4.21126 0
    endloop
  endfacet
  facet normal 0 0 -1
    outer loop
      vertex 3.74795 -3.94146 0
      vertex 4.23176 -4.21126 0
      vertex 3.85785 -4.02669 0
    endloop
  endfacet
  facet normal 0 0 -1
    outer loop
      vertex 2.79416 -2.93843 0
      vertex 5.28738 -1.27509 0
      vertex 3.74795 -3.94146 0
    endloop
  endfacet
  facet normal 0 0 -1
    outer loop
      vertex 3.90803 -0.94245 0
      vertex 3.74795 3.94145 0
      vertex 3.85786 4.02669 0
    endloop
  endfacet
  facet normal -0 0 -1
    outer loop
      vertex 5.28738 -1.27509 0
      vertex 2.79416 -2.93843 0
      vertex 3.90803 -0.94245 0
    endloop
  endfacet
  facet normal 0 0 -1
    outer loop
      vertex 1.55885 -0.9 0
      vertex 3.90803 -0.94245 0
      vertex 2.79416 -2.93843 0
    endloop
  endfacet
  facet normal 0 0 -1
    outer loop
      vertex 3.90803 -0.94245 0
      vertex 2.7702 2.91322 0
      vertex 3.74795 3.94145 0
    endloop
  endfacet
  facet normal 0 0 -1
    outer loop
      vertex 1.79014 0.188152 0
      vertex 3.90803 -0.94245 0
      vertex 1.79014 -0.188151 0
    endloop
  endfacet
  facet normal 0 0 -1
    outer loop
      vertex 3.90803 -0.94245 0
      vertex 1.7119 -0.55623 0
      vertex 1.79014 -0.188151 0
    endloop
  endfacet
  facet normal 0 0 -1
    outer loop
      vertex 3.90803 -0.94245 0
      vertex 1.55885 -0.9 0
      vertex 1.7119 -0.55623 0
    endloop
  endfacet
  facet normal 0 0 -1
    outer loop
      vertex 2.79416 -2.93843 0
      vertex 1.33766 -1.20444 0
      vertex 1.55885 -0.9 0
    endloop
  endfacet
  facet normal 0 0 -1
    outer loop
      vertex 1.05801 -1.45623 0
      vertex 2.79416 -2.93843 0
      vertex 1.13783 -3.85568 0
    endloop
  endfacet
  facet normal 0 0 -1
    outer loop
      vertex 2.79416 -2.93843 0
      vertex 1.05801 -1.45623 0
      vertex 1.33766 -1.20444 0
    endloop
  endfacet
  facet normal 0 0 -1
    outer loop
      vertex 6.73954 2.8986 0
      vertex 7.10287 4.12408 0
      vertex 7.123 4.08922 0
    endloop
  endfacet
  facet normal 0 0 -1
    outer loop
      vertex 5.88003 4.38731 0
      vertex 6.73954 2.8986 0
      vertex 6.24211 2.06249 0
    endloop
  endfacet
  facet normal 0 0 -1
    outer loop
      vertex 6.73954 2.8986 0
      vertex 5.88003 4.38731 0
      vertex 7.10287 4.12408 0
    endloop
  endfacet
  facet normal 0 0 -1
    outer loop
      vertex 4.90723 4.37457 0
      vertex 6.24211 2.06249 0
      vertex 5.76294 1.55918 0
    endloop
  endfacet
  facet normal 0 0 -1
    outer loop
      vertex 5.28738 1.27509 0
      vertex 5.76294 1.55918 0
      vertex 5.41615 1.32765 0
    endloop
  endfacet
  facet normal -0 0 -1
    outer loop
      vertex 5.76294 1.55918 0
      vertex 5.28738 1.27509 0
      vertex 4.23176 4.21125 0
    endloop
  endfacet
  facet normal 0 0 -1
    outer loop
      vertex 6.24211 2.06249 0
      vertex 4.90723 4.37457 0
      vertex 5.88003 4.38731 0
    endloop
  endfacet
  facet normal 0 0 -1
    outer loop
      vertex 5.76294 1.55918 0
      vertex 4.23176 4.21125 0
      vertex 4.90723 4.37457 0
    endloop
  endfacet
  facet normal 0 0 -1
    outer loop
      vertex 3.85786 4.02669 0
      vertex 5.28738 1.27509 0
      vertex 3.94183 0.950606 0
    endloop
  endfacet
  facet normal 0 0 -1
    outer loop
      vertex 5.28738 1.27509 0
      vertex 3.85786 4.02669 0
      vertex 4.23176 4.21125 0
    endloop
  endfacet
  facet normal 0 0 -1
    outer loop
      vertex 3.85786 4.02669 0
      vertex 3.94183 0.950606 0
      vertex 3.90803 -0.94245 0
    endloop
  endfacet
  facet normal 0 0 -1
    outer loop
      vertex 1.7119 0.55623 0
      vertex 3.90803 -0.94245 0
      vertex 1.79014 0.188152 0
    endloop
  endfacet
  facet normal 0 0 -1
    outer loop
      vertex 3.90803 -0.94245 0
      vertex 1.7119 0.55623 0
      vertex 2.7702 2.91322 0
    endloop
  endfacet
  facet normal 0 0 -1
    outer loop
      vertex 1.55885 0.9 0
      vertex 2.7702 2.91322 0
      vertex 1.7119 0.55623 0
    endloop
  endfacet
  facet normal 0 0 -1
    outer loop
      vertex 1.33766 1.20443 0
      vertex 2.7702 2.91322 0
      vertex 1.55885 0.9 0
    endloop
  endfacet
  facet normal 0 0 -1
    outer loop
      vertex 1.05801 1.45623 0
      vertex 2.7702 2.91322 0
      vertex 1.33766 1.20443 0
    endloop
  endfacet
  facet normal 0 0 -1
    outer loop
      vertex 0.732126 1.64438 0
      vertex 2.7702 2.91322 0
      vertex 1.05801 1.45623 0
    endloop
  endfacet
  facet normal 0 0 -1
    outer loop
      vertex 1.53943 5.21655 0
      vertex 1.53117 5.77044 0
      vertex 1.55829 5.35434 0
    endloop
  endfacet
  facet normal 0 0 -1
    outer loop
      vertex -1.53118 5.77044 0
      vertex 1.53117 5.77044 0
      vertex 1.53943 5.21655 0
    endloop
  endfacet
  facet normal 0 0 -1
    outer loop
      vertex -1.53943 5.21655 0
      vertex 1.53943 5.21655 0
      vertex 1.14767 3.88903 0
    endloop
  endfacet
  facet normal 0 -0 -1
    outer loop
      vertex -1.53118 5.77044 0
      vertex 1.53943 5.21655 0
      vertex -1.53943 5.21655 0
    endloop
  endfacet
  facet normal -0 0 -1
    outer loop
      vertex 2.7702 2.91322 0
      vertex 0.732126 1.64438 0
      vertex 1.14767 3.88903 0
    endloop
  endfacet
  facet normal 0 0 -1
    outer loop
      vertex 0.374241 1.76066 0
      vertex 1.14767 3.88903 0
      vertex 0.732126 1.64438 0
    endloop
  endfacet
  facet normal 0 0 -1
    outer loop
      vertex -2.26966e-07 1.8 0
      vertex 1.14767 3.88903 0
      vertex 0.374241 1.76066 0
    endloop
  endfacet
  facet normal 0 0 -1
    outer loop
      vertex -1.53943 5.21655 0
      vertex 1.14767 3.88903 0
      vertex -1.13783 3.85568 0
    endloop
  endfacet
  facet normal 0 0 -1
    outer loop
      vertex 1.14767 3.88903 0
      vertex -2.26966e-07 1.8 0
      vertex -1.13783 3.85568 0
    endloop
  endfacet
  facet normal -0 0 -1
    outer loop
      vertex 1.53117 5.77044 0
      vertex -1.53118 5.77044 0
      vertex 1.33488 6.43707 0
    endloop
  endfacet
  facet normal 0 0 -1
    outer loop
      vertex -1.13783 3.85568 0
      vertex -2.26966e-07 1.8 0
      vertex -0.374241 1.76067 0
    endloop
  endfacet
  facet normal 0 0 -1
    outer loop
      vertex -1.13783 3.85568 0
      vertex -0.374241 1.76067 0
      vertex -0.732127 1.64438 0
    endloop
  endfacet
  facet normal 0 0 -1
    outer loop
      vertex 0.859504 7.28591 0
      vertex -0.859506 7.28591 0
      vertex 0.0201285 8.2133 0
    endloop
  endfacet
  facet normal 0 0 -1
    outer loop
      vertex -1.13783 3.85568 0
      vertex -0.732127 1.64438 0
      vertex -1.05801 1.45623 0
    endloop
  endfacet
  facet normal 0 0 -1
    outer loop
      vertex 0.0201285 8.2133 0
      vertex -0.859506 7.28591 0
      vertex -0.0201297 8.2133 0
    endloop
  endfacet
  facet normal -0 0 -1
    outer loop
      vertex 0.859504 7.28591 0
      vertex -1.33488 6.43707 0
      vertex -0.859506 7.28591 0
    endloop
  endfacet
  facet normal 0 -0 -1
    outer loop
      vertex -1.33488 6.43707 0
      vertex 1.33488 6.43707 0
      vertex -1.53118 5.77044 0
    endloop
  endfacet
  facet normal 0 0 -1
    outer loop
      vertex 1.33488 6.43707 0
      vertex -1.33488 6.43707 0
      vertex 0.859504 7.28591 0
    endloop
  endfacet
  facet normal 0 0 -1
    outer loop
      vertex -1.53118 5.77044 0
      vertex -1.53943 5.21655 0
      vertex -1.55829 5.35434 0
    endloop
  endfacet
  facet normal -0 0 -1
    outer loop
      vertex -1.79014 -0.188152 0
      vertex -3.94183 -0.950606 0
      vertex -3.90803 0.94245 0
    endloop
  endfacet
  facet normal -0 0 -1
    outer loop
      vertex -3.74795 -3.94145 0
      vertex -4.23176 -4.21125 0
      vertex -5.28738 -1.27509 0
    endloop
  endfacet
  facet normal 0 0 -1
    outer loop
      vertex -5.76294 -1.55918 0
      vertex -4.23176 -4.21125 0
      vertex -4.90723 -4.37457 0
    endloop
  endfacet
  facet normal 0 0 -1
    outer loop
      vertex -3.74795 -3.94145 0
      vertex -5.28738 -1.27509 0
      vertex -3.94183 -0.950606 0
    endloop
  endfacet
  facet normal 0 0 -1
    outer loop
      vertex -4.23176 -4.21125 0
      vertex -5.76294 -1.55918 0
      vertex -5.28738 -1.27509 0
    endloop
  endfacet
  facet normal 0 0 -1
    outer loop
      vertex -5.28738 -1.27509 0
      vertex -5.76294 -1.55918 0
      vertex -5.41615 -1.32765 0
    endloop
  endfacet
  facet normal 0 0 -1
    outer loop
      vertex -6.24211 -2.06249 0
      vertex -4.90723 -4.37457 0
      vertex -5.88003 -4.38731 0
    endloop
  endfacet
  facet normal 0 0 -1
    outer loop
      vertex -4.90723 -4.37457 0
      vertex -6.24211 -2.06249 0
      vertex -5.76294 -1.55918 0
    endloop
  endfacet
  facet normal 0 0 -1
    outer loop
      vertex -5.88003 -4.38731 0
      vertex -6.73954 -2.8986 0
      vertex -6.24211 -2.06249 0
    endloop
  endfacet
  facet normal 0 0 -1
    outer loop
      vertex -7.10287 -4.12408 0
      vertex -6.73954 -2.8986 0
      vertex -5.88003 -4.38731 0
    endloop
  endfacet
  facet normal 0 0 -1
    outer loop
      vertex -6.73954 -2.8986 0
      vertex -7.10287 -4.12408 0
      vertex -7.123 -4.08922 0
    endloop
  endfacet
  facet normal 0 0 -1
    outer loop
      vertex -2.79416 2.93843 0
      vertex -1.05801 1.45623 0
      vertex -1.33766 1.20444 0
    endloop
  endfacet
  facet normal 0 0 -1
    outer loop
      vertex -2.79416 2.93843 0
      vertex -1.33766 1.20444 0
      vertex -1.55885 0.9 0
    endloop
  endfacet
  facet normal 0 0 -1
    outer loop
      vertex -3.90803 0.94245 0
      vertex -1.55885 0.9 0
      vertex -1.7119 0.55623 0
    endloop
  endfacet
  facet normal 0 0 -1
    outer loop
      vertex -3.90803 0.94245 0
      vertex -1.7119 0.55623 0
      vertex -1.79014 0.188151 0
    endloop
  endfacet
  facet normal 0 0 -1
    outer loop
      vertex -1.79014 -0.188152 0
      vertex -3.90803 0.94245 0
      vertex -1.79014 0.188151 0
    endloop
  endfacet
  facet normal 0 0 -1
    outer loop
      vertex -1.55885 0.9 0
      vertex -3.90803 0.94245 0
      vertex -2.79416 2.93843 0
    endloop
  endfacet
  facet normal 0 0 -1
    outer loop
      vertex -1.05801 1.45623 0
      vertex -2.79416 2.93843 0
      vertex -1.13783 3.85568 0
    endloop
  endfacet
  facet normal 0 0 -1
    outer loop
      vertex -3.94183 -0.950606 0
      vertex -2.7702 -2.91322 0
      vertex -3.74795 -3.94145 0
    endloop
  endfacet
  facet normal 0 0 -1
    outer loop
      vertex -5.28738 1.27509 0
      vertex -2.79416 2.93843 0
      vertex -3.90803 0.94245 0
    endloop
  endfacet
  facet normal 0 0 -1
    outer loop
      vertex -4.23176 -4.21125 0
      vertex -3.74795 -3.94145 0
      vertex -3.85786 -4.02669 0
    endloop
  endfacet
  facet normal -0 0 -1
    outer loop
      vertex -2.79416 2.93843 0
      vertex -5.28738 1.27509 0
      vertex -3.74795 3.94146 0
    endloop
  endfacet
  facet normal 0 -0 -1
    outer loop
      vertex -4.23176 4.21126 0
      vertex -3.74795 3.94146 0
      vertex -5.28738 1.27509 0
    endloop
  endfacet
  facet normal 0 0 -1
    outer loop
      vertex -3.74795 3.94146 0
      vertex -4.23176 4.21126 0
      vertex -3.85785 4.02669 0
    endloop
  endfacet
  facet normal 0 0 -1
    outer loop
      vertex -5.76294 1.55918 0
      vertex -4.23176 4.21126 0
      vertex -5.28738 1.27509 0
    endloop
  endfacet
  facet normal 0 0 -1
    outer loop
      vertex -5.76294 1.55918 0
      vertex -5.28738 1.27509 0
      vertex -5.41614 1.32765 0
    endloop
  endfacet
  facet normal -0 0 -1
    outer loop
      vertex -4.23176 4.21126 0
      vertex -5.76294 1.55918 0
      vertex -4.90723 4.37458 0
    endloop
  endfacet
  facet normal 0 0 -1
    outer loop
      vertex -6.24211 2.06249 0
      vertex -4.90723 4.37458 0
      vertex -5.76294 1.55918 0
    endloop
  endfacet
  facet normal -0 0 -1
    outer loop
      vertex -4.90723 4.37458 0
      vertex -6.24211 2.06249 0
      vertex -5.88003 4.38731 0
    endloop
  endfacet
  facet normal 0 0 -1
    outer loop
      vertex -6.73954 2.8986 0
      vertex -5.88003 4.38731 0
      vertex -6.24211 2.06249 0
    endloop
  endfacet
  facet normal 0 0 -1
    outer loop
      vertex -6.73954 2.8986 0
      vertex -7.10286 4.12408 0
      vertex -5.88003 4.38731 0
    endloop
  endfacet
  facet normal 0 -0 -1
    outer loop
      vertex -7.10286 4.12408 0
      vertex -6.73954 2.8986 0
      vertex -7.12299 4.08922 0
    endloop
  endfacet
  facet normal 0 0 -1
    outer loop
      vertex 1.53118 -5.77044 0
      vertex 1.53943 -5.21655 0
      vertex 1.55829 -5.35434 0
    endloop
  endfacet
  facet normal 0 0 -1
    outer loop
      vertex -1.53117 -5.77044 0
      vertex 1.53118 -5.77044 0
      vertex 1.33488 -6.43707 0
    endloop
  endfacet
  facet normal -0 0 -1
    outer loop
      vertex 1.53118 -5.77044 0
      vertex -1.53117 -5.77044 0
      vertex 1.53943 -5.21655 0
    endloop
  endfacet
  facet normal 0 0 -1
    outer loop
      vertex -1.33488 -6.43707 0
      vertex 1.33488 -6.43707 0
      vertex 0.859506 -7.28591 0
    endloop
  endfacet
  facet normal 0 0 -1
    outer loop
      vertex 1.53943 -5.21655 0
      vertex -1.53117 -5.77044 0
      vertex -1.53943 -5.21655 0
    endloop
  endfacet
  facet normal 0 0 -1
    outer loop
      vertex 1.13783 -3.85568 0
      vertex 0.732127 -1.64438 0
      vertex 1.05801 -1.45623 0
    endloop
  endfacet
  facet normal 0 -0 -1
    outer loop
      vertex 2.26966e-07 -1.8 0
      vertex 1.13783 -3.85568 0
      vertex -1.14767 -3.88903 0
    endloop
  endfacet
  facet normal 0 0 -1
    outer loop
      vertex -0.859504 -7.28591 0
      vertex 0.859506 -7.28591 0
      vertex 0.0201297 -8.2133 0
    endloop
  endfacet
  facet normal 0 0 -1
    outer loop
      vertex 1.13783 -3.85568 0
      vertex 0.374241 -1.76067 0
      vertex 0.732127 -1.64438 0
    endloop
  endfacet
  facet normal 0 0 -1
    outer loop
      vertex -0.859504 -7.28591 0
      vertex 0.0201297 -8.2133 0
      vertex -0.0201285 -8.2133 0
    endloop
  endfacet
  facet normal 0 0 -1
    outer loop
      vertex 1.13783 -3.85568 0
      vertex 2.26966e-07 -1.8 0
      vertex 0.374241 -1.76067 0
    endloop
  endfacet
  facet normal -0 0 -1
    outer loop
      vertex 2.26966e-07 -1.8 0
      vertex -1.14767 -3.88903 0
      vertex -0.374241 -1.76066 0
    endloop
  endfacet
  facet normal 0 0 -1
    outer loop
      vertex -1.33488 -6.43707 0
      vertex 0.859506 -7.28591 0
      vertex -0.859504 -7.28591 0
    endloop
  endfacet
  facet normal -0 0 -1
    outer loop
      vertex -0.374241 -1.76066 0
      vertex -1.14767 -3.88903 0
      vertex -0.732126 -1.64438 0
    endloop
  endfacet
  facet normal 0 0 -1
    outer loop
      vertex -2.7702 -2.91322 0
      vertex -0.732126 -1.64438 0
      vertex -1.14767 -3.88903 0
    endloop
  endfacet
  facet normal 0 0 -1
    outer loop
      vertex 1.33488 -6.43707 0
      vertex -1.33488 -6.43707 0
      vertex -1.53117 -5.77044 0
    endloop
  endfacet
  facet normal 0 -0 -1
    outer loop
      vertex -1.14767 -3.88903 0
      vertex 1.53943 -5.21655 0
      vertex -1.53943 -5.21655 0
    endloop
  endfacet
  facet normal 0 0 -1
    outer loop
      vertex 1.53943 -5.21655 0
      vertex -1.14767 -3.88903 0
      vertex 1.13783 -3.85568 0
    endloop
  endfacet
  facet normal 0 -0 -1
    outer loop
      vertex -1.53943 -5.21655 0
      vertex -1.53117 -5.77044 0
      vertex -1.55829 -5.35434 0
    endloop
  endfacet
  facet normal -0 0 -1
    outer loop
      vertex -0.732126 -1.64438 0
      vertex -2.7702 -2.91322 0
      vertex -1.05801 -1.45623 0
    endloop
  endfacet
  facet normal -0 0 -1
    outer loop
      vertex -1.05801 -1.45623 0
      vertex -2.7702 -2.91322 0
      vertex -1.33766 -1.20443 0
    endloop
  endfacet
  facet normal -0 0 -1
    outer loop
      vertex -1.33766 -1.20443 0
      vertex -2.7702 -2.91322 0
      vertex -1.55885 -0.9 0
    endloop
  endfacet
  facet normal 0 0 -1
    outer loop
      vertex -3.94183 -0.950606 0
      vertex -1.55885 -0.9 0
      vertex -2.7702 -2.91322 0
    endloop
  endfacet
  facet normal 0 0 -1
    outer loop
      vertex -3.94183 -0.950606 0
      vertex -1.79014 -0.188152 0
      vertex -1.7119 -0.55623 0
    endloop
  endfacet
  facet normal -0 0 -1
    outer loop
      vertex -1.55885 -0.9 0
      vertex -3.94183 -0.950606 0
      vertex -1.7119 -0.55623 0
    endloop
  endfacet
  facet normal 0 0 1
    outer loop
      vertex 1.53117 5.77044 1
      vertex 1.53943 5.21655 1
      vertex 1.55829 5.35434 1
    endloop
  endfacet
  facet normal 0 0 1
    outer loop
      vertex -1.53118 5.77044 1
      vertex 1.53117 5.77044 1
      vertex 1.33488 6.43707 1
    endloop
  endfacet
  facet normal 0 0 1
    outer loop
      vertex 1.53117 5.77044 1
      vertex -1.53118 5.77044 1
      vertex 1.53943 5.21655 1
    endloop
  endfacet
  facet normal -0 0 1
    outer loop
      vertex -1.33488 6.43707 1
      vertex 1.33488 6.43707 1
      vertex 0.859504 7.28591 1
    endloop
  endfacet
  facet normal 0 0 1
    outer loop
      vertex 7.10287 4.12408 1
      vertex 6.73954 2.8986 1
      vertex 7.123 4.08922 1
    endloop
  endfacet
  facet normal 0 0 1
    outer loop
      vertex 5.88003 4.38731 1
      vertex 6.73954 2.8986 1
      vertex 7.10287 4.12408 1
    endloop
  endfacet
  facet normal 0 0 1
    outer loop
      vertex 6.73954 2.8986 1
      vertex 5.88003 4.38731 1
      vertex 6.24211 2.06249 1
    endloop
  endfacet
  facet normal -0 0 1
    outer loop
      vertex 4.90723 4.37457 1
      vertex 6.24211 2.06249 1
      vertex 5.88003 4.38731 1
    endloop
  endfacet
  facet normal 0 0 1
    outer loop
      vertex 6.24211 2.06249 1
      vertex 4.90723 4.37457 1
      vertex 5.76294 1.55918 1
    endloop
  endfacet
  facet normal -0 0 1
    outer loop
      vertex 4.23176 4.21125 1
      vertex 5.76294 1.55918 1
      vertex 4.90723 4.37457 1
    endloop
  endfacet
  facet normal 0 -0 1
    outer loop
      vertex 5.28738 1.27509 1
      vertex 5.76294 1.55918 1
      vertex 4.23176 4.21125 1
    endloop
  endfacet
  facet normal 0 0 1
    outer loop
      vertex 5.76294 1.55918 1
      vertex 5.28738 1.27509 1
      vertex 5.41615 1.32765 1
    endloop
  endfacet
  facet normal -0 0 1
    outer loop
      vertex 3.74795 3.94145 1
      vertex 5.28738 1.27509 1
      vertex 4.23176 4.21125 1
    endloop
  endfacet
  facet normal 0 0 1
    outer loop
      vertex 5.28738 1.27509 1
      vertex 3.74795 3.94145 1
      vertex 3.94183 0.950606 1
    endloop
  endfacet
  facet normal 0 0 1
    outer loop
      vertex 3.74795 3.94145 1
      vertex 4.23176 4.21125 1
      vertex 3.85786 4.02669 1
    endloop
  endfacet
  facet normal 0 0 1
    outer loop
      vertex 6.73954 -2.8986 1
      vertex 7.10286 -4.12408 1
      vertex 7.12299 -4.08922 1
    endloop
  endfacet
  facet normal 0 0 1
    outer loop
      vertex 5.88003 -4.38731 1
      vertex 6.73954 -2.8986 1
      vertex 6.24211 -2.06249 1
    endloop
  endfacet
  facet normal 0 0 1
    outer loop
      vertex 6.73954 -2.8986 1
      vertex 5.88003 -4.38731 1
      vertex 7.10286 -4.12408 1
    endloop
  endfacet
  facet normal 0 0 1
    outer loop
      vertex 4.90723 -4.37458 1
      vertex 6.24211 -2.06249 1
      vertex 5.76294 -1.55918 1
    endloop
  endfacet
  facet normal 0 0 1
    outer loop
      vertex 5.28738 -1.27509 1
      vertex 5.76294 -1.55918 1
      vertex 5.41614 -1.32765 1
    endloop
  endfacet
  facet normal 0 0 1
    outer loop
      vertex 5.76294 -1.55918 1
      vertex 5.28738 -1.27509 1
      vertex 4.23176 -4.21126 1
    endloop
  endfacet
  facet normal 0 0 1
    outer loop
      vertex 6.24211 -2.06249 1
      vertex 4.90723 -4.37458 1
      vertex 5.88003 -4.38731 1
    endloop
  endfacet
  facet normal 0 0 1
    outer loop
      vertex 5.76294 -1.55918 1
      vertex 4.23176 -4.21126 1
      vertex 4.90723 -4.37458 1
    endloop
  endfacet
  facet normal 0 0 1
    outer loop
      vertex 2.79416 -2.93843 1
      vertex 5.28738 -1.27509 1
      vertex 3.90803 -0.94245 1
    endloop
  endfacet
  facet normal 0 0 1
    outer loop
      vertex 5.28738 -1.27509 1
      vertex 3.74795 -3.94146 1
      vertex 4.23176 -4.21126 1
    endloop
  endfacet
  facet normal 0 0 1
    outer loop
      vertex 3.94183 0.950606 1
      vertex 3.28192 0.344944 1
      vertex 3.90803 -0.94245 1
    endloop
  endfacet
  facet normal -0 0 1
    outer loop
      vertex 2.7702 2.91322 1
      vertex 3.94183 0.950606 1
      vertex 3.74795 3.94145 1
    endloop
  endfacet
  facet normal -0 0 1
    outer loop
      vertex 3.28192 -0.344943 1
      vertex 3.90803 -0.94245 1
      vertex 3.28192 0.344944 1
    endloop
  endfacet
  facet normal 0 0 1
    outer loop
      vertex 3.13849 -1.01976 1
      vertex 3.90803 -0.94245 1
      vertex 3.28192 -0.344943 1
    endloop
  endfacet
  facet normal 0 0 1
    outer loop
      vertex 3.94183 0.950606 1
      vertex 3.13849 1.01976 1
      vertex 3.28192 0.344944 1
    endloop
  endfacet
  facet normal 0 0 1
    outer loop
      vertex 3.94183 0.950606 1
      vertex 2.85788 1.65 1
      vertex 3.13849 1.01976 1
    endloop
  endfacet
  facet normal 0 0 1
    outer loop
      vertex 3.94183 0.950606 1
      vertex 2.7702 2.91322 1
      vertex 2.85788 1.65 1
    endloop
  endfacet
  facet normal 0 0 1
    outer loop
      vertex 2.7702 2.91322 1
      vertex 2.45238 2.20813 1
      vertex 2.85788 1.65 1
    endloop
  endfacet
  facet normal 0 0 1
    outer loop
      vertex 2.7702 2.91322 1
      vertex 1.93969 2.66976 1
      vertex 2.45238 2.20813 1
    endloop
  endfacet
  facet normal 0 0 1
    outer loop
      vertex 2.7702 2.91322 1
      vertex 1.34223 3.0147 1
      vertex 1.93969 2.66976 1
    endloop
  endfacet
  facet normal 0 0 1
    outer loop
      vertex 1.14767 3.88903 1
      vertex 1.34223 3.0147 1
      vertex 2.7702 2.91322 1
    endloop
  endfacet
  facet normal 0 0 1
    outer loop
      vertex 1.14767 3.88903 1
      vertex 0.686109 3.22789 1
      vertex 1.34223 3.0147 1
    endloop
  endfacet
  facet normal 0 0 1
    outer loop
      vertex 1.53943 5.21655 1
      vertex -1.53118 5.77044 1
      vertex -1.53943 5.21655 1
    endloop
  endfacet
  facet normal -0 0 1
    outer loop
      vertex -0.859506 7.28591 1
      vertex 0.859504 7.28591 1
      vertex 0.0201285 8.2133 1
    endloop
  endfacet
  facet normal 0 0 1
    outer loop
      vertex -1.33488 6.43707 1
      vertex 0.859504 7.28591 1
      vertex -0.859506 7.28591 1
    endloop
  endfacet
  facet normal 0 0 1
    outer loop
      vertex -0.859506 7.28591 1
      vertex 0.0201285 8.2133 1
      vertex -0.0201297 8.2133 1
    endloop
  endfacet
  facet normal 0 0 1
    outer loop
      vertex 1.33488 6.43707 1
      vertex -1.33488 6.43707 1
      vertex -1.53118 5.77044 1
    endloop
  endfacet
  facet normal 0 -0 1
    outer loop
      vertex -1.13783 3.85568 1
      vertex 1.14767 3.88903 1
      vertex -1.53943 5.21655 1
    endloop
  endfacet
  facet normal 0 0 1
    outer loop
      vertex -1.40803e-07 3.3 1
      vertex -1.13783 3.85568 1
      vertex -0.686109 3.22789 1
    endloop
  endfacet
  facet normal 0 0 1
    outer loop
      vertex -1.13783 3.85568 1
      vertex -1.34223 3.0147 1
      vertex -0.686109 3.22789 1
    endloop
  endfacet
  facet normal 0 0 1
    outer loop
      vertex -1.13783 3.85568 1
      vertex -1.93969 2.66976 1
      vertex -1.34223 3.0147 1
    endloop
  endfacet
  facet normal -0 0 1
    outer loop
      vertex -2.79416 2.93843 1
      vertex -1.93969 2.66976 1
      vertex -1.13783 3.85568 1
    endloop
  endfacet
  facet normal 0 0 1
    outer loop
      vertex -1.93969 2.66976 1
      vertex -2.79416 2.93843 1
      vertex -2.45238 2.20813 1
    endloop
  endfacet
  facet normal 0 0 1
    outer loop
      vertex -2.79416 2.93843 1
      vertex -2.85788 1.65 1
      vertex -2.45238 2.20813 1
    endloop
  endfacet
  facet normal 0 0 1
    outer loop
      vertex -3.90803 0.94245 1
      vertex -2.85788 1.65 1
      vertex -2.79416 2.93843 1
    endloop
  endfacet
  facet normal 0 0 1
    outer loop
      vertex -2.85788 1.65 1
      vertex -3.90803 0.94245 1
      vertex -3.13849 1.01976 1
    endloop
  endfacet
  facet normal 0 0 1
    outer loop
      vertex -3.13849 1.01976 1
      vertex -3.90803 0.94245 1
      vertex -3.28192 0.344943 1
    endloop
  endfacet
  facet normal 0 0 1
    outer loop
      vertex -3.90803 0.94245 1
      vertex -2.79416 2.93843 1
      vertex -3.74795 3.94146 1
    endloop
  endfacet
  facet normal 0 0 1
    outer loop
      vertex 2.85788 -1.65 1
      vertex 3.90803 -0.94245 1
      vertex 3.13849 -1.01976 1
    endloop
  endfacet
  facet normal 0 0 1
    outer loop
      vertex 4.23176 -4.21126 1
      vertex 3.74795 -3.94146 1
      vertex 3.85785 -4.02669 1
    endloop
  endfacet
  facet normal 0 0 1
    outer loop
      vertex 2.79416 -2.93843 1
      vertex 3.90803 -0.94245 1
      vertex 2.85788 -1.65 1
    endloop
  endfacet
  facet normal 0 0 1
    outer loop
      vertex 5.28738 -1.27509 1
      vertex 2.79416 -2.93843 1
      vertex 3.74795 -3.94146 1
    endloop
  endfacet
  facet normal -0 0 1
    outer loop
      vertex 2.45238 -2.20813 1
      vertex 2.79416 -2.93843 1
      vertex 2.85788 -1.65 1
    endloop
  endfacet
  facet normal -0 0 1
    outer loop
      vertex 1.93969 -2.66976 1
      vertex 2.79416 -2.93843 1
      vertex 2.45238 -2.20813 1
    endloop
  endfacet
  facet normal 0 0 1
    outer loop
      vertex 1.34223 -3.0147 1
      vertex 2.79416 -2.93843 1
      vertex 1.93969 -2.66976 1
    endloop
  endfacet
  facet normal -0 0 1
    outer loop
      vertex 1.34223 -3.0147 1
      vertex 1.13783 -3.85568 1
      vertex 2.79416 -2.93843 1
    endloop
  endfacet
  facet normal -0 0 1
    outer loop
      vertex 0.686109 -3.22789 1
      vertex 1.13783 -3.85568 1
      vertex 1.34223 -3.0147 1
    endloop
  endfacet
  facet normal -0 0 1
    outer loop
      vertex 1.40803e-07 -3.3 1
      vertex 1.13783 -3.85568 1
      vertex 0.686109 -3.22789 1
    endloop
  endfacet
  facet normal 0 0 1
    outer loop
      vertex -1.14767 -3.88903 1
      vertex 1.13783 -3.85568 1
      vertex 1.40803e-07 -3.3 1
    endloop
  endfacet
  facet normal 0 -0 1
    outer loop
      vertex -1.53117 -5.77044 1
      vertex 1.13783 -3.85568 1
      vertex -1.53943 -5.21655 1
    endloop
  endfacet
  facet normal 0 0 1
    outer loop
      vertex 0.859506 -7.28591 1
      vertex -0.859504 -7.28591 1
      vertex 0.0201297 -8.2133 1
    endloop
  endfacet
  facet normal 0 0 1
    outer loop
      vertex -1.14767 -3.88903 1
      vertex 1.40803e-07 -3.3 1
      vertex -0.686109 -3.22789 1
    endloop
  endfacet
  facet normal 0 0 1
    outer loop
      vertex 0.0201297 -8.2133 1
      vertex -0.859504 -7.28591 1
      vertex -0.0201285 -8.2133 1
    endloop
  endfacet
  facet normal 0 0 1
    outer loop
      vertex 1.13783 -3.85568 1
      vertex -1.14767 -3.88903 1
      vertex -1.53943 -5.21655 1
    endloop
  endfacet
  facet normal 0 0 1
    outer loop
      vertex -1.34223 -3.0147 1
      vertex -1.14767 -3.88903 1
      vertex -0.686109 -3.22789 1
    endloop
  endfacet
  facet normal 0 0 1
    outer loop
      vertex -1.93969 -2.66976 1
      vertex -1.14767 -3.88903 1
      vertex -1.34223 -3.0147 1
    endloop
  endfacet
  facet normal 0 0 1
    outer loop
      vertex -2.7702 -2.91322 1
      vertex -1.93969 -2.66976 1
      vertex -2.45238 -2.20813 1
    endloop
  endfacet
  facet normal 0 0 1
    outer loop
      vertex -1.93969 -2.66976 1
      vertex -2.7702 -2.91322 1
      vertex -1.14767 -3.88903 1
    endloop
  endfacet
  facet normal 0 0 1
    outer loop
      vertex -2.85788 -1.65 1
      vertex -2.7702 -2.91322 1
      vertex -2.45238 -2.20813 1
    endloop
  endfacet
  facet normal 0 0 1
    outer loop
      vertex -3.94183 -0.950606 1
      vertex -2.85788 -1.65 1
      vertex -3.13849 -1.01976 1
    endloop
  endfacet
  facet normal -0 0 1
    outer loop
      vertex -3.94183 -0.950606 1
      vertex -3.13849 -1.01976 1
      vertex -3.28192 -0.344944 1
    endloop
  endfacet
  facet normal 0 0 1
    outer loop
      vertex -2.85788 -1.65 1
      vertex -3.94183 -0.950606 1
      vertex -2.7702 -2.91322 1
    endloop
  endfacet
  facet normal 0 0 1
    outer loop
      vertex -3.28192 0.344943 1
      vertex -3.90803 0.94245 1
      vertex -3.28192 -0.344944 1
    endloop
  endfacet
  facet normal 0 0 1
    outer loop
      vertex -4.23176 4.21126 1
      vertex -3.74795 3.94146 1
      vertex -3.85785 4.02669 1
    endloop
  endfacet
  facet normal 0 0 1
    outer loop
      vertex -3.94183 -0.950606 1
      vertex -3.28192 -0.344944 1
      vertex -3.90803 0.94245 1
    endloop
  endfacet
  facet normal 0 0 1
    outer loop
      vertex -2.7702 -2.91322 1
      vertex -3.94183 -0.950606 1
      vertex -3.74795 -3.94145 1
    endloop
  endfacet
  facet normal 0 0 1
    outer loop
      vertex -3.74795 3.94146 1
      vertex -4.23176 4.21126 1
      vertex -5.28738 1.27509 1
    endloop
  endfacet
  facet normal 0 0 1
    outer loop
      vertex -5.76294 1.55918 1
      vertex -4.23176 4.21126 1
      vertex -4.90723 4.37458 1
    endloop
  endfacet
  facet normal 0 0 1
    outer loop
      vertex -3.74795 3.94146 1
      vertex -5.28738 1.27509 1
      vertex -3.90803 0.94245 1
    endloop
  endfacet
  facet normal 0 0 1
    outer loop
      vertex -4.23176 4.21126 1
      vertex -5.76294 1.55918 1
      vertex -5.28738 1.27509 1
    endloop
  endfacet
  facet normal 0 0 1
    outer loop
      vertex -5.28738 1.27509 1
      vertex -5.76294 1.55918 1
      vertex -5.41614 1.32765 1
    endloop
  endfacet
  facet normal 0 0 1
    outer loop
      vertex -6.24211 2.06249 1
      vertex -4.90723 4.37458 1
      vertex -5.88003 4.38731 1
    endloop
  endfacet
  facet normal 0 0 1
    outer loop
      vertex -4.90723 4.37458 1
      vertex -6.24211 2.06249 1
      vertex -5.76294 1.55918 1
    endloop
  endfacet
  facet normal 0 0 1
    outer loop
      vertex -5.88003 4.38731 1
      vertex -6.73954 2.8986 1
      vertex -6.24211 2.06249 1
    endloop
  endfacet
  facet normal -0 0 1
    outer loop
      vertex -7.10286 4.12408 1
      vertex -6.73954 2.8986 1
      vertex -5.88003 4.38731 1
    endloop
  endfacet
  facet normal 0 0 1
    outer loop
      vertex -6.73954 2.8986 1
      vertex -7.10286 4.12408 1
      vertex -7.12299 4.08922 1
    endloop
  endfacet
  facet normal -0 0 1
    outer loop
      vertex -5.28738 -1.27509 1
      vertex -3.74795 -3.94145 1
      vertex -3.94183 -0.950606 1
    endloop
  endfacet
  facet normal 0 -0 1
    outer loop
      vertex -4.23176 -4.21125 1
      vertex -3.74795 -3.94145 1
      vertex -5.28738 -1.27509 1
    endloop
  endfacet
  facet normal 0 0 1
    outer loop
      vertex -3.74795 -3.94145 1
      vertex -4.23176 -4.21125 1
      vertex -3.85786 -4.02669 1
    endloop
  endfacet
  facet normal -0 0 1
    outer loop
      vertex -5.76294 -1.55918 1
      vertex -4.23176 -4.21125 1
      vertex -5.28738 -1.27509 1
    endloop
  endfacet
  facet normal 0 0 1
    outer loop
      vertex -5.76294 -1.55918 1
      vertex -5.28738 -1.27509 1
      vertex -5.41615 -1.32765 1
    endloop
  endfacet
  facet normal 0 0 1
    outer loop
      vertex -4.23176 -4.21125 1
      vertex -5.76294 -1.55918 1
      vertex -4.90723 -4.37457 1
    endloop
  endfacet
  facet normal -0 0 1
    outer loop
      vertex -6.24211 -2.06249 1
      vertex -4.90723 -4.37457 1
      vertex -5.76294 -1.55918 1
    endloop
  endfacet
  facet normal 0 0 1
    outer loop
      vertex -4.90723 -4.37457 1
      vertex -6.24211 -2.06249 1
      vertex -5.88003 -4.38731 1
    endloop
  endfacet
  facet normal -0 0 1
    outer loop
      vertex -6.73954 -2.8986 1
      vertex -5.88003 -4.38731 1
      vertex -6.24211 -2.06249 1
    endloop
  endfacet
  facet normal 0 0 1
    outer loop
      vertex -6.73954 -2.8986 1
      vertex -7.10287 -4.12408 1
      vertex -5.88003 -4.38731 1
    endloop
  endfacet
  facet normal 0 -0 1
    outer loop
      vertex -7.10287 -4.12408 1
      vertex -6.73954 -2.8986 1
      vertex -7.123 -4.08922 1
    endloop
  endfacet
  facet normal 0 0 1
    outer loop
      vertex 1.14767 3.88903 1
      vertex -1.40803e-07 3.3 1
      vertex 0.686109 3.22789 1
    endloop
  endfacet
  facet normal 0 0 1
    outer loop
      vertex 1.53943 5.21655 1
      vertex -1.53943 5.21655 1
      vertex 1.14767 3.88903 1
    endloop
  endfacet
  facet normal 0 0 1
    outer loop
      vertex 1.14767 3.88903 1
      vertex -1.13783 3.85568 1
      vertex -1.40803e-07 3.3 1
    endloop
  endfacet
  facet normal 0 -0 1
    outer loop
      vertex -1.53943 5.21655 1
      vertex -1.53118 5.77044 1
      vertex -1.55829 5.35434 1
    endloop
  endfacet
  facet normal 0 0 1
    outer loop
      vertex 1.53943 -5.21655 1
      vertex 1.53118 -5.77044 1
      vertex 1.55829 -5.35434 1
    endloop
  endfacet
  facet normal 0 0 1
    outer loop
      vertex 1.53943 -5.21655 1
      vertex 1.33488 -6.43707 1
      vertex 1.53118 -5.77044 1
    endloop
  endfacet
  facet normal 0 0 1
    outer loop
      vertex 1.13783 -3.85568 1
      vertex 1.33488 -6.43707 1
      vertex 1.53943 -5.21655 1
    endloop
  endfacet
  facet normal 0 0 1
    outer loop
      vertex 1.33488 -6.43707 1
      vertex 1.13783 -3.85568 1
      vertex 0.859506 -7.28591 1
    endloop
  endfacet
  facet normal 0 0 1
    outer loop
      vertex 0.859506 -7.28591 1
      vertex -1.33488 -6.43707 1
      vertex -0.859504 -7.28591 1
    endloop
  endfacet
  facet normal 0 0 1
    outer loop
      vertex 1.13783 -3.85568 1
      vertex -1.53117 -5.77044 1
      vertex 0.859506 -7.28591 1
    endloop
  endfacet
  facet normal 0 0 1
    outer loop
      vertex 0.859506 -7.28591 1
      vertex -1.53117 -5.77044 1
      vertex -1.33488 -6.43707 1
    endloop
  endfacet
  facet normal 0 0 1
    outer loop
      vertex -1.53117 -5.77044 1
      vertex -1.53943 -5.21655 1
      vertex -1.55829 -5.35434 1
    endloop
  endfacet
  facet normal 0.951851 0.30656 0
    outer loop
      vertex 7.12299 -4.08922 1
      vertex 6.73954 -2.8986 0
      vertex 6.73954 -2.8986 1
    endloop
  endfacet
  facet normal 0.951851 0.30656 0
    outer loop
      vertex 6.73954 -2.8986 0
      vertex 7.12299 -4.08922 1
      vertex 7.12299 -4.08922 0
    endloop
  endfacet
  facet normal 0.859407 0.511291 0
    outer loop
      vertex 6.73954 -2.8986 1
      vertex 6.24211 -2.06249 0
      vertex 6.24211 -2.06249 1
    endloop
  endfacet
  facet normal 0.859407 0.511291 0
    outer loop
      vertex 6.24211 -2.06249 0
      vertex 6.73954 -2.8986 1
      vertex 6.73954 -2.8986 0
    endloop
  endfacet
  facet normal 0.724263 0.689524 0
    outer loop
      vertex 6.24211 -2.06249 1
      vertex 5.76294 -1.55918 0
      vertex 5.76294 -1.55918 1
    endloop
  endfacet
  facet normal 0.724263 0.689524 0
    outer loop
      vertex 5.76294 -1.55918 0
      vertex 6.24211 -2.06249 1
      vertex 6.24211 -2.06249 0
    endloop
  endfacet
  facet normal 0.555262 0.831676 -0
    outer loop
      vertex 5.76294 -1.55918 0
      vertex 5.41614 -1.32765 1
      vertex 5.76294 -1.55918 1
    endloop
  endfacet
  facet normal 0.555262 0.831676 0
    outer loop
      vertex 5.41614 -1.32765 1
      vertex 5.76294 -1.55918 0
      vertex 5.41614 -1.32765 0
    endloop
  endfacet
  facet normal 0.377911 0.925842 -0
    outer loop
      vertex 5.41614 -1.32765 0
      vertex 5.28738 -1.27509 1
      vertex 5.41614 -1.32765 1
    endloop
  endfacet
  facet normal 0.377911 0.925842 0
    outer loop
      vertex 5.28738 -1.27509 1
      vertex 5.41614 -1.32765 0
      vertex 5.28738 -1.27509 0
    endloop
  endfacet
  facet normal 0.234437 0.972131 -0
    outer loop
      vertex 5.28738 -1.27509 0
      vertex 3.90803 -0.94245 1
      vertex 5.28738 -1.27509 1
    endloop
  endfacet
  facet normal 0.234437 0.972131 0
    outer loop
      vertex 3.90803 -0.94245 1
      vertex 5.28738 -1.27509 0
      vertex 3.90803 -0.94245 0
    endloop
  endfacet
  facet normal 0.999841 -0.0178564 0
    outer loop
      vertex 3.90803 -0.94245 1
      vertex 3.94183 0.950606 0
      vertex 3.94183 0.950606 1
    endloop
  endfacet
  facet normal 0.999841 -0.0178564 0
    outer loop
      vertex 3.94183 0.950606 0
      vertex 3.90803 -0.94245 1
      vertex 3.90803 -0.94245 0
    endloop
  endfacet
  facet normal 0.234437 -0.972131 0
    outer loop
      vertex 3.94183 0.950606 0
      vertex 5.28738 1.27509 1
      vertex 3.94183 0.950606 1
    endloop
  endfacet
  facet normal 0.234437 -0.972131 0
    outer loop
      vertex 5.28738 1.27509 1
      vertex 3.94183 0.950606 0
      vertex 5.28738 1.27509 0
    endloop
  endfacet
  facet normal 0.377904 -0.925845 0
    outer loop
      vertex 5.28738 1.27509 0
      vertex 5.41615 1.32765 1
      vertex 5.28738 1.27509 1
    endloop
  endfacet
  facet normal 0.377904 -0.925845 0
    outer loop
      vertex 5.41615 1.32765 1
      vertex 5.28738 1.27509 0
      vertex 5.41615 1.32765 0
    endloop
  endfacet
  facet normal 0.555262 -0.831676 0
    outer loop
      vertex 5.41615 1.32765 0
      vertex 5.76294 1.55918 1
      vertex 5.41615 1.32765 1
    endloop
  endfacet
  facet normal 0.555262 -0.831676 0
    outer loop
      vertex 5.76294 1.55918 1
      vertex 5.41615 1.32765 0
      vertex 5.76294 1.55918 0
    endloop
  endfacet
  facet normal 0.724261 -0.689526 0
    outer loop
      vertex 5.76294 1.55918 1
      vertex 6.24211 2.06249 0
      vertex 6.24211 2.06249 1
    endloop
  endfacet
  facet normal 0.724261 -0.689526 0
    outer loop
      vertex 6.24211 2.06249 0
      vertex 5.76294 1.55918 1
      vertex 5.76294 1.55918 0
    endloop
  endfacet
  facet normal 0.859407 -0.511292 0
    outer loop
      vertex 6.24211 2.06249 1
      vertex 6.73954 2.8986 0
      vertex 6.73954 2.8986 1
    endloop
  endfacet
  facet normal 0.859407 -0.511292 0
    outer loop
      vertex 6.73954 2.8986 0
      vertex 6.24211 2.06249 1
      vertex 6.24211 2.06249 0
    endloop
  endfacet
  facet normal 0.951852 -0.306559 0
    outer loop
      vertex 6.73954 2.8986 1
      vertex 7.123 4.08922 0
      vertex 7.123 4.08922 1
    endloop
  endfacet
  facet normal 0.951852 -0.306559 0
    outer loop
      vertex 7.123 4.08922 0
      vertex 6.73954 2.8986 1
      vertex 6.73954 2.8986 0
    endloop
  endfacet
  facet normal 0.866022 0.500006 0
    outer loop
      vertex 7.123 4.08922 1
      vertex 7.10287 4.12408 0
      vertex 7.10287 4.12408 1
    endloop
  endfacet
  facet normal 0.866022 0.500006 0
    outer loop
      vertex 7.10287 4.12408 0
      vertex 7.123 4.08922 1
      vertex 7.123 4.08922 0
    endloop
  endfacet
  facet normal 0.210439 0.977607 -0
    outer loop
      vertex 7.10287 4.12408 0
      vertex 5.88003 4.38731 1
      vertex 7.10287 4.12408 1
    endloop
  endfacet
  facet normal 0.210439 0.977607 0
    outer loop
      vertex 5.88003 4.38731 1
      vertex 7.10287 4.12408 0
      vertex 5.88003 4.38731 0
    endloop
  endfacet
  facet normal -0.0130883 0.999914 0
    outer loop
      vertex 5.88003 4.38731 0
      vertex 4.90723 4.37457 1
      vertex 5.88003 4.38731 1
    endloop
  endfacet
  facet normal -0.0130883 0.999914 0
    outer loop
      vertex 4.90723 4.37457 1
      vertex 5.88003 4.38731 0
      vertex 4.90723 4.37457 0
    endloop
  endfacet
  facet normal -0.235017 0.971991 0
    outer loop
      vertex 4.90723 4.37457 0
      vertex 4.23176 4.21125 1
      vertex 4.90723 4.37457 1
    endloop
  endfacet
  facet normal -0.235017 0.971991 0
    outer loop
      vertex 4.23176 4.21125 1
      vertex 4.90723 4.37457 0
      vertex 4.23176 4.21125 0
    endloop
  endfacet
  facet normal -0.442621 0.896709 0
    outer loop
      vertex 4.23176 4.21125 0
      vertex 3.85786 4.02669 1
      vertex 4.23176 4.21125 1
    endloop
  endfacet
  facet normal -0.442621 0.896709 0
    outer loop
      vertex 3.85786 4.02669 1
      vertex 4.23176 4.21125 0
      vertex 3.85786 4.02669 0
    endloop
  endfacet
  facet normal -0.612853 0.790197 0
    outer loop
      vertex 3.85786 4.02669 0
      vertex 3.74795 3.94145 1
      vertex 3.85786 4.02669 1
    endloop
  endfacet
  facet normal -0.612853 0.790197 0
    outer loop
      vertex 3.74795 3.94145 1
      vertex 3.85786 4.02669 0
      vertex 3.74795 3.94145 0
    endloop
  endfacet
  facet normal -0.724672 0.689094 0
    outer loop
      vertex 2.7702 2.91322 0
      vertex 3.74795 3.94145 1
      vertex 3.74795 3.94145 0
    endloop
  endfacet
  facet normal -0.724672 0.689094 0
    outer loop
      vertex 3.74795 3.94145 1
      vertex 2.7702 2.91322 0
      vertex 2.7702 2.91322 1
    endloop
  endfacet
  facet normal 0.515385 0.856959 -0
    outer loop
      vertex 2.7702 2.91322 0
      vertex 1.14767 3.88903 1
      vertex 2.7702 2.91322 1
    endloop
  endfacet
  facet normal 0.515385 0.856959 0
    outer loop
      vertex 1.14767 3.88903 1
      vertex 2.7702 2.91322 0
      vertex 1.14767 3.88903 0
    endloop
  endfacet
  facet normal 0.959109 -0.283037 0
    outer loop
      vertex 1.14767 3.88903 1
      vertex 1.53943 5.21655 0
      vertex 1.53943 5.21655 1
    endloop
  endfacet
  facet normal 0.959109 -0.283037 0
    outer loop
      vertex 1.53943 5.21655 0
      vertex 1.14767 3.88903 1
      vertex 1.14767 3.88903 0
    endloop
  endfacet
  facet normal 0.990758 -0.13564 0
    outer loop
      vertex 1.53943 5.21655 1
      vertex 1.55829 5.35434 0
      vertex 1.55829 5.35434 1
    endloop
  endfacet
  facet normal 0.990758 -0.13564 0
    outer loop
      vertex 1.55829 5.35434 0
      vertex 1.53943 5.21655 1
      vertex 1.53943 5.21655 0
    endloop
  endfacet
  facet normal 0.997883 0.065032 0
    outer loop
      vertex 1.55829 5.35434 1
      vertex 1.53117 5.77044 0
      vertex 1.53117 5.77044 1
    endloop
  endfacet
  facet normal 0.997883 0.065032 0
    outer loop
      vertex 1.53117 5.77044 0
      vertex 1.55829 5.35434 1
      vertex 1.55829 5.35434 0
    endloop
  endfacet
  facet normal 0.959277 0.282468 0
    outer loop
      vertex 1.53117 5.77044 1
      vertex 1.33488 6.43707 0
      vertex 1.33488 6.43707 1
    endloop
  endfacet
  facet normal 0.959277 0.282468 0
    outer loop
      vertex 1.33488 6.43707 0
      vertex 1.53117 5.77044 1
      vertex 1.53117 5.77044 0
    endloop
  endfacet
  facet normal 0.872495 0.488623 0
    outer loop
      vertex 1.33488 6.43707 1
      vertex 0.859504 7.28591 0
      vertex 0.859504 7.28591 1
    endloop
  endfacet
  facet normal 0.872495 0.488623 0
    outer loop
      vertex 0.859504 7.28591 0
      vertex 1.33488 6.43707 1
      vertex 1.33488 6.43707 0
    endloop
  endfacet
  facet normal 0.741414 0.671048 0
    outer loop
      vertex 0.859504 7.28591 1
      vertex 0.0201285 8.2133 0
      vertex 0.0201285 8.2133 1
    endloop
  endfacet
  facet normal 0.741414 0.671048 0
    outer loop
      vertex 0.0201285 8.2133 0
      vertex 0.859504 7.28591 1
      vertex 0.859504 7.28591 0
    endloop
  endfacet
  facet normal -2.3689e-05 1 0
    outer loop
      vertex 0.0201285 8.2133 0
      vertex -0.0201297 8.2133 1
      vertex 0.0201285 8.2133 1
    endloop
  endfacet
  facet normal -2.3689e-05 1 0
    outer loop
      vertex -0.0201297 8.2133 1
      vertex 0.0201285 8.2133 0
      vertex -0.0201297 8.2133 0
    endloop
  endfacet
  facet normal -0.741413 0.671049 0
    outer loop
      vertex -0.859506 7.28591 0
      vertex -0.0201297 8.2133 1
      vertex -0.0201297 8.2133 0
    endloop
  endfacet
  facet normal -0.741413 0.671049 0
    outer loop
      vertex -0.0201297 8.2133 1
      vertex -0.859506 7.28591 0
      vertex -0.859506 7.28591 1
    endloop
  endfacet
  facet normal -0.872495 0.488622 0
    outer loop
      vertex -1.33488 6.43707 0
      vertex -0.859506 7.28591 1
      vertex -0.859506 7.28591 0
    endloop
  endfacet
  facet normal -0.872495 0.488622 0
    outer loop
      vertex -0.859506 7.28591 1
      vertex -1.33488 6.43707 0
      vertex -1.33488 6.43707 1
    endloop
  endfacet
  facet normal -0.959277 0.282467 0
    outer loop
      vertex -1.53118 5.77044 0
      vertex -1.33488 6.43707 1
      vertex -1.33488 6.43707 0
    endloop
  endfacet
  facet normal -0.959277 0.282467 0
    outer loop
      vertex -1.33488 6.43707 1
      vertex -1.53118 5.77044 0
      vertex -1.53118 5.77044 1
    endloop
  endfacet
  facet normal -0.997883 0.0650299 0
    outer loop
      vertex -1.55829 5.35434 0
      vertex -1.53118 5.77044 1
      vertex -1.53118 5.77044 0
    endloop
  endfacet
  facet normal -0.997883 0.0650299 0
    outer loop
      vertex -1.53118 5.77044 1
      vertex -1.55829 5.35434 0
      vertex -1.55829 5.35434 1
    endloop
  endfacet
  facet normal -0.990757 -0.135649 0
    outer loop
      vertex -1.53943 5.21655 0
      vertex -1.55829 5.35434 1
      vertex -1.55829 5.35434 0
    endloop
  endfacet
  facet normal -0.990757 -0.135649 0
    outer loop
      vertex -1.55829 5.35434 1
      vertex -1.53943 5.21655 0
      vertex -1.53943 5.21655 1
    endloop
  endfacet
  facet normal -0.959109 -0.283038 0
    outer loop
      vertex -1.13783 3.85568 0
      vertex -1.53943 5.21655 1
      vertex -1.53943 5.21655 0
    endloop
  endfacet
  facet normal -0.959109 -0.283038 0
    outer loop
      vertex -1.53943 5.21655 1
      vertex -1.13783 3.85568 0
      vertex -1.13783 3.85568 1
    endloop
  endfacet
  facet normal -0.484457 0.874815 0
    outer loop
      vertex -1.13783 3.85568 0
      vertex -2.79416 2.93843 1
      vertex -1.13783 3.85568 1
    endloop
  endfacet
  facet normal -0.484457 0.874815 0
    outer loop
      vertex -2.79416 2.93843 1
      vertex -1.13783 3.85568 0
      vertex -2.79416 2.93843 0
    endloop
  endfacet
  facet normal 0.724672 0.689094 0
    outer loop
      vertex -2.79416 2.93843 1
      vertex -3.74795 3.94146 0
      vertex -3.74795 3.94146 1
    endloop
  endfacet
  facet normal 0.724672 0.689094 0
    outer loop
      vertex -3.74795 3.94146 0
      vertex -2.79416 2.93843 1
      vertex -2.79416 2.93843 0
    endloop
  endfacet
  facet normal 0.612853 0.790197 -0
    outer loop
      vertex -3.74795 3.94146 0
      vertex -3.85785 4.02669 1
      vertex -3.74795 3.94146 1
    endloop
  endfacet
  facet normal 0.612853 0.790197 0
    outer loop
      vertex -3.85785 4.02669 1
      vertex -3.74795 3.94146 0
      vertex -3.85785 4.02669 0
    endloop
  endfacet
  facet normal 0.442624 0.896707 -0
    outer loop
      vertex -3.85785 4.02669 0
      vertex -4.23176 4.21126 1
      vertex -3.85785 4.02669 1
    endloop
  endfacet
  facet normal 0.442624 0.896707 0
    outer loop
      vertex -4.23176 4.21126 1
      vertex -3.85785 4.02669 0
      vertex -4.23176 4.21126 0
    endloop
  endfacet
  facet normal 0.235015 0.971992 -0
    outer loop
      vertex -4.23176 4.21126 0
      vertex -4.90723 4.37458 1
      vertex -4.23176 4.21126 1
    endloop
  endfacet
  facet normal 0.235015 0.971992 0
    outer loop
      vertex -4.90723 4.37458 1
      vertex -4.23176 4.21126 0
      vertex -4.90723 4.37458 0
    endloop
  endfacet
  facet normal 0.0130883 0.999914 -0
    outer loop
      vertex -4.90723 4.37458 0
      vertex -5.88003 4.38731 1
      vertex -4.90723 4.37458 1
    endloop
  endfacet
  facet normal 0.0130883 0.999914 0
    outer loop
      vertex -5.88003 4.38731 1
      vertex -4.90723 4.37458 0
      vertex -5.88003 4.38731 0
    endloop
  endfacet
  facet normal -0.210439 0.977607 0
    outer loop
      vertex -5.88003 4.38731 0
      vertex -7.10286 4.12408 1
      vertex -5.88003 4.38731 1
    endloop
  endfacet
  facet normal -0.210439 0.977607 0
    outer loop
      vertex -7.10286 4.12408 1
      vertex -5.88003 4.38731 0
      vertex -7.10286 4.12408 0
    endloop
  endfacet
  facet normal -0.86601 0.500027 0
    outer loop
      vertex -7.12299 4.08922 0
      vertex -7.10286 4.12408 1
      vertex -7.10286 4.12408 0
    endloop
  endfacet
  facet normal -0.86601 0.500027 0
    outer loop
      vertex -7.10286 4.12408 1
      vertex -7.12299 4.08922 0
      vertex -7.12299 4.08922 1
    endloop
  endfacet
  facet normal -0.951851 -0.30656 0
    outer loop
      vertex -6.73954 2.8986 0
      vertex -7.12299 4.08922 1
      vertex -7.12299 4.08922 0
    endloop
  endfacet
  facet normal -0.951851 -0.30656 0
    outer loop
      vertex -7.12299 4.08922 1
      vertex -6.73954 2.8986 0
      vertex -6.73954 2.8986 1
    endloop
  endfacet
  facet normal -0.859407 -0.511291 0
    outer loop
      vertex -6.24211 2.06249 0
      vertex -6.73954 2.8986 1
      vertex -6.73954 2.8986 0
    endloop
  endfacet
  facet normal -0.859407 -0.511291 0
    outer loop
      vertex -6.73954 2.8986 1
      vertex -6.24211 2.06249 0
      vertex -6.24211 2.06249 1
    endloop
  endfacet
  facet normal -0.724263 -0.689524 0
    outer loop
      vertex -5.76294 1.55918 0
      vertex -6.24211 2.06249 1
      vertex -6.24211 2.06249 0
    endloop
  endfacet
  facet normal -0.724263 -0.689524 0
    outer loop
      vertex -6.24211 2.06249 1
      vertex -5.76294 1.55918 0
      vertex -5.76294 1.55918 1
    endloop
  endfacet
  facet normal -0.555262 -0.831676 0
    outer loop
      vertex -5.76294 1.55918 0
      vertex -5.41614 1.32765 1
      vertex -5.76294 1.55918 1
    endloop
  endfacet
  facet normal -0.555262 -0.831676 -0
    outer loop
      vertex -5.41614 1.32765 1
      vertex -5.76294 1.55918 0
      vertex -5.41614 1.32765 0
    endloop
  endfacet
  facet normal -0.377911 -0.925842 0
    outer loop
      vertex -5.41614 1.32765 0
      vertex -5.28738 1.27509 1
      vertex -5.41614 1.32765 1
    endloop
  endfacet
  facet normal -0.377911 -0.925842 -0
    outer loop
      vertex -5.28738 1.27509 1
      vertex -5.41614 1.32765 0
      vertex -5.28738 1.27509 0
    endloop
  endfacet
  facet normal -0.234437 -0.972131 0
    outer loop
      vertex -5.28738 1.27509 0
      vertex -3.90803 0.94245 1
      vertex -5.28738 1.27509 1
    endloop
  endfacet
  facet normal -0.234437 -0.972131 -0
    outer loop
      vertex -3.90803 0.94245 1
      vertex -5.28738 1.27509 0
      vertex -3.90803 0.94245 0
    endloop
  endfacet
  facet normal -0.999841 0.0178564 0
    outer loop
      vertex -3.94183 -0.950606 0
      vertex -3.90803 0.94245 1
      vertex -3.90803 0.94245 0
    endloop
  endfacet
  facet normal -0.999841 0.0178564 0
    outer loop
      vertex -3.90803 0.94245 1
      vertex -3.94183 -0.950606 0
      vertex -3.94183 -0.950606 1
    endloop
  endfacet
  facet normal -0.234437 0.972131 0
    outer loop
      vertex -3.94183 -0.950606 0
      vertex -5.28738 -1.27509 1
      vertex -3.94183 -0.950606 1
    endloop
  endfacet
  facet normal -0.234437 0.972131 0
    outer loop
      vertex -5.28738 -1.27509 1
      vertex -3.94183 -0.950606 0
      vertex -5.28738 -1.27509 0
    endloop
  endfacet
  facet normal -0.377904 0.925845 0
    outer loop
      vertex -5.28738 -1.27509 0
      vertex -5.41615 -1.32765 1
      vertex -5.28738 -1.27509 1
    endloop
  endfacet
  facet normal -0.377904 0.925845 0
    outer loop
      vertex -5.41615 -1.32765 1
      vertex -5.28738 -1.27509 0
      vertex -5.41615 -1.32765 0
    endloop
  endfacet
  facet normal -0.555262 0.831676 0
    outer loop
      vertex -5.41615 -1.32765 0
      vertex -5.76294 -1.55918 1
      vertex -5.41615 -1.32765 1
    endloop
  endfacet
  facet normal -0.555262 0.831676 0
    outer loop
      vertex -5.76294 -1.55918 1
      vertex -5.41615 -1.32765 0
      vertex -5.76294 -1.55918 0
    endloop
  endfacet
  facet normal -0.724261 0.689526 0
    outer loop
      vertex -6.24211 -2.06249 0
      vertex -5.76294 -1.55918 1
      vertex -5.76294 -1.55918 0
    endloop
  endfacet
  facet normal -0.724261 0.689526 0
    outer loop
      vertex -5.76294 -1.55918 1
      vertex -6.24211 -2.06249 0
      vertex -6.24211 -2.06249 1
    endloop
  endfacet
  facet normal -0.859407 0.511292 0
    outer loop
      vertex -6.73954 -2.8986 0
      vertex -6.24211 -2.06249 1
      vertex -6.24211 -2.06249 0
    endloop
  endfacet
  facet normal -0.859407 0.511292 0
    outer loop
      vertex -6.24211 -2.06249 1
      vertex -6.73954 -2.8986 0
      vertex -6.73954 -2.8986 1
    endloop
  endfacet
  facet normal -0.951852 0.306559 0
    outer loop
      vertex -7.123 -4.08922 0
      vertex -6.73954 -2.8986 1
      vertex -6.73954 -2.8986 0
    endloop
  endfacet
  facet normal -0.951852 0.306559 0
    outer loop
      vertex -6.73954 -2.8986 1
      vertex -7.123 -4.08922 0
      vertex -7.123 -4.08922 1
    endloop
  endfacet
  facet normal -0.866022 -0.500006 0
    outer loop
      vertex -7.10287 -4.12408 0
      vertex -7.123 -4.08922 1
      vertex -7.123 -4.08922 0
    endloop
  endfacet
  facet normal -0.866022 -0.500006 0
    outer loop
      vertex -7.123 -4.08922 1
      vertex -7.10287 -4.12408 0
      vertex -7.10287 -4.12408 1
    endloop
  endfacet
  facet normal -0.210439 -0.977607 0
    outer loop
      vertex -7.10287 -4.12408 0
      vertex -5.88003 -4.38731 1
      vertex -7.10287 -4.12408 1
    endloop
  endfacet
  facet normal -0.210439 -0.977607 -0
    outer loop
      vertex -5.88003 -4.38731 1
      vertex -7.10287 -4.12408 0
      vertex -5.88003 -4.38731 0
    endloop
  endfacet
  facet normal 0.0130883 -0.999914 0
    outer loop
      vertex -5.88003 -4.38731 0
      vertex -4.90723 -4.37457 1
      vertex -5.88003 -4.38731 1
    endloop
  endfacet
  facet normal 0.0130883 -0.999914 0
    outer loop
      vertex -4.90723 -4.37457 1
      vertex -5.88003 -4.38731 0
      vertex -4.90723 -4.37457 0
    endloop
  endfacet
  facet normal 0.235017 -0.971991 0
    outer loop
      vertex -4.90723 -4.37457 0
      vertex -4.23176 -4.21125 1
      vertex -4.90723 -4.37457 1
    endloop
  endfacet
  facet normal 0.235017 -0.971991 0
    outer loop
      vertex -4.23176 -4.21125 1
      vertex -4.90723 -4.37457 0
      vertex -4.23176 -4.21125 0
    endloop
  endfacet
  facet normal 0.442621 -0.896709 0
    outer loop
      vertex -4.23176 -4.21125 0
      vertex -3.85786 -4.02669 1
      vertex -4.23176 -4.21125 1
    endloop
  endfacet
  facet normal 0.442621 -0.896709 0
    outer loop
      vertex -3.85786 -4.02669 1
      vertex -4.23176 -4.21125 0
      vertex -3.85786 -4.02669 0
    endloop
  endfacet
  facet normal 0.612853 -0.790197 0
    outer loop
      vertex -3.85786 -4.02669 0
      vertex -3.74795 -3.94145 1
      vertex -3.85786 -4.02669 1
    endloop
  endfacet
  facet normal 0.612853 -0.790197 0
    outer loop
      vertex -3.74795 -3.94145 1
      vertex -3.85786 -4.02669 0
      vertex -3.74795 -3.94145 0
    endloop
  endfacet
  facet normal 0.724672 -0.689094 0
    outer loop
      vertex -3.74795 -3.94145 1
      vertex -2.7702 -2.91322 0
      vertex -2.7702 -2.91322 1
    endloop
  endfacet
  facet normal 0.724672 -0.689094 0
    outer loop
      vertex -2.7702 -2.91322 0
      vertex -3.74795 -3.94145 1
      vertex -3.74795 -3.94145 0
    endloop
  endfacet
  facet normal -0.515385 -0.856959 0
    outer loop
      vertex -2.7702 -2.91322 0
      vertex -1.14767 -3.88903 1
      vertex -2.7702 -2.91322 1
    endloop
  endfacet
  facet normal -0.515385 -0.856959 -0
    outer loop
      vertex -1.14767 -3.88903 1
      vertex -2.7702 -2.91322 0
      vertex -1.14767 -3.88903 0
    endloop
  endfacet
  facet normal -0.959109 0.283037 0
    outer loop
      vertex -1.53943 -5.21655 0
      vertex -1.14767 -3.88903 1
      vertex -1.14767 -3.88903 0
    endloop
  endfacet
  facet normal -0.959109 0.283037 0
    outer loop
      vertex -1.14767 -3.88903 1
      vertex -1.53943 -5.21655 0
      vertex -1.53943 -5.21655 1
    endloop
  endfacet
  facet normal -0.990758 0.13564 0
    outer loop
      vertex -1.55829 -5.35434 0
      vertex -1.53943 -5.21655 1
      vertex -1.53943 -5.21655 0
    endloop
  endfacet
  facet normal -0.990758 0.13564 0
    outer loop
      vertex -1.53943 -5.21655 1
      vertex -1.55829 -5.35434 0
      vertex -1.55829 -5.35434 1
    endloop
  endfacet
  facet normal -0.997883 -0.065032 0
    outer loop
      vertex -1.53117 -5.77044 0
      vertex -1.55829 -5.35434 1
      vertex -1.55829 -5.35434 0
    endloop
  endfacet
  facet normal -0.997883 -0.065032 0
    outer loop
      vertex -1.55829 -5.35434 1
      vertex -1.53117 -5.77044 0
      vertex -1.53117 -5.77044 1
    endloop
  endfacet
  facet normal -0.959277 -0.282468 0
    outer loop
      vertex -1.33488 -6.43707 0
      vertex -1.53117 -5.77044 1
      vertex -1.53117 -5.77044 0
    endloop
  endfacet
  facet normal -0.959277 -0.282468 0
    outer loop
      vertex -1.53117 -5.77044 1
      vertex -1.33488 -6.43707 0
      vertex -1.33488 -6.43707 1
    endloop
  endfacet
  facet normal -0.872495 -0.488623 0
    outer loop
      vertex -0.859504 -7.28591 0
      vertex -1.33488 -6.43707 1
      vertex -1.33488 -6.43707 0
    endloop
  endfacet
  facet normal -0.872495 -0.488623 0
    outer loop
      vertex -1.33488 -6.43707 1
      vertex -0.859504 -7.28591 0
      vertex -0.859504 -7.28591 1
    endloop
  endfacet
  facet normal -0.741414 -0.671048 0
    outer loop
      vertex -0.0201285 -8.2133 0
      vertex -0.859504 -7.28591 1
      vertex -0.859504 -7.28591 0
    endloop
  endfacet
  facet normal -0.741414 -0.671048 0
    outer loop
      vertex -0.859504 -7.28591 1
      vertex -0.0201285 -8.2133 0
      vertex -0.0201285 -8.2133 1
    endloop
  endfacet
  facet normal 2.3689e-05 -1 0
    outer loop
      vertex -0.0201285 -8.2133 0
      vertex 0.0201297 -8.2133 1
      vertex -0.0201285 -8.2133 1
    endloop
  endfacet
  facet normal 2.3689e-05 -1 0
    outer loop
      vertex 0.0201297 -8.2133 1
      vertex -0.0201285 -8.2133 0
      vertex 0.0201297 -8.2133 0
    endloop
  endfacet
  facet normal 0.741413 -0.671049 0
    outer loop
      vertex 0.0201297 -8.2133 1
      vertex 0.859506 -7.28591 0
      vertex 0.859506 -7.28591 1
    endloop
  endfacet
  facet normal 0.741413 -0.671049 0
    outer loop
      vertex 0.859506 -7.28591 0
      vertex 0.0201297 -8.2133 1
      vertex 0.0201297 -8.2133 0
    endloop
  endfacet
  facet normal 0.872495 -0.488622 0
    outer loop
      vertex 0.859506 -7.28591 1
      vertex 1.33488 -6.43707 0
      vertex 1.33488 -6.43707 1
    endloop
  endfacet
  facet normal 0.872495 -0.488622 0
    outer loop
      vertex 1.33488 -6.43707 0
      vertex 0.859506 -7.28591 1
      vertex 0.859506 -7.28591 0
    endloop
  endfacet
  facet normal 0.959277 -0.282467 0
    outer loop
      vertex 1.33488 -6.43707 1
      vertex 1.53118 -5.77044 0
      vertex 1.53118 -5.77044 1
    endloop
  endfacet
  facet normal 0.959277 -0.282467 0
    outer loop
      vertex 1.53118 -5.77044 0
      vertex 1.33488 -6.43707 1
      vertex 1.33488 -6.43707 0
    endloop
  endfacet
  facet normal 0.997883 -0.0650299 0
    outer loop
      vertex 1.53118 -5.77044 1
      vertex 1.55829 -5.35434 0
      vertex 1.55829 -5.35434 1
    endloop
  endfacet
  facet normal 0.997883 -0.0650299 0
    outer loop
      vertex 1.55829 -5.35434 0
      vertex 1.53118 -5.77044 1
      vertex 1.53118 -5.77044 0
    endloop
  endfacet
  facet normal 0.990757 0.135649 0
    outer loop
      vertex 1.55829 -5.35434 1
      vertex 1.53943 -5.21655 0
      vertex 1.53943 -5.21655 1
    endloop
  endfacet
  facet normal 0.990757 0.135649 0
    outer loop
      vertex 1.53943 -5.21655 0
      vertex 1.55829 -5.35434 1
      vertex 1.55829 -5.35434 0
    endloop
  endfacet
  facet normal 0.959109 0.283038 0
    outer loop
      vertex 1.53943 -5.21655 1
      vertex 1.13783 -3.85568 0
      vertex 1.13783 -3.85568 1
    endloop
  endfacet
  facet normal 0.959109 0.283038 0
    outer loop
      vertex 1.13783 -3.85568 0
      vertex 1.53943 -5.21655 1
      vertex 1.53943 -5.21655 0
    endloop
  endfacet
  facet normal 0.484457 -0.874815 0
    outer loop
      vertex 1.13783 -3.85568 0
      vertex 2.79416 -2.93843 1
      vertex 1.13783 -3.85568 1
    endloop
  endfacet
  facet normal 0.484457 -0.874815 0
    outer loop
      vertex 2.79416 -2.93843 1
      vertex 1.13783 -3.85568 0
      vertex 2.79416 -2.93843 0
    endloop
  endfacet
  facet normal -0.724672 -0.689094 0
    outer loop
      vertex 3.74795 -3.94146 0
      vertex 2.79416 -2.93843 1
      vertex 2.79416 -2.93843 0
    endloop
  endfacet
  facet normal -0.724672 -0.689094 0
    outer loop
      vertex 2.79416 -2.93843 1
      vertex 3.74795 -3.94146 0
      vertex 3.74795 -3.94146 1
    endloop
  endfacet
  facet normal -0.612853 -0.790197 0
    outer loop
      vertex 3.74795 -3.94146 0
      vertex 3.85785 -4.02669 1
      vertex 3.74795 -3.94146 1
    endloop
  endfacet
  facet normal -0.612853 -0.790197 -0
    outer loop
      vertex 3.85785 -4.02669 1
      vertex 3.74795 -3.94146 0
      vertex 3.85785 -4.02669 0
    endloop
  endfacet
  facet normal -0.442624 -0.896707 0
    outer loop
      vertex 3.85785 -4.02669 0
      vertex 4.23176 -4.21126 1
      vertex 3.85785 -4.02669 1
    endloop
  endfacet
  facet normal -0.442624 -0.896707 -0
    outer loop
      vertex 4.23176 -4.21126 1
      vertex 3.85785 -4.02669 0
      vertex 4.23176 -4.21126 0
    endloop
  endfacet
  facet normal -0.235015 -0.971992 0
    outer loop
      vertex 4.23176 -4.21126 0
      vertex 4.90723 -4.37458 1
      vertex 4.23176 -4.21126 1
    endloop
  endfacet
  facet normal -0.235015 -0.971992 -0
    outer loop
      vertex 4.90723 -4.37458 1
      vertex 4.23176 -4.21126 0
      vertex 4.90723 -4.37458 0
    endloop
  endfacet
  facet normal -0.0130883 -0.999914 0
    outer loop
      vertex 4.90723 -4.37458 0
      vertex 5.88003 -4.38731 1
      vertex 4.90723 -4.37458 1
    endloop
  endfacet
  facet normal -0.0130883 -0.999914 -0
    outer loop
      vertex 5.88003 -4.38731 1
      vertex 4.90723 -4.37458 0
      vertex 5.88003 -4.38731 0
    endloop
  endfacet
  facet normal 0.210439 -0.977607 0
    outer loop
      vertex 5.88003 -4.38731 0
      vertex 7.10286 -4.12408 1
      vertex 5.88003 -4.38731 1
    endloop
  endfacet
  facet normal 0.210439 -0.977607 0
    outer loop
      vertex 7.10286 -4.12408 1
      vertex 5.88003 -4.38731 0
      vertex 7.10286 -4.12408 0
    endloop
  endfacet
  facet normal 0.86601 -0.500027 0
    outer loop
      vertex 7.10286 -4.12408 1
      vertex 7.12299 -4.08922 0
      vertex 7.12299 -4.08922 1
    endloop
  endfacet
  facet normal 0.86601 -0.500027 0
    outer loop
      vertex 7.12299 -4.08922 0
      vertex 7.10286 -4.12408 1
      vertex 7.10286 -4.12408 0
    endloop
  endfacet
endsolid OpenSCAD_Model
