solid OpenSCAD_Model
  facet normal 0.987688 0.156435 0
    outer loop
      vertex 3.25 0 1.4
      vertex 3.09093 1.0043 0.8
      vertex 3.09093 1.0043 1.4
    endloop
  endfacet
  facet normal 0.987688 0.156435 0
    outer loop
      vertex 3.09093 1.0043 0.8
      vertex 3.25 0 1.4
      vertex 3.25 0 0.8
    endloop
  endfacet
  facet normal -0.987688 0.156435 0
    outer loop
      vertex -3.25 0 0.8
      vertex -3.09093 1.0043 1.4
      vertex -3.09093 1.0043 0.8
    endloop
  endfacet
  facet normal -0.987688 0.156435 0
    outer loop
      vertex -3.09093 1.0043 1.4
      vertex -3.25 0 0.8
      vertex -3.25 0 1.4
    endloop
  endfacet
  facet normal 0.156435 0.987688 -0
    outer loop
      vertex 1.0043 3.09093 0.8
      vertex 0 3.25 1.4
      vertex 1.0043 3.09093 1.4
    endloop
  endfacet
  facet normal 0.156435 0.987688 0
    outer loop
      vertex 0 3.25 1.4
      vertex 1.0043 3.09093 0.8
      vertex 0 3.25 0.8
    endloop
  endfacet
  facet normal 0 0 -1
    outer loop
      vertex 3.09093 -1.0043 0.8
      vertex 3.09093 1.0043 0.8
      vertex 3.25 0 0.8
    endloop
  endfacet
  facet normal 0 0 -1
    outer loop
      vertex 2.6293 -1.9103 0.8
      vertex 3.09093 1.0043 0.8
      vertex 3.09093 -1.0043 0.8
    endloop
  endfacet
  facet normal 0 0 -1
    outer loop
      vertex 2.6293 -1.9103 0.8
      vertex 2.6293 1.9103 0.8
      vertex 3.09093 1.0043 0.8
    endloop
  endfacet
  facet normal 0 0 -1
    outer loop
      vertex 1.9103 -2.6293 0.8
      vertex 2.6293 1.9103 0.8
      vertex 2.6293 -1.9103 0.8
    endloop
  endfacet
  facet normal 0 0 -1
    outer loop
      vertex 1.9103 -2.6293 0.8
      vertex 1.9103 2.6293 0.8
      vertex 2.6293 1.9103 0.8
    endloop
  endfacet
  facet normal 0 0 -1
    outer loop
      vertex 1.0043 -3.09093 0.8
      vertex 1.9103 2.6293 0.8
      vertex 1.9103 -2.6293 0.8
    endloop
  endfacet
  facet normal 0 0 -1
    outer loop
      vertex 1.0043 -3.09093 0.8
      vertex 1.0043 3.09093 0.8
      vertex 1.9103 2.6293 0.8
    endloop
  endfacet
  facet normal 0 0 -1
    outer loop
      vertex 0 -3.25 0.8
      vertex 1.0043 3.09093 0.8
      vertex 1.0043 -3.09093 0.8
    endloop
  endfacet
  facet normal 0 0 -1
    outer loop
      vertex 0 -3.25 0.8
      vertex 0 3.25 0.8
      vertex 1.0043 3.09093 0.8
    endloop
  endfacet
  facet normal 0 0 -1
    outer loop
      vertex -1.0043 -3.09093 0.8
      vertex 0 3.25 0.8
      vertex 0 -3.25 0.8
    endloop
  endfacet
  facet normal 0 0 -1
    outer loop
      vertex -1.0043 -3.09093 0.8
      vertex -1.0043 3.09093 0.8
      vertex 0 3.25 0.8
    endloop
  endfacet
  facet normal 0 0 -1
    outer loop
      vertex -1.9103 -2.6293 0.8
      vertex -1.0043 3.09093 0.8
      vertex -1.0043 -3.09093 0.8
    endloop
  endfacet
  facet normal 0 0 -1
    outer loop
      vertex -1.9103 -2.6293 0.8
      vertex -1.9103 2.6293 0.8
      vertex -1.0043 3.09093 0.8
    endloop
  endfacet
  facet normal 0 0 -1
    outer loop
      vertex -2.6293 -1.9103 0.8
      vertex -1.9103 2.6293 0.8
      vertex -1.9103 -2.6293 0.8
    endloop
  endfacet
  facet normal 0 0 -1
    outer loop
      vertex -2.6293 -1.9103 0.8
      vertex -2.6293 1.9103 0.8
      vertex -1.9103 2.6293 0.8
    endloop
  endfacet
  facet normal 0 0 -1
    outer loop
      vertex -3.09093 -1.0043 0.8
      vertex -2.6293 1.9103 0.8
      vertex -2.6293 -1.9103 0.8
    endloop
  endfacet
  facet normal 0 0 -1
    outer loop
      vertex -3.09093 -1.0043 0.8
      vertex -3.09093 1.0043 0.8
      vertex -2.6293 1.9103 0.8
    endloop
  endfacet
  facet normal 0 -0 -1
    outer loop
      vertex -3.09093 1.0043 0.8
      vertex -3.09093 -1.0043 0.8
      vertex -3.25 0 0.8
    endloop
  endfacet
  facet normal 0.707107 0.707107 0
    outer loop
      vertex 2.6293 1.9103 1.4
      vertex 1.9103 2.6293 0.8
      vertex 1.9103 2.6293 1.4
    endloop
  endfacet
  facet normal 0.707107 0.707107 0
    outer loop
      vertex 1.9103 2.6293 0.8
      vertex 2.6293 1.9103 1.4
      vertex 2.6293 1.9103 0.8
    endloop
  endfacet
  facet normal 0.891007 0.45399 0
    outer loop
      vertex 3.09093 1.0043 1.4
      vertex 2.6293 1.9103 0.8
      vertex 2.6293 1.9103 1.4
    endloop
  endfacet
  facet normal 0.891007 0.45399 0
    outer loop
      vertex 2.6293 1.9103 0.8
      vertex 3.09093 1.0043 1.4
      vertex 3.09093 1.0043 0.8
    endloop
  endfacet
  facet normal 0.45399 0.891007 -0
    outer loop
      vertex 1.9103 2.6293 0.8
      vertex 1.0043 3.09093 1.4
      vertex 1.9103 2.6293 1.4
    endloop
  endfacet
  facet normal 0.45399 0.891007 0
    outer loop
      vertex 1.0043 3.09093 1.4
      vertex 1.9103 2.6293 0.8
      vertex 1.0043 3.09093 0.8
    endloop
  endfacet
  facet normal -0.45399 0.891007 0
    outer loop
      vertex -1.0043 3.09093 0.8
      vertex -1.9103 2.6293 1.4
      vertex -1.0043 3.09093 1.4
    endloop
  endfacet
  facet normal -0.45399 0.891007 0
    outer loop
      vertex -1.9103 2.6293 1.4
      vertex -1.0043 3.09093 0.8
      vertex -1.9103 2.6293 0.8
    endloop
  endfacet
  facet normal -0.707107 0.707107 0
    outer loop
      vertex -2.6293 1.9103 0.8
      vertex -1.9103 2.6293 1.4
      vertex -1.9103 2.6293 0.8
    endloop
  endfacet
  facet normal -0.707107 0.707107 0
    outer loop
      vertex -1.9103 2.6293 1.4
      vertex -2.6293 1.9103 0.8
      vertex -2.6293 1.9103 1.4
    endloop
  endfacet
  facet normal -0.156435 0.987688 0
    outer loop
      vertex 0 3.25 0.8
      vertex -1.0043 3.09093 1.4
      vertex 0 3.25 1.4
    endloop
  endfacet
  facet normal -0.156435 0.987688 0
    outer loop
      vertex -1.0043 3.09093 1.4
      vertex 0 3.25 0.8
      vertex -1.0043 3.09093 0.8
    endloop
  endfacet
  facet normal 0.891007 -0.45399 0
    outer loop
      vertex 2.6293 -1.9103 1.4
      vertex 3.09093 -1.0043 0.8
      vertex 3.09093 -1.0043 1.4
    endloop
  endfacet
  facet normal 0.891007 -0.45399 0
    outer loop
      vertex 3.09093 -1.0043 0.8
      vertex 2.6293 -1.9103 1.4
      vertex 2.6293 -1.9103 0.8
    endloop
  endfacet
  facet normal -0.707107 -0.707107 0
    outer loop
      vertex -1.9103 -2.6293 0.8
      vertex -2.6293 -1.9103 1.4
      vertex -2.6293 -1.9103 0.8
    endloop
  endfacet
  facet normal -0.707107 -0.707107 0
    outer loop
      vertex -2.6293 -1.9103 1.4
      vertex -1.9103 -2.6293 0.8
      vertex -1.9103 -2.6293 1.4
    endloop
  endfacet
  facet normal -0.987688 -0.156435 0
    outer loop
      vertex -3.09093 -1.0043 0.8
      vertex -3.25 0 1.4
      vertex -3.25 0 0.8
    endloop
  endfacet
  facet normal -0.987688 -0.156435 0
    outer loop
      vertex -3.25 0 1.4
      vertex -3.09093 -1.0043 0.8
      vertex -3.09093 -1.0043 1.4
    endloop
  endfacet
  facet normal -0.891007 0.45399 0
    outer loop
      vertex -3.09093 1.0043 0.8
      vertex -2.6293 1.9103 1.4
      vertex -2.6293 1.9103 0.8
    endloop
  endfacet
  facet normal -0.891007 0.45399 0
    outer loop
      vertex -2.6293 1.9103 1.4
      vertex -3.09093 1.0043 0.8
      vertex -3.09093 1.0043 1.4
    endloop
  endfacet
  facet normal 0 0 1
    outer loop
      vertex 1.6 0 1.4
      vertex 3.25 0 1.4
      vertex 3.09093 1.0043 1.4
    endloop
  endfacet
  facet normal 0 0 1
    outer loop
      vertex 1.52169 0.494427 1.4
      vertex 3.09093 1.0043 1.4
      vertex 2.6293 1.9103 1.4
    endloop
  endfacet
  facet normal 0 0 1
    outer loop
      vertex 3.25 0 1.4
      vertex 1.6 0 1.4
      vertex 3.09093 -1.0043 1.4
    endloop
  endfacet
  facet normal 0 0 1
    outer loop
      vertex 1.29443 0.940456 1.4
      vertex 2.6293 1.9103 1.4
      vertex 1.9103 2.6293 1.4
    endloop
  endfacet
  facet normal -0 0 1
    outer loop
      vertex 1.52169 -0.494427 1.4
      vertex 3.09093 -1.0043 1.4
      vertex 1.6 0 1.4
    endloop
  endfacet
  facet normal 0 0 1
    outer loop
      vertex 3.09093 -1.0043 1.4
      vertex 1.52169 -0.494427 1.4
      vertex 2.6293 -1.9103 1.4
    endloop
  endfacet
  facet normal 0 0 1
    outer loop
      vertex 3.09093 1.0043 1.4
      vertex 1.52169 0.494427 1.4
      vertex 1.6 0 1.4
    endloop
  endfacet
  facet normal 0 0 1
    outer loop
      vertex 2.6293 1.9103 1.4
      vertex 1.29443 0.940456 1.4
      vertex 1.52169 0.494427 1.4
    endloop
  endfacet
  facet normal 0 0 1
    outer loop
      vertex 0.940456 1.29443 1.4
      vertex 1.9103 2.6293 1.4
      vertex 1.0043 3.09093 1.4
    endloop
  endfacet
  facet normal 0 0 1
    outer loop
      vertex 1.9103 2.6293 1.4
      vertex 0.940456 1.29443 1.4
      vertex 1.29443 0.940456 1.4
    endloop
  endfacet
  facet normal 0 0 1
    outer loop
      vertex 1.0043 3.09093 1.4
      vertex 0.494427 1.52169 1.4
      vertex 0.940456 1.29443 1.4
    endloop
  endfacet
  facet normal 0 0 1
    outer loop
      vertex 0 3.25 1.4
      vertex 0.494427 1.52169 1.4
      vertex 1.0043 3.09093 1.4
    endloop
  endfacet
  facet normal 0 0 1
    outer loop
      vertex 0 3.25 1.4
      vertex 0 1.6 1.4
      vertex 0.494427 1.52169 1.4
    endloop
  endfacet
  facet normal 0 0 1
    outer loop
      vertex 0 3.25 1.4
      vertex -0.494427 1.52169 1.4
      vertex 0 1.6 1.4
    endloop
  endfacet
  facet normal -0 0 1
    outer loop
      vertex -1.0043 3.09093 1.4
      vertex -0.494427 1.52169 1.4
      vertex 0 3.25 1.4
    endloop
  endfacet
  facet normal 0 0 1
    outer loop
      vertex -0.494427 1.52169 1.4
      vertex -1.0043 3.09093 1.4
      vertex -0.940456 1.29443 1.4
    endloop
  endfacet
  facet normal -0 0 1
    outer loop
      vertex -1.9103 2.6293 1.4
      vertex -0.940456 1.29443 1.4
      vertex -1.0043 3.09093 1.4
    endloop
  endfacet
  facet normal 0 0 1
    outer loop
      vertex -0.940456 1.29443 1.4
      vertex -1.9103 2.6293 1.4
      vertex -1.29443 0.940456 1.4
    endloop
  endfacet
  facet normal 0 0 1
    outer loop
      vertex -1.29443 0.940456 1.4
      vertex -2.6293 1.9103 1.4
      vertex -1.52169 0.494427 1.4
    endloop
  endfacet
  facet normal -0 0 1
    outer loop
      vertex -2.6293 1.9103 1.4
      vertex -1.29443 0.940456 1.4
      vertex -1.9103 2.6293 1.4
    endloop
  endfacet
  facet normal -0 0 1
    outer loop
      vertex 1.29443 -0.940456 1.4
      vertex 2.6293 -1.9103 1.4
      vertex 1.52169 -0.494427 1.4
    endloop
  endfacet
  facet normal 0 0 1
    outer loop
      vertex 2.6293 -1.9103 1.4
      vertex 1.29443 -0.940456 1.4
      vertex 1.9103 -2.6293 1.4
    endloop
  endfacet
  facet normal -0 0 1
    outer loop
      vertex 0.940456 -1.29443 1.4
      vertex 1.9103 -2.6293 1.4
      vertex 1.29443 -0.940456 1.4
    endloop
  endfacet
  facet normal 0 0 1
    outer loop
      vertex 1.9103 -2.6293 1.4
      vertex 0.940456 -1.29443 1.4
      vertex 1.0043 -3.09093 1.4
    endloop
  endfacet
  facet normal -0 0 1
    outer loop
      vertex 0.494427 -1.52169 1.4
      vertex 1.0043 -3.09093 1.4
      vertex 0.940456 -1.29443 1.4
    endloop
  endfacet
  facet normal -0 0 1
    outer loop
      vertex 0 -1.6 1.4
      vertex 1.0043 -3.09093 1.4
      vertex 0.494427 -1.52169 1.4
    endloop
  endfacet
  facet normal 0 0 1
    outer loop
      vertex 0 -1.6 1.4
      vertex 0 -3.25 1.4
      vertex 1.0043 -3.09093 1.4
    endloop
  endfacet
  facet normal 0 0 1
    outer loop
      vertex -0.494427 -1.52169 1.4
      vertex 0 -3.25 1.4
      vertex 0 -1.6 1.4
    endloop
  endfacet
  facet normal 0 0 1
    outer loop
      vertex -1.0043 -3.09093 1.4
      vertex -0.494427 -1.52169 1.4
      vertex -0.940456 -1.29443 1.4
    endloop
  endfacet
  facet normal 0 0 1
    outer loop
      vertex -0.494427 -1.52169 1.4
      vertex -1.0043 -3.09093 1.4
      vertex 0 -3.25 1.4
    endloop
  endfacet
  facet normal 0 0 1
    outer loop
      vertex -1.9103 -2.6293 1.4
      vertex -0.940456 -1.29443 1.4
      vertex -1.29443 -0.940456 1.4
    endloop
  endfacet
  facet normal 0 0 1
    outer loop
      vertex -2.6293 -1.9103 1.4
      vertex -1.29443 -0.940456 1.4
      vertex -1.52169 -0.494427 1.4
    endloop
  endfacet
  facet normal 0 0 1
    outer loop
      vertex -0.940456 -1.29443 1.4
      vertex -1.9103 -2.6293 1.4
      vertex -1.0043 -3.09093 1.4
    endloop
  endfacet
  facet normal 0 0 1
    outer loop
      vertex -3.09093 -1.0043 1.4
      vertex -1.52169 -0.494427 1.4
      vertex -1.6 0 1.4
    endloop
  endfacet
  facet normal -0 0 1
    outer loop
      vertex -3.09093 1.0043 1.4
      vertex -1.52169 0.494427 1.4
      vertex -2.6293 1.9103 1.4
    endloop
  endfacet
  facet normal 0 0 1
    outer loop
      vertex -1.52169 0.494427 1.4
      vertex -3.09093 1.0043 1.4
      vertex -1.6 0 1.4
    endloop
  endfacet
  facet normal 0 0 1
    outer loop
      vertex -1.29443 -0.940456 1.4
      vertex -2.6293 -1.9103 1.4
      vertex -1.9103 -2.6293 1.4
    endloop
  endfacet
  facet normal 0 0 1
    outer loop
      vertex -3.25 0 1.4
      vertex -1.6 0 1.4
      vertex -3.09093 1.0043 1.4
    endloop
  endfacet
  facet normal 0 0 1
    outer loop
      vertex -1.52169 -0.494427 1.4
      vertex -3.09093 -1.0043 1.4
      vertex -2.6293 -1.9103 1.4
    endloop
  endfacet
  facet normal 0 0 1
    outer loop
      vertex -1.6 0 1.4
      vertex -3.25 0 1.4
      vertex -3.09093 -1.0043 1.4
    endloop
  endfacet
  facet normal 0.987688 -0.156435 0
    outer loop
      vertex 3.09093 -1.0043 1.4
      vertex 3.25 0 0.8
      vertex 3.25 0 1.4
    endloop
  endfacet
  facet normal 0.987688 -0.156435 0
    outer loop
      vertex 3.25 0 0.8
      vertex 3.09093 -1.0043 1.4
      vertex 3.09093 -1.0043 0.8
    endloop
  endfacet
  facet normal 0.156435 -0.987688 0
    outer loop
      vertex 0 -3.25 0.8
      vertex 1.0043 -3.09093 1.4
      vertex 0 -3.25 1.4
    endloop
  endfacet
  facet normal 0.156435 -0.987688 0
    outer loop
      vertex 1.0043 -3.09093 1.4
      vertex 0 -3.25 0.8
      vertex 1.0043 -3.09093 0.8
    endloop
  endfacet
  facet normal 0.707107 -0.707107 0
    outer loop
      vertex 1.9103 -2.6293 1.4
      vertex 2.6293 -1.9103 0.8
      vertex 2.6293 -1.9103 1.4
    endloop
  endfacet
  facet normal 0.707107 -0.707107 0
    outer loop
      vertex 2.6293 -1.9103 0.8
      vertex 1.9103 -2.6293 1.4
      vertex 1.9103 -2.6293 0.8
    endloop
  endfacet
  facet normal -0.45399 -0.891007 0
    outer loop
      vertex -1.9103 -2.6293 0.8
      vertex -1.0043 -3.09093 1.4
      vertex -1.9103 -2.6293 1.4
    endloop
  endfacet
  facet normal -0.45399 -0.891007 -0
    outer loop
      vertex -1.0043 -3.09093 1.4
      vertex -1.9103 -2.6293 0.8
      vertex -1.0043 -3.09093 0.8
    endloop
  endfacet
  facet normal -0.891007 -0.45399 0
    outer loop
      vertex -2.6293 -1.9103 0.8
      vertex -3.09093 -1.0043 1.4
      vertex -3.09093 -1.0043 0.8
    endloop
  endfacet
  facet normal -0.891007 -0.45399 0
    outer loop
      vertex -3.09093 -1.0043 1.4
      vertex -2.6293 -1.9103 0.8
      vertex -2.6293 -1.9103 1.4
    endloop
  endfacet
  facet normal 0.45399 -0.891007 0
    outer loop
      vertex 1.0043 -3.09093 0.8
      vertex 1.9103 -2.6293 1.4
      vertex 1.0043 -3.09093 1.4
    endloop
  endfacet
  facet normal 0.45399 -0.891007 0
    outer loop
      vertex 1.9103 -2.6293 1.4
      vertex 1.0043 -3.09093 0.8
      vertex 1.9103 -2.6293 0.8
    endloop
  endfacet
  facet normal -0.156435 -0.987688 0
    outer loop
      vertex -1.0043 -3.09093 0.8
      vertex 0 -3.25 1.4
      vertex -1.0043 -3.09093 1.4
    endloop
  endfacet
  facet normal -0.156435 -0.987688 -0
    outer loop
      vertex 0 -3.25 1.4
      vertex -1.0043 -3.09093 0.8
      vertex 0 -3.25 0.8
    endloop
  endfacet
  facet normal -0.987688 0.156434 0
    outer loop
      vertex -1.6 0 1.4
      vertex -1.52169 0.494427 3.4
      vertex -1.52169 0.494427 1.4
    endloop
  endfacet
  facet normal -0.987688 0.156434 0
    outer loop
      vertex -1.52169 0.494427 3.4
      vertex -1.6 0 1.4
      vertex -1.6 0 3.4
    endloop
  endfacet
  facet normal -0.987688 -0.156434 0
    outer loop
      vertex -1.52169 -0.494427 1.4
      vertex -1.6 0 3.4
      vertex -1.6 0 1.4
    endloop
  endfacet
  facet normal -0.987688 -0.156434 0
    outer loop
      vertex -1.6 0 3.4
      vertex -1.52169 -0.494427 1.4
      vertex -1.52169 -0.494427 3.4
    endloop
  endfacet
  facet normal 0.987688 -0.156434 0
    outer loop
      vertex 1.52169 -0.494427 3.4
      vertex 1.6 0 1.4
      vertex 1.6 0 3.4
    endloop
  endfacet
  facet normal 0.987688 -0.156434 0
    outer loop
      vertex 1.6 0 1.4
      vertex 1.52169 -0.494427 3.4
      vertex 1.52169 -0.494427 1.4
    endloop
  endfacet
  facet normal 0.707107 0.707107 0
    outer loop
      vertex 1.29443 0.940456 3.4
      vertex 0.940456 1.29443 1.4
      vertex 0.940456 1.29443 3.4
    endloop
  endfacet
  facet normal 0.707107 0.707107 0
    outer loop
      vertex 0.940456 1.29443 1.4
      vertex 1.29443 0.940456 3.4
      vertex 1.29443 0.940456 1.4
    endloop
  endfacet
  facet normal 0.891007 0.45399 0
    outer loop
      vertex 1.52169 0.494427 3.4
      vertex 1.29443 0.940456 1.4
      vertex 1.29443 0.940456 3.4
    endloop
  endfacet
  facet normal 0.891007 0.45399 0
    outer loop
      vertex 1.29443 0.940456 1.4
      vertex 1.52169 0.494427 3.4
      vertex 1.52169 0.494427 1.4
    endloop
  endfacet
  facet normal 0.156434 0.987688 -0
    outer loop
      vertex 0.494427 1.52169 1.4
      vertex 0 1.6 3.4
      vertex 0.494427 1.52169 3.4
    endloop
  endfacet
  facet normal 0.156434 0.987688 0
    outer loop
      vertex 0 1.6 3.4
      vertex 0.494427 1.52169 1.4
      vertex 0 1.6 1.4
    endloop
  endfacet
  facet normal 0.45399 0.891007 -0
    outer loop
      vertex 0.940456 1.29443 1.4
      vertex 0.494427 1.52169 3.4
      vertex 0.940456 1.29443 3.4
    endloop
  endfacet
  facet normal 0.45399 0.891007 0
    outer loop
      vertex 0.494427 1.52169 3.4
      vertex 0.940456 1.29443 1.4
      vertex 0.494427 1.52169 1.4
    endloop
  endfacet
  facet normal -0.45399 0.891007 0
    outer loop
      vertex -0.494427 1.52169 1.4
      vertex -0.940456 1.29443 3.4
      vertex -0.494427 1.52169 3.4
    endloop
  endfacet
  facet normal -0.45399 0.891007 0
    outer loop
      vertex -0.940456 1.29443 3.4
      vertex -0.494427 1.52169 1.4
      vertex -0.940456 1.29443 1.4
    endloop
  endfacet
  facet normal -0.707107 0.707107 0
    outer loop
      vertex -1.29443 0.940456 1.4
      vertex -0.940456 1.29443 3.4
      vertex -0.940456 1.29443 1.4
    endloop
  endfacet
  facet normal -0.707107 0.707107 0
    outer loop
      vertex -0.940456 1.29443 3.4
      vertex -1.29443 0.940456 1.4
      vertex -1.29443 0.940456 3.4
    endloop
  endfacet
  facet normal -0.156434 0.987688 0
    outer loop
      vertex 0 1.6 1.4
      vertex -0.494427 1.52169 3.4
      vertex 0 1.6 3.4
    endloop
  endfacet
  facet normal -0.156434 0.987688 0
    outer loop
      vertex -0.494427 1.52169 3.4
      vertex 0 1.6 1.4
      vertex -0.494427 1.52169 1.4
    endloop
  endfacet
  facet normal 0 0 1
    outer loop
      vertex 1.52169 0.494427 3.4
      vertex 1.52169 -0.494427 3.4
      vertex 1.6 0 3.4
    endloop
  endfacet
  facet normal 0 0 1
    outer loop
      vertex 1.29443 0.940456 3.4
      vertex 1.52169 -0.494427 3.4
      vertex 1.52169 0.494427 3.4
    endloop
  endfacet
  facet normal 0 0 1
    outer loop
      vertex 1.29443 0.940456 3.4
      vertex 1.29443 -0.940456 3.4
      vertex 1.52169 -0.494427 3.4
    endloop
  endfacet
  facet normal 0 0 1
    outer loop
      vertex 0.940456 1.29443 3.4
      vertex 1.29443 -0.940456 3.4
      vertex 1.29443 0.940456 3.4
    endloop
  endfacet
  facet normal 0 0 1
    outer loop
      vertex 0.940456 1.29443 3.4
      vertex 0.940456 -1.29443 3.4
      vertex 1.29443 -0.940456 3.4
    endloop
  endfacet
  facet normal 0 0 1
    outer loop
      vertex 0.494427 1.52169 3.4
      vertex 0.940456 -1.29443 3.4
      vertex 0.940456 1.29443 3.4
    endloop
  endfacet
  facet normal 0 0 1
    outer loop
      vertex 0.494427 1.52169 3.4
      vertex 0.494427 -1.52169 3.4
      vertex 0.940456 -1.29443 3.4
    endloop
  endfacet
  facet normal 0 0 1
    outer loop
      vertex 0 1.6 3.4
      vertex 0.494427 -1.52169 3.4
      vertex 0.494427 1.52169 3.4
    endloop
  endfacet
  facet normal 0 0 1
    outer loop
      vertex 0 1.6 3.4
      vertex 0 -1.6 3.4
      vertex 0.494427 -1.52169 3.4
    endloop
  endfacet
  facet normal -0 0 1
    outer loop
      vertex -0.494427 1.52169 3.4
      vertex 0 -1.6 3.4
      vertex 0 1.6 3.4
    endloop
  endfacet
  facet normal 0 0 1
    outer loop
      vertex -0.494427 1.52169 3.4
      vertex -0.494427 -1.52169 3.4
      vertex 0 -1.6 3.4
    endloop
  endfacet
  facet normal -0 0 1
    outer loop
      vertex -0.940456 1.29443 3.4
      vertex -0.494427 -1.52169 3.4
      vertex -0.494427 1.52169 3.4
    endloop
  endfacet
  facet normal 0 0 1
    outer loop
      vertex -0.940456 1.29443 3.4
      vertex -0.940456 -1.29443 3.4
      vertex -0.494427 -1.52169 3.4
    endloop
  endfacet
  facet normal -0 0 1
    outer loop
      vertex -1.29443 0.940456 3.4
      vertex -0.940456 -1.29443 3.4
      vertex -0.940456 1.29443 3.4
    endloop
  endfacet
  facet normal 0 0 1
    outer loop
      vertex -1.29443 0.940456 3.4
      vertex -1.29443 -0.940456 3.4
      vertex -0.940456 -1.29443 3.4
    endloop
  endfacet
  facet normal -0 0 1
    outer loop
      vertex -1.52169 0.494427 3.4
      vertex -1.29443 -0.940456 3.4
      vertex -1.29443 0.940456 3.4
    endloop
  endfacet
  facet normal 0 0 1
    outer loop
      vertex -1.52169 0.494427 3.4
      vertex -1.52169 -0.494427 3.4
      vertex -1.29443 -0.940456 3.4
    endloop
  endfacet
  facet normal 0 -0 1
    outer loop
      vertex -1.52169 -0.494427 3.4
      vertex -1.52169 0.494427 3.4
      vertex -1.6 0 3.4
    endloop
  endfacet
  facet normal -0.891007 0.45399 0
    outer loop
      vertex -1.52169 0.494427 1.4
      vertex -1.29443 0.940456 3.4
      vertex -1.29443 0.940456 1.4
    endloop
  endfacet
  facet normal -0.891007 0.45399 0
    outer loop
      vertex -1.29443 0.940456 3.4
      vertex -1.52169 0.494427 1.4
      vertex -1.52169 0.494427 3.4
    endloop
  endfacet
  facet normal 0.987688 0.156434 0
    outer loop
      vertex 1.6 0 3.4
      vertex 1.52169 0.494427 1.4
      vertex 1.52169 0.494427 3.4
    endloop
  endfacet
  facet normal 0.987688 0.156434 0
    outer loop
      vertex 1.52169 0.494427 1.4
      vertex 1.6 0 3.4
      vertex 1.6 0 1.4
    endloop
  endfacet
  facet normal -0.891007 -0.45399 0
    outer loop
      vertex -1.29443 -0.940456 1.4
      vertex -1.52169 -0.494427 3.4
      vertex -1.52169 -0.494427 1.4
    endloop
  endfacet
  facet normal -0.891007 -0.45399 0
    outer loop
      vertex -1.52169 -0.494427 3.4
      vertex -1.29443 -0.940456 1.4
      vertex -1.29443 -0.940456 3.4
    endloop
  endfacet
  facet normal 0.45399 -0.891007 0
    outer loop
      vertex 0.494427 -1.52169 1.4
      vertex 0.940456 -1.29443 3.4
      vertex 0.494427 -1.52169 3.4
    endloop
  endfacet
  facet normal 0.45399 -0.891007 0
    outer loop
      vertex 0.940456 -1.29443 3.4
      vertex 0.494427 -1.52169 1.4
      vertex 0.940456 -1.29443 1.4
    endloop
  endfacet
  facet normal 0.707107 -0.707107 0
    outer loop
      vertex 0.940456 -1.29443 3.4
      vertex 1.29443 -0.940456 1.4
      vertex 1.29443 -0.940456 3.4
    endloop
  endfacet
  facet normal 0.707107 -0.707107 0
    outer loop
      vertex 1.29443 -0.940456 1.4
      vertex 0.940456 -1.29443 3.4
      vertex 0.940456 -1.29443 1.4
    endloop
  endfacet
  facet normal 0.891007 -0.45399 0
    outer loop
      vertex 1.29443 -0.940456 3.4
      vertex 1.52169 -0.494427 1.4
      vertex 1.52169 -0.494427 3.4
    endloop
  endfacet
  facet normal 0.891007 -0.45399 0
    outer loop
      vertex 1.52169 -0.494427 1.4
      vertex 1.29443 -0.940456 3.4
      vertex 1.29443 -0.940456 1.4
    endloop
  endfacet
  facet normal 0.156434 -0.987688 0
    outer loop
      vertex 0 -1.6 1.4
      vertex 0.494427 -1.52169 3.4
      vertex 0 -1.6 3.4
    endloop
  endfacet
  facet normal 0.156434 -0.987688 0
    outer loop
      vertex 0.494427 -1.52169 3.4
      vertex 0 -1.6 1.4
      vertex 0.494427 -1.52169 1.4
    endloop
  endfacet
  facet normal -0.156434 -0.987688 0
    outer loop
      vertex -0.494427 -1.52169 1.4
      vertex 0 -1.6 3.4
      vertex -0.494427 -1.52169 3.4
    endloop
  endfacet
  facet normal -0.156434 -0.987688 -0
    outer loop
      vertex 0 -1.6 3.4
      vertex -0.494427 -1.52169 1.4
      vertex 0 -1.6 1.4
    endloop
  endfacet
  facet normal -0.707107 -0.707107 0
    outer loop
      vertex -0.940456 -1.29443 1.4
      vertex -1.29443 -0.940456 3.4
      vertex -1.29443 -0.940456 1.4
    endloop
  endfacet
  facet normal -0.707107 -0.707107 0
    outer loop
      vertex -1.29443 -0.940456 3.4
      vertex -0.940456 -1.29443 1.4
      vertex -0.940456 -1.29443 3.4
    endloop
  endfacet
  facet normal -0.45399 -0.891007 0
    outer loop
      vertex -0.940456 -1.29443 1.4
      vertex -0.494427 -1.52169 3.4
      vertex -0.940456 -1.29443 3.4
    endloop
  endfacet
  facet normal -0.45399 -0.891007 -0
    outer loop
      vertex -0.494427 -1.52169 3.4
      vertex -0.940456 -1.29443 1.4
      vertex -0.494427 -1.52169 1.4
    endloop
  endfacet
  facet normal 0.987688 0.156435 0
    outer loop
      vertex 5.25 0 0.799999
      vertex 4.99305 1.62234 0
      vertex 4.99305 1.62234 0.799999
    endloop
  endfacet
  facet normal 0.987688 0.156435 0
    outer loop
      vertex 4.99305 1.62234 0
      vertex 5.25 0 0.799999
      vertex 5.25 0 0
    endloop
  endfacet
  facet normal -0.987688 0.156435 0
    outer loop
      vertex -5.25 0 0
      vertex -4.99305 1.62234 0.799999
      vertex -4.99305 1.62234 0
    endloop
  endfacet
  facet normal -0.987688 0.156435 0
    outer loop
      vertex -4.99305 1.62234 0.799999
      vertex -5.25 0 0
      vertex -5.25 0 0.799999
    endloop
  endfacet
  facet normal 0.156435 0.987688 -0
    outer loop
      vertex 1.62234 4.99305 0
      vertex 0 5.25 0.799999
      vertex 1.62234 4.99305 0.799999
    endloop
  endfacet
  facet normal 0.156435 0.987688 0
    outer loop
      vertex 0 5.25 0.799999
      vertex 1.62234 4.99305 0
      vertex 0 5.25 0
    endloop
  endfacet
  facet normal -0.156435 -0.987688 0
    outer loop
      vertex -1.62234 -4.99305 0
      vertex 0 -5.25 0.799999
      vertex -1.62234 -4.99305 0.799999
    endloop
  endfacet
  facet normal -0.156435 -0.987688 -0
    outer loop
      vertex 0 -5.25 0.799999
      vertex -1.62234 -4.99305 0
      vertex 0 -5.25 0
    endloop
  endfacet
  facet normal 0 0 -1
    outer loop
      vertex 4.99305 -1.62234 0
      vertex 4.99305 1.62234 0
      vertex 5.25 0 0
    endloop
  endfacet
  facet normal 0 0 -1
    outer loop
      vertex 4.24734 -3.08587 0
      vertex 4.99305 1.62234 0
      vertex 4.99305 -1.62234 0
    endloop
  endfacet
  facet normal 0 0 -1
    outer loop
      vertex 4.24734 -3.08587 0
      vertex 4.24734 3.08587 0
      vertex 4.99305 1.62234 0
    endloop
  endfacet
  facet normal 0 0 -1
    outer loop
      vertex 3.08587 -4.24734 0
      vertex 4.24734 3.08587 0
      vertex 4.24734 -3.08587 0
    endloop
  endfacet
  facet normal 0 0 -1
    outer loop
      vertex 3.08587 -4.24734 0
      vertex 3.08587 4.24734 0
      vertex 4.24734 3.08587 0
    endloop
  endfacet
  facet normal 0 0 -1
    outer loop
      vertex 1.62234 -4.99305 0
      vertex 3.08587 4.24734 0
      vertex 3.08587 -4.24734 0
    endloop
  endfacet
  facet normal 0 0 -1
    outer loop
      vertex 1.62234 -4.99305 0
      vertex 1.62234 4.99305 0
      vertex 3.08587 4.24734 0
    endloop
  endfacet
  facet normal 0 0 -1
    outer loop
      vertex 0 -5.25 0
      vertex 1.62234 4.99305 0
      vertex 1.62234 -4.99305 0
    endloop
  endfacet
  facet normal 0 0 -1
    outer loop
      vertex 0 -5.25 0
      vertex 0 5.25 0
      vertex 1.62234 4.99305 0
    endloop
  endfacet
  facet normal 0 0 -1
    outer loop
      vertex -1.62234 -4.99305 0
      vertex 0 5.25 0
      vertex 0 -5.25 0
    endloop
  endfacet
  facet normal 0 0 -1
    outer loop
      vertex -1.62234 -4.99305 0
      vertex -1.62234 4.99305 0
      vertex 0 5.25 0
    endloop
  endfacet
  facet normal 0 0 -1
    outer loop
      vertex -3.08587 -4.24734 0
      vertex -1.62234 4.99305 0
      vertex -1.62234 -4.99305 0
    endloop
  endfacet
  facet normal 0 0 -1
    outer loop
      vertex -3.08587 -4.24734 0
      vertex -3.08587 4.24734 0
      vertex -1.62234 4.99305 0
    endloop
  endfacet
  facet normal 0 0 -1
    outer loop
      vertex -4.24734 -3.08587 0
      vertex -3.08587 4.24734 0
      vertex -3.08587 -4.24734 0
    endloop
  endfacet
  facet normal 0 0 -1
    outer loop
      vertex -4.24734 -3.08587 0
      vertex -4.24734 3.08587 0
      vertex -3.08587 4.24734 0
    endloop
  endfacet
  facet normal 0 0 -1
    outer loop
      vertex -4.99305 -1.62234 0
      vertex -4.24734 3.08587 0
      vertex -4.24734 -3.08587 0
    endloop
  endfacet
  facet normal 0 0 -1
    outer loop
      vertex -4.99305 -1.62234 0
      vertex -4.99305 1.62234 0
      vertex -4.24734 3.08587 0
    endloop
  endfacet
  facet normal 0 -0 -1
    outer loop
      vertex -4.99305 1.62234 0
      vertex -4.99305 -1.62234 0
      vertex -5.25 0 0
    endloop
  endfacet
  facet normal 0.707107 0.707107 0
    outer loop
      vertex 4.24734 3.08587 0.799999
      vertex 3.08587 4.24734 0
      vertex 3.08587 4.24734 0.799999
    endloop
  endfacet
  facet normal 0.707107 0.707107 0
    outer loop
      vertex 3.08587 4.24734 0
      vertex 4.24734 3.08587 0.799999
      vertex 4.24734 3.08587 0
    endloop
  endfacet
  facet normal 0.891007 0.45399 0
    outer loop
      vertex 4.99305 1.62234 0.799999
      vertex 4.24734 3.08587 0
      vertex 4.24734 3.08587 0.799999
    endloop
  endfacet
  facet normal 0.891007 0.45399 0
    outer loop
      vertex 4.24734 3.08587 0
      vertex 4.99305 1.62234 0.799999
      vertex 4.99305 1.62234 0
    endloop
  endfacet
  facet normal 0.45399 0.891007 -0
    outer loop
      vertex 3.08587 4.24734 0
      vertex 1.62234 4.99305 0.799999
      vertex 3.08587 4.24734 0.799999
    endloop
  endfacet
  facet normal 0.45399 0.891007 0
    outer loop
      vertex 1.62234 4.99305 0.799999
      vertex 3.08587 4.24734 0
      vertex 1.62234 4.99305 0
    endloop
  endfacet
  facet normal -0.45399 0.891007 0
    outer loop
      vertex -1.62234 4.99305 0
      vertex -3.08587 4.24734 0.799999
      vertex -1.62234 4.99305 0.799999
    endloop
  endfacet
  facet normal -0.45399 0.891007 0
    outer loop
      vertex -3.08587 4.24734 0.799999
      vertex -1.62234 4.99305 0
      vertex -3.08587 4.24734 0
    endloop
  endfacet
  facet normal -0.707107 0.707107 0
    outer loop
      vertex -4.24734 3.08587 0
      vertex -3.08587 4.24734 0.799999
      vertex -3.08587 4.24734 0
    endloop
  endfacet
  facet normal -0.707107 0.707107 0
    outer loop
      vertex -3.08587 4.24734 0.799999
      vertex -4.24734 3.08587 0
      vertex -4.24734 3.08587 0.799999
    endloop
  endfacet
  facet normal -0.156435 0.987688 0
    outer loop
      vertex 0 5.25 0
      vertex -1.62234 4.99305 0.799999
      vertex 0 5.25 0.799999
    endloop
  endfacet
  facet normal -0.156435 0.987688 0
    outer loop
      vertex -1.62234 4.99305 0.799999
      vertex 0 5.25 0
      vertex -1.62234 4.99305 0
    endloop
  endfacet
  facet normal 0.891007 -0.45399 0
    outer loop
      vertex 4.24734 -3.08587 0.799999
      vertex 4.99305 -1.62234 0
      vertex 4.99305 -1.62234 0.799999
    endloop
  endfacet
  facet normal 0.891007 -0.45399 0
    outer loop
      vertex 4.99305 -1.62234 0
      vertex 4.24734 -3.08587 0.799999
      vertex 4.24734 -3.08587 0
    endloop
  endfacet
  facet normal -0.707107 -0.707107 0
    outer loop
      vertex -3.08587 -4.24734 0
      vertex -4.24734 -3.08587 0.799999
      vertex -4.24734 -3.08587 0
    endloop
  endfacet
  facet normal -0.707107 -0.707107 0
    outer loop
      vertex -4.24734 -3.08587 0.799999
      vertex -3.08587 -4.24734 0
      vertex -3.08587 -4.24734 0.799999
    endloop
  endfacet
  facet normal -0.987688 -0.156435 0
    outer loop
      vertex -4.99305 -1.62234 0
      vertex -5.25 0 0.799999
      vertex -5.25 0 0
    endloop
  endfacet
  facet normal -0.987688 -0.156435 0
    outer loop
      vertex -5.25 0 0.799999
      vertex -4.99305 -1.62234 0
      vertex -4.99305 -1.62234 0.799999
    endloop
  endfacet
  facet normal -0.891007 0.45399 0
    outer loop
      vertex -4.99305 1.62234 0
      vertex -4.24734 3.08587 0.799999
      vertex -4.24734 3.08587 0
    endloop
  endfacet
  facet normal -0.891007 0.45399 0
    outer loop
      vertex -4.24734 3.08587 0.799999
      vertex -4.99305 1.62234 0
      vertex -4.99305 1.62234 0.799999
    endloop
  endfacet
  facet normal 0 0 1
    outer loop
      vertex 4.99305 1.62234 0.799999
      vertex 4.99305 -1.62234 0.799999
      vertex 5.25 0 0.799999
    endloop
  endfacet
  facet normal 0 0 1
    outer loop
      vertex 4.24734 3.08587 0.799999
      vertex 4.99305 -1.62234 0.799999
      vertex 4.99305 1.62234 0.799999
    endloop
  endfacet
  facet normal 0 0 1
    outer loop
      vertex 4.24734 3.08587 0.799999
      vertex 4.24734 -3.08587 0.799999
      vertex 4.99305 -1.62234 0.799999
    endloop
  endfacet
  facet normal 0 0 1
    outer loop
      vertex 3.08587 4.24734 0.799999
      vertex 4.24734 -3.08587 0.799999
      vertex 4.24734 3.08587 0.799999
    endloop
  endfacet
  facet normal 0 0 1
    outer loop
      vertex 3.08587 4.24734 0.799999
      vertex 3.08587 -4.24734 0.799999
      vertex 4.24734 -3.08587 0.799999
    endloop
  endfacet
  facet normal 0 0 1
    outer loop
      vertex 1.62234 4.99305 0.799999
      vertex 3.08587 -4.24734 0.799999
      vertex 3.08587 4.24734 0.799999
    endloop
  endfacet
  facet normal 0 0 1
    outer loop
      vertex 1.62234 4.99305 0.799999
      vertex 1.62234 -4.99305 0.799999
      vertex 3.08587 -4.24734 0.799999
    endloop
  endfacet
  facet normal 0 0 1
    outer loop
      vertex 0 5.25 0.799999
      vertex 1.62234 -4.99305 0.799999
      vertex 1.62234 4.99305 0.799999
    endloop
  endfacet
  facet normal 0 0 1
    outer loop
      vertex 0 5.25 0.799999
      vertex 0 -5.25 0.799999
      vertex 1.62234 -4.99305 0.799999
    endloop
  endfacet
  facet normal -0 0 1
    outer loop
      vertex -1.62234 4.99305 0.799999
      vertex 0 -5.25 0.799999
      vertex 0 5.25 0.799999
    endloop
  endfacet
  facet normal 0 0 1
    outer loop
      vertex -1.62234 4.99305 0.799999
      vertex -1.62234 -4.99305 0.799999
      vertex 0 -5.25 0.799999
    endloop
  endfacet
  facet normal -0 0 1
    outer loop
      vertex -3.08587 4.24734 0.799999
      vertex -1.62234 -4.99305 0.799999
      vertex -1.62234 4.99305 0.799999
    endloop
  endfacet
  facet normal 0 0 1
    outer loop
      vertex -3.08587 4.24734 0.799999
      vertex -3.08587 -4.24734 0.799999
      vertex -1.62234 -4.99305 0.799999
    endloop
  endfacet
  facet normal -0 0 1
    outer loop
      vertex -4.24734 3.08587 0.799999
      vertex -3.08587 -4.24734 0.799999
      vertex -3.08587 4.24734 0.799999
    endloop
  endfacet
  facet normal 0 0 1
    outer loop
      vertex -4.24734 3.08587 0.799999
      vertex -4.24734 -3.08587 0.799999
      vertex -3.08587 -4.24734 0.799999
    endloop
  endfacet
  facet normal -0 0 1
    outer loop
      vertex -4.99305 1.62234 0.799999
      vertex -4.24734 -3.08587 0.799999
      vertex -4.24734 3.08587 0.799999
    endloop
  endfacet
  facet normal 0 0 1
    outer loop
      vertex -4.99305 1.62234 0.799999
      vertex -4.99305 -1.62234 0.799999
      vertex -4.24734 -3.08587 0.799999
    endloop
  endfacet
  facet normal 0 -0 1
    outer loop
      vertex -4.99305 -1.62234 0.799999
      vertex -4.99305 1.62234 0.799999
      vertex -5.25 0 0.799999
    endloop
  endfacet
  facet normal 0.987688 -0.156435 0
    outer loop
      vertex 4.99305 -1.62234 0.799999
      vertex 5.25 0 0
      vertex 5.25 0 0.799999
    endloop
  endfacet
  facet normal 0.987688 -0.156435 0
    outer loop
      vertex 5.25 0 0
      vertex 4.99305 -1.62234 0.799999
      vertex 4.99305 -1.62234 0
    endloop
  endfacet
  facet normal 0.156435 -0.987688 0
    outer loop
      vertex 0 -5.25 0
      vertex 1.62234 -4.99305 0.799999
      vertex 0 -5.25 0.799999
    endloop
  endfacet
  facet normal 0.156435 -0.987688 0
    outer loop
      vertex 1.62234 -4.99305 0.799999
      vertex 0 -5.25 0
      vertex 1.62234 -4.99305 0
    endloop
  endfacet
  facet normal 0.707107 -0.707107 0
    outer loop
      vertex 3.08587 -4.24734 0.799999
      vertex 4.24734 -3.08587 0
      vertex 4.24734 -3.08587 0.799999
    endloop
  endfacet
  facet normal 0.707107 -0.707107 0
    outer loop
      vertex 4.24734 -3.08587 0
      vertex 3.08587 -4.24734 0.799999
      vertex 3.08587 -4.24734 0
    endloop
  endfacet
  facet normal -0.45399 -0.891007 0
    outer loop
      vertex -3.08587 -4.24734 0
      vertex -1.62234 -4.99305 0.799999
      vertex -3.08587 -4.24734 0.799999
    endloop
  endfacet
  facet normal -0.45399 -0.891007 -0
    outer loop
      vertex -1.62234 -4.99305 0.799999
      vertex -3.08587 -4.24734 0
      vertex -1.62234 -4.99305 0
    endloop
  endfacet
  facet normal -0.891007 -0.45399 0
    outer loop
      vertex -4.24734 -3.08587 0
      vertex -4.99305 -1.62234 0.799999
      vertex -4.99305 -1.62234 0
    endloop
  endfacet
  facet normal -0.891007 -0.45399 0
    outer loop
      vertex -4.99305 -1.62234 0.799999
      vertex -4.24734 -3.08587 0
      vertex -4.24734 -3.08587 0.799999
    endloop
  endfacet
  facet normal 0.45399 -0.891007 0
    outer loop
      vertex 1.62234 -4.99305 0
      vertex 3.08587 -4.24734 0.799999
      vertex 1.62234 -4.99305 0.799999
    endloop
  endfacet
  facet normal 0.45399 -0.891007 0
    outer loop
      vertex 3.08587 -4.24734 0.799999
      vertex 1.62234 -4.99305 0
      vertex 3.08587 -4.24734 0
    endloop
  endfacet
endsolid OpenSCAD_Model
